<svg width="158" height="164" viewBox="0 0 158 164" fill="none" xmlns="http://www.w3.org/2000/svg">
<g opacity="0.3" filter="url(#filter0_f_302_1600)">
<path d="M70 33.1962C75.5693 29.9808 82.4308 29.9808 88 33.1962L101.177 40.8039C106.746 44.0193 110.177 49.9616 110.177 56.3924V71.6078C110.177 78.0385 106.746 83.9808 101.177 87.1962L88 94.8039C82.4308 98.0193 75.5693 98.0193 70 94.8039L56.8231 87.1962C51.2539 83.9808 47.8231 78.0385 47.8231 71.6078V56.3924C47.8231 49.9616 51.2539 44.0193 56.8231 40.8039L70 33.1962Z" fill="#194327"/>
</g>
<g opacity="0.4" filter="url(#filter1_f_302_1600)">
<path d="M70.0002 48.1962C75.5694 44.9808 82.431 44.9808 88.0002 48.1962L103.775 57.3039C109.344 60.5193 112.775 66.4616 112.775 72.8924V91.1078C112.775 97.5385 109.344 103.481 103.775 106.696L88.0002 115.804C82.431 119.019 75.5694 119.019 70.0002 115.804L54.2252 106.696C48.656 103.481 45.2252 97.5385 45.2252 91.1078V72.8924C45.2252 66.4616 48.656 60.5193 54.2252 57.3039L70.0002 48.1962Z" fill="#194327"/>
</g>
<path d="M70.0002 9.19621C75.5694 5.98082 82.431 5.98082 88.0002 9.19621L111.569 22.8039C117.139 26.0193 120.569 31.9616 120.569 38.3924V65.6078C120.569 72.0385 117.139 77.9808 111.569 81.1962L88.0002 94.8039C82.431 98.0193 75.5694 98.0193 70.0002 94.8039L46.431 81.1962C40.8617 77.9808 37.431 72.0385 37.431 65.6078V38.3924C37.431 31.9616 40.8617 26.0193 46.431 22.8039L70.0002 9.19621Z" fill="url(#paint0_linear_302_1600)"/>
<path d="M64.2779 74.5L70.7858 63.2302L77.2938 52L83.762 40.7302L84.8335 38.9444L85.3096 40.7302L87.2938 48.1508L85.0716 52L78.5636 63.2302L72.0954 74.5H79.8731L86.3811 63.2302L89.7541 57.3968L91.3414 63.2302L94.3573 74.5H101.341L98.3255 63.2302L95.3097 52L94.516 49.1032L99.3573 40.7302H92.2938L92.0557 39.8968L89.5954 30.6905L89.2779 29.5H82.4922L82.3335 29.7381L75.9843 40.7302L69.4763 52L63.0081 63.2302L56.5001 74.5H64.2779Z" fill="white"/>
<defs>
<filter id="filter0_f_302_1600" x="29.8231" y="12.7847" width="98.3538" height="102.431" filterUnits="userSpaceOnUse" color-interpolation-filters="sRGB">
<feFlood flood-opacity="0" result="BackgroundImageFix"/>
<feBlend mode="normal" in="SourceGraphic" in2="BackgroundImageFix" result="shape"/>
<feGaussianBlur stdDeviation="9" result="effect1_foregroundBlur_302_1600"/>
</filter>
<filter id="filter1_f_302_1600" x="0.225216" y="0.784664" width="157.55" height="162.431" filterUnits="userSpaceOnUse" color-interpolation-filters="sRGB">
<feFlood flood-opacity="0" result="BackgroundImageFix"/>
<feBlend mode="normal" in="SourceGraphic" in2="BackgroundImageFix" result="shape"/>
<feGaussianBlur stdDeviation="22.5" result="effect1_foregroundBlur_302_1600"/>
</filter>
<linearGradient id="paint0_linear_302_1600" x1="79.0002" y1="6.78467" x2="79.0002" y2="97.2155" gradientUnits="userSpaceOnUse">
<stop stop-color="#3FA862"/>
<stop offset="1" stop-color="#348D52"/>
</linearGradient>
</defs>
</svg>
