<svg width="158" height="164" viewBox="0 0 158 164" fill="none" xmlns="http://www.w3.org/2000/svg">
<g opacity="0.3" filter="url(#filter0_f_302_1606)">
<path d="M69.9999 33.1962C75.5691 29.9808 82.4307 29.9808 87.9999 33.1962L101.177 40.8039C106.746 44.0193 110.177 49.9616 110.177 56.3924V71.6078C110.177 78.0385 106.746 83.9808 101.177 87.1962L87.9999 94.8039C82.4307 98.0193 75.5691 98.0193 69.9999 94.8039L56.823 87.1962C51.2538 83.9808 47.823 78.0385 47.823 71.6078V56.3924C47.823 49.9616 51.2538 44.0193 56.823 40.8039L69.9999 33.1962Z" fill="#6B3D0F"/>
</g>
<g opacity="0.4" filter="url(#filter1_f_302_1606)">
<path d="M70.0001 48.1962C75.5693 44.9808 82.4309 44.9808 88.0001 48.1962L103.775 57.3039C109.344 60.5193 112.775 66.4616 112.775 72.8924V91.1078C112.775 97.5385 109.344 103.481 103.775 106.696L88.0001 115.804C82.4309 119.019 75.5693 119.019 70.0001 115.804L54.2251 106.696C48.6559 103.481 45.2251 97.5385 45.2251 91.1078V72.8924C45.2251 66.4616 48.6559 60.5193 54.2251 57.3039L70.0001 48.1962Z" fill="#6B3D0F"/>
</g>
<path d="M69.9999 9.19621C75.5691 5.98082 82.4307 5.98082 87.9999 9.19621L111.569 22.8039C117.138 26.0193 120.569 31.9616 120.569 38.3924V65.6078C120.569 72.0385 117.138 77.9808 111.569 81.1962L87.9999 94.8039C82.4307 98.0193 75.5691 98.0193 69.9999 94.8039L46.4307 81.1962C40.8614 77.9808 37.4307 72.0385 37.4307 65.6078V38.3924C37.4307 31.9616 40.8614 26.0193 46.4307 22.8039L69.9999 9.19621Z" fill="url(#paint0_linear_302_1606)"/>
<path d="M100.792 43.4406C100.984 42.9796 101.149 42.5814 101.289 41.7602C101.501 40.5022 101.654 39.5939 101.235 38.7387C101.099 38.4613 101.009 38.3828 100.552 38.0075L100.537 37.9952C100.212 37.7283 99.7683 37.3635 99.0942 36.7365L99.0919 36.7343C97.7985 35.532 97.15 34.9291 96.7655 34.1557C96.2191 33.0597 94.103 31.879 93.0713 31.525C90.7958 30.7458 88.6381 30.9888 86.1408 31.2715L85.859 31.3032C85.5579 31.3372 85.2534 31.3715 84.945 31.4021C83.7065 31.529 82.4601 32.2507 81.456 32.8321L81.4432 32.8394C81.0593 33.0629 80.7067 33.2672 80.3906 33.4177C82.0963 33.4213 83.8815 33.6701 85.2654 34.5177C87.5836 35.938 88.0548 38.8515 88.2088 41.5133C88.253 42.2762 88.2005 43.1672 88.1448 44.1096C88.0208 46.2181 87.8805 48.6079 88.9765 48.9186C89.9189 49.1869 92.6414 50.3823 95.8101 52.0005C95.8929 52.0428 96.0958 52.0327 96.1927 52.0262C97.3097 51.8931 98.1468 50.7819 98.6469 50.118C99.266 49.2975 99.5231 48.5356 99.6768 48.0793C99.8659 47.5212 99.9059 47.2071 99.965 46.7423L99.9675 46.7229L99.97 46.7048C100.007 46.4137 100.049 46.0832 100.134 45.633C100.348 44.5081 100.584 43.94 100.792 43.4406Z" fill="white"/>
<path d="M89.8805 53.0687C89.9677 52.9363 89.9116 52.7541 89.7616 52.7024C89.2622 52.5299 88.7914 52.3917 88.4218 52.3292C87.0857 52.1046 86.0417 52.8954 85.6993 53.1554C85.3758 53.4006 85.3663 53.4428 85.3411 53.5545C85.2828 53.8246 85.1894 54.1376 84.7685 54.714C83.9766 55.8023 83.4414 56.1397 83.0513 56.3849L83.0485 56.3866C82.7706 56.5627 82.6011 56.6702 82.3837 57.0195C82.2062 57.3095 82.2105 57.5901 82.2449 58.2562C82.2633 58.5906 82.2847 59.0054 82.2709 59.5167V59.6299C82.2695 60.2208 82.2561 60.6905 82.2355 61.0666C82.2264 61.2267 82.374 61.3551 82.5248 61.2987C82.5797 61.2781 82.6278 61.2571 82.6763 61.2361C82.8537 61.1588 83.0564 61.0705 83.5112 61C86.1202 60.6026 86.4966 60.5205 86.864 60.2743C87.3092 59.9774 87.3468 59.6353 87.3891 58.8904C87.4281 58.1781 87.478 57.2907 88.092 56.2362C88.2652 55.9372 88.4717 55.5539 88.6898 55.1478C89.1544 54.2865 89.5421 53.5821 89.8805 53.0687Z" fill="white"/>
<path d="M79.3807 64.731C79.324 64.8052 79.2574 64.8395 79.1616 64.8442C78.889 64.8558 78.6973 64.7882 78.5704 64.6356C78.3014 64.308 78.3375 63.6498 78.4004 63.2651L79.5037 62.9711C79.5901 63.5551 79.6306 64.406 79.3807 64.731Z" fill="white"/>
<path d="M79.4322 61.281C79.4315 61.0915 79.4517 60.9103 79.4702 60.7494C79.4814 60.6626 79.493 60.5531 79.4958 60.4793C79.3064 60.4507 79.0088 60.5137 78.7806 60.5628C78.6667 60.5889 78.5604 60.6117 78.4566 60.6268C78.405 60.7282 78.4074 61.0703 78.4088 61.2831L78.4089 61.2893L78.4091 61.3792C78.4093 61.4394 78.4096 61.4998 78.4089 61.5609C78.4082 61.6084 78.4064 61.6572 78.4046 61.7067L78.402 61.7782L78.4009 61.8165L78.4 61.8397C78.3957 61.9509 78.3897 62.1032 78.3951 62.2074C78.782 62.2143 79.0764 62.2143 79.421 62.0888C79.4433 61.9725 79.4399 61.7314 79.4374 61.5526L79.4365 61.4918C79.4351 61.4456 79.4343 61.3985 79.4335 61.3512L79.4322 61.281Z" fill="white"/>
<path d="M77.4289 64.3915C77.3757 64.9571 77.2011 65.6564 76.6706 65.7627C76.432 65.8119 76.3166 65.7399 76.2439 65.6716C75.8856 65.3396 75.8284 64.3365 75.8783 63.6191C76.117 63.6235 76.4298 63.5699 76.8001 63.4983C77.0261 63.4535 77.251 63.4036 77.43 63.3624C77.4506 63.6278 77.4654 64.0068 77.4289 64.3915Z" fill="white"/>
<path d="M75.9811 62.7809L77.178 62.3611C77.1824 61.8867 77.1824 61.106 77.1502 60.7505L76.3941 60.7917L76.3687 60.7881L76.3612 60.7878L76.3575 60.7875L76.3533 60.7872L76.3474 60.787C76.3037 60.787 76.2876 60.801 76.2795 60.808C76.2556 60.8282 76.172 60.9223 76.1514 61.2282C76.1228 61.6625 76.0418 62.3162 75.9811 62.7809Z" fill="white"/>
<path d="M75.2443 61.989C75.1767 62.1691 75.0968 62.6793 75.0469 63.0384L73.5477 62.9928C73.6323 62.5285 73.7495 62.0559 73.8782 61.6795C74.0084 61.3052 74.1487 61.0246 74.2778 60.9458C74.4282 60.8554 74.7594 60.8351 74.9623 61.0083C75.2921 61.2896 75.3832 61.6115 75.2443 61.989Z" fill="white"/>
<path d="M74.2796 66.8341C74.4394 66.8171 74.5685 66.7365 74.6846 66.5778C75.1456 65.9504 75.1319 64.4707 75.0842 63.8975C74.7659 63.916 74.0948 64.0364 73.4732 64.1782L73.473 64.1875C73.4555 64.8756 73.4197 66.2887 73.8883 66.7213C73.9896 66.8161 74.1165 66.8526 74.2796 66.8341Z" fill="white"/>
<path d="M72.7278 62.9523L72.6913 63.0496C72.6315 63.2087 72.5748 63.3595 72.5303 63.4954C72.356 63.5501 71.823 63.5023 71.2788 63.3823L71.6531 61.0228C72.2678 60.8597 72.9809 60.8073 73.1534 60.9899C73.3805 61.2311 72.9241 62.4381 72.7278 62.9523Z" fill="white"/>
<path d="M70.7145 67.4561C71.3227 67.4626 71.7588 67.2952 72.0495 66.9368C72.4187 66.4783 72.4907 65.7645 72.4682 65.1914C72.4603 65.0041 72.4433 64.8319 72.4227 64.6905L70.3919 64.5687C70.0607 65.374 69.7302 66.6349 70.0679 67.1697C70.1431 67.2894 70.2936 67.4492 70.7145 67.4561Z" fill="white"/>
<path d="M66.8817 47.8189L66.8898 47.8083C66.8764 47.8062 66.8623 47.8051 66.8489 47.8036L66.8186 47.8015C66.688 47.783 66.5683 47.7751 66.4624 47.7751C66.1944 47.7751 66.0071 47.8264 65.9409 47.9255C65.7594 48.1934 65.7081 48.5496 65.6318 49.0881L65.6274 49.1182C65.5769 49.4677 65.5145 49.8988 65.3982 50.4C65.3754 50.4983 65.366 50.5587 65.357 50.6364C65.3125 50.9926 65.2427 51.3025 64.6757 52.6101C64.4606 53.1055 64.5099 53.3266 64.5852 53.6646L64.5857 53.6667C64.599 53.7249 64.6117 53.7831 64.6233 53.8424C64.6695 53.9701 65.0029 54.2098 65.221 54.3147C65.0633 53.2277 65.4148 52.4199 65.6838 51.8037C65.7695 51.6077 65.8437 51.4378 65.8892 51.2895C65.9545 51.0678 65.9579 50.8774 65.9621 50.6404L65.9623 50.6299C65.9695 50.1683 65.9785 49.5932 66.4345 48.5796C66.6015 48.2067 66.7419 48.012 66.8647 47.8417L66.8714 47.8326L66.8764 47.8257L66.8817 47.8189Z" fill="white"/>
<path d="M70.295 37.345C70.4259 37.013 70.5477 36.7075 70.6497 36.4608C70.4237 36.5035 70.2082 36.582 70.031 36.7053C69.6351 36.9758 69.5175 37.2998 69.2688 38.0721L69.2648 38.0842C69.0345 38.793 68.7201 39.7603 67.9496 41.0579C67.8436 41.2369 67.7467 41.3978 67.6563 41.5457C67.2054 42.2874 67.0525 42.5568 67.1053 42.803C67.1758 43.1339 67.7996 43.3964 68.1807 43.4384C68.0404 42.6913 68.0791 42.0042 68.295 41.3895C68.4166 41.0419 68.5774 40.7915 68.779 40.4778L68.8022 40.4417C68.978 40.1688 69.1969 39.8291 69.4756 39.3002C69.6423 38.9845 69.989 38.1137 70.295 37.345Z" fill="white"/>
<path fill-rule="evenodd" clip-rule="evenodd" d="M88.8315 49.8148C87.0032 49.2969 87.1605 46.6236 87.3128 44.0399C87.3666 43.1261 87.4176 42.261 87.3761 41.5546C87.2358 39.1362 86.8289 36.5023 84.8839 35.3101C82.7916 34.0307 79.3692 34.3222 77.2574 34.5908L77.252 34.5926C77.2509 34.5926 77.2502 34.5926 77.2495 34.593C76.476 34.8273 75.7524 34.9792 75.1916 34.9495C73.9494 34.8853 72.9822 34.3638 72.1304 33.9046L72.1223 33.9002C71.4562 33.5393 70.8751 33.2276 70.328 33.2276C70.2991 33.2276 70.2687 33.2276 70.2387 33.2287C68.6017 33.335 67.8492 33.7349 67.1658 34.3449C66.994 34.4968 66.7843 34.9376 66.0979 36.9152C65.7548 37.9051 65.6888 38.4509 65.625 38.9777L65.6231 38.993L65.6226 38.9977C65.5649 39.4819 65.5055 39.9804 65.2482 40.7229C65.0715 41.2285 64.9402 41.6656 64.8138 42.0863L64.8074 42.1079C64.4689 43.2437 64.2013 44.1383 63.3975 45.2021C63.3138 45.3136 63.2126 45.4717 63.0965 45.6529L63.0511 45.7239L63.0377 45.745C62.8578 46.0284 62.6359 46.378 62.3456 46.7813C62.1355 47.0723 61.6531 48.1619 61.6795 48.4938C61.7184 49.0152 61.886 49.3414 62.0793 49.7176L62.0874 49.7334L62.0901 49.7387C62.2851 50.1149 62.5059 50.5411 62.5463 51.1285L62.5531 51.2243C62.6247 52.1605 62.4913 52.6302 60.7104 54.2209C59.5717 55.24 58.7628 56.2214 58.2171 56.9417C58.169 57.0054 58.2316 57.0998 58.3111 57.0932C58.3296 57.0907 58.348 57.0896 58.365 57.0896C58.3994 57.0867 58.4334 57.0856 58.4674 57.0856C58.5013 57.0856 58.5357 57.0867 58.5693 57.0882C58.6037 57.0896 58.6366 57.0922 58.6702 57.0972C59.1009 57.1464 59.5207 57.3286 59.8237 57.6425C59.8765 57.6971 59.9586 57.7119 60.0288 57.6837C60.3188 57.563 60.6373 57.5829 60.9418 57.6114C61.3179 57.6461 61.6976 57.7586 61.9471 58.0012C62.0223 58.0746 62.1297 58.1119 62.2324 58.0884C62.5271 58.0215 62.8363 58.0276 63.123 58.1318C63.3494 58.216 63.5396 58.3491 63.6907 58.5165C63.7963 58.6337 63.9836 58.6561 64.116 58.5708C64.1984 58.5176 64.2892 58.4728 64.3901 58.4388C64.7766 58.3075 65.2044 58.3824 65.5798 58.5172L65.6604 58.5458C65.82 58.602 65.9825 58.6592 66.1251 58.7545C66.4313 58.9584 66.6183 59.2564 66.7376 59.5894C66.8052 59.7771 67.058 59.8422 67.2113 59.7145C67.4869 59.4853 67.7049 59.4466 67.9248 59.5442C68.0369 59.5948 68.115 59.6642 68.1674 59.7514C68.2589 59.9029 68.4451 60.0277 68.6154 59.9799C69.2139 59.8132 69.9631 59.9 70.5059 60.1908C70.6975 60.2913 70.8859 60.445 71.0234 60.6771C71.0234 60.6767 71.0237 60.6771 71.0234 60.6771C71.0237 60.6782 71.0252 60.6782 71.0252 60.6771L71.0411 60.574C71.0483 60.5274 71.0812 60.4887 71.1264 60.4746L71.2522 60.4359C71.5488 60.3415 73.0595 59.9062 73.6472 60.5249C73.6725 60.5502 73.7166 60.5527 73.7412 60.5263C73.8211 60.4384 73.8862 60.3904 73.9278 60.3665C74.3103 60.1343 74.9667 60.1199 75.4031 60.4938C75.491 60.5675 75.6334 60.5408 75.6996 60.4468C75.7405 60.3893 75.7868 60.3383 75.8388 60.2945C75.9922 60.1622 76.1863 60.0989 76.4015 60.1123L77.2314 60.0674C77.44 60.0559 78.0887 60.0118 78.2931 59.9687C78.3086 59.9655 78.3245 59.9626 78.3408 59.96C78.4181 59.9481 78.5084 59.9292 78.6034 59.9093L78.6373 59.9022C79.0398 59.8143 79.4965 59.7156 79.8715 59.8888C80.2316 60.0555 80.1861 60.4659 80.1427 60.8279L80.1409 60.8434C80.1244 60.9855 80.1073 61.1332 80.1087 61.2738C80.1112 61.3417 80.1126 61.4101 80.1137 61.4799L80.1141 61.5003C80.1194 61.8045 80.1243 62.085 80.0638 62.3014V62.304L80.1018 62.4754C80.1036 62.4819 80.1054 62.4902 80.1076 62.5003C80.1416 62.6572 80.3101 62.7448 80.4471 62.6612C80.7364 62.4848 81.0405 62.2555 81.1322 62.1235C81.1391 62.1134 81.1445 62.1029 81.1485 62.0913C81.1612 62.0581 81.1847 61.9861 81.2103 61.8357C81.2617 61.5272 81.3192 60.9006 81.3242 59.6281C81.3242 59.5608 81.3242 59.5127 81.3257 59.4903C81.3362 59.0181 81.3177 58.6391 81.2993 58.3046L81.299 58.2985C81.2651 57.6115 81.2385 57.0703 81.5799 56.5194C81.9114 55.9847 82.2333 55.7808 82.5426 55.5847L82.5479 55.5814C82.9095 55.3546 83.3178 55.0972 84.0052 54.1544C84.3422 53.6901 84.3838 53.5028 84.4167 53.3531C84.4915 53.0027 84.6072 52.7918 85.1276 52.3984L85.1305 52.3963C85.5572 52.074 86.8444 51.102 88.5798 51.3939C89.1501 51.4908 90.0747 51.7949 90.987 52.1543L90.9896 52.1547C91.0236 52.1648 91.0586 52.1768 91.0908 52.1938C91.1024 52.1999 91.1143 52.2057 91.1266 52.2107C91.9417 52.5362 92.7347 52.8996 93.2427 53.19C93.361 53.2576 93.5125 53.2185 93.5957 53.1104C93.762 52.8945 93.9435 52.7694 94.1391 52.6519L94.1423 52.65C94.2141 52.6065 94.2697 52.5728 94.3228 52.5275C94.3413 52.512 94.3594 52.4968 94.3771 52.4823C94.529 52.3594 94.5286 52.0965 94.3547 52.0068C91.9033 50.7394 89.5945 50.0317 88.8315 49.8148ZM71.4103 50.3774C70.8447 52.8522 67.011 55.5727 65.2684 55.5727H65.2341C65.2066 55.5712 65.1762 55.5687 65.1437 55.5633C65.1108 55.5582 65.0753 55.5503 65.0377 55.5398L65.0192 55.5342C65.0063 55.5303 64.993 55.5262 64.9799 55.5228C64.6634 55.423 64.2255 55.18 63.894 54.8538C63.6658 54.6299 63.4861 54.3655 63.4297 54.081C63.4192 54.0311 63.4087 53.9815 63.3978 53.9316C63.3038 53.5107 63.1867 52.9849 63.558 52.1243C63.6024 52.0246 63.6425 51.9305 63.6797 51.8432L63.6969 51.8029C63.7039 51.7857 63.7113 51.7684 63.7186 51.7512L63.7377 51.7059C63.7767 51.6142 63.8114 51.5298 63.8429 51.4532L63.8441 51.4503C63.8965 51.3194 63.9395 51.208 63.975 51.1133C63.9894 51.0764 64.0028 51.041 64.0144 51.0084C64.1193 50.7148 64.1333 50.6024 64.1476 50.4887L64.1482 50.4841L64.1546 50.4395C64.1663 50.3574 64.1804 50.2581 64.2114 50.1257C64.3203 49.6614 64.3767 49.268 64.4266 48.9176C64.5159 48.2877 64.5933 47.7438 64.9328 47.2441C64.9907 47.1591 65.0547 47.0813 65.127 47.0134C65.152 46.9899 65.1758 46.9675 65.2015 46.9451C65.2215 46.9281 65.2415 46.9127 65.2612 46.8977L65.28 46.8832C65.3624 46.8254 65.4507 46.7744 65.5461 46.731C65.579 46.7165 65.6119 46.7021 65.6445 46.6905C65.7117 46.6655 65.7823 46.6442 65.856 46.6258C66.1681 46.5502 66.5366 46.5383 66.96 46.5918C67.4232 46.6287 67.8521 46.7162 68.2321 46.8225C68.5496 46.91 68.8331 47.0127 69.0729 47.1081C69.0978 47.1175 69.1217 47.1266 69.1452 47.1371C69.1911 47.1555 69.2356 47.174 69.279 47.1938C69.3358 47.2176 69.3883 47.2405 69.4378 47.2621L69.4612 47.2723C69.5129 47.2958 69.5615 47.3175 69.6064 47.3376L69.6648 47.3638L69.7212 47.3902C69.9888 47.5121 70.2188 47.6459 70.4151 47.7862C70.512 47.8574 70.6028 47.9293 70.6838 48.0024C70.7116 48.0263 70.738 48.0512 70.7623 48.0772C70.7887 48.1026 70.8136 48.1275 70.8371 48.1525C71.5737 48.9281 71.5372 49.8252 71.4103 50.3774ZM73.1868 40.997L73.1123 41.4458C72.9406 42.4568 72.5457 43.8432 71.0899 44.2001C69.6894 44.5426 69.3574 44.6156 68.3605 44.6604C68.3387 44.6629 68.3152 44.6629 68.292 44.6629C67.5641 44.6629 66.1623 44.2041 65.9142 43.0629C65.7561 42.331 66.0772 41.7999 66.6076 40.9228L66.6132 40.9135L66.6497 40.8537C66.7283 40.7251 66.8122 40.588 66.9003 40.4373C67.6046 39.2508 67.8829 38.3914 68.1062 37.7021L68.1074 37.6985C68.3247 37.0244 68.5059 36.4672 68.9716 36.0054C69.079 35.898 69.2009 35.7968 69.3426 35.6999C69.433 35.638 69.5274 35.5831 69.6272 35.5317C69.7595 35.4659 69.8984 35.4088 70.0441 35.3625C70.3681 35.2591 70.7182 35.2066 71.0686 35.2066C71.7476 35.2066 72.426 35.4019 72.9098 35.7903C73.1275 35.9646 73.4371 36.3132 73.6168 37.3416C73.7094 37.8713 73.5517 38.8448 73.1868 40.997ZM83.5731 43.8747L83.5607 43.8958C83.0674 44.7427 82.7942 45.2116 82.3649 45.5637C81.5061 46.2692 80.5043 46.4479 79.6791 46.4479C79.0864 46.4479 78.5831 46.3564 78.2865 46.3021L78.2833 46.3015C77.4299 46.1455 75.8465 45.8561 75.3185 44.6051C75.2151 44.3574 75.214 44.2001 75.214 44.0005C75.214 43.8034 75.214 43.4722 75.1221 42.6835L75.1171 42.6311C75.0748 42.2742 75.0278 41.8703 75.1301 41.3521L75.142 41.2903C75.4411 39.7694 75.5221 39.5369 75.5893 39.4056C75.7441 39.1066 76.1111 38.9887 76.4102 39.1424C76.6998 39.2931 76.8206 39.6443 76.6843 39.9393C76.6539 40.0258 76.5689 40.3498 76.3379 41.5264L76.3259 41.5882C76.2601 41.9202 76.289 42.1719 76.3274 42.4908L76.3324 42.5447C76.4319 43.401 76.4319 43.789 76.4319 43.9991C76.4319 44.0363 76.4319 44.0768 76.4333 44.101C76.4336 44.1088 76.4369 44.1185 76.4396 44.1267L76.4413 44.1318C76.5404 44.3668 76.7638 44.5451 77.0361 44.6821C77.2053 44.7671 77.3822 44.6055 77.3446 44.42C77.0737 43.0795 77.0885 41.5159 77.6006 40.5497C77.7684 40.2289 78.0786 39.7039 78.3733 39.214C78.3744 39.2125 78.3751 39.2114 78.3759 39.21C78.3766 39.2085 78.3777 39.2074 78.3784 39.206L78.4677 39.0585C78.4798 39.0379 78.492 39.0178 78.5039 38.9981C78.5163 38.9776 78.5291 38.9565 78.5408 38.9366C78.6706 38.7211 78.7924 38.5233 78.8901 38.366C78.9031 38.3436 78.9161 38.3212 78.9295 38.3002C78.9385 38.2843 78.9479 38.2698 78.957 38.2568L78.9775 38.2229C78.9903 38.2016 79.0023 38.1817 79.0137 38.1639L79.0233 38.1481L79.0298 38.1373L79.0358 38.127L79.0383 38.1235L79.0404 38.1204L79.0452 38.1125C79.0542 38.0966 79.0636 38.0821 79.0716 38.0706L79.083 38.0523C79.093 38.0365 79.1008 38.024 79.1056 38.0152L79.1065 38.0137L79.1128 38.0033L79.1153 37.9993C79.217 37.8514 79.3175 37.7108 79.4151 37.5784C79.5478 37.3987 79.3941 37.1633 79.1873 37.2479C78.6897 37.4508 78.3498 37.71 78.2808 37.7646C78.0171 37.9747 77.6338 37.9313 77.4256 37.6677C77.2169 37.4045 77.2603 37.0201 77.5239 36.81C77.8374 36.5638 79.499 35.3517 81.4888 35.9208C82.9206 36.3282 83.6719 37.4211 83.956 37.8342L83.9571 37.8359L83.9616 37.8426C84.1944 38.1837 84.8844 39.1951 84.8622 40.6032C84.8455 41.6844 84.3946 42.4622 83.5731 43.8747Z" fill="white"/>
<path d="M69.8931 63.8285C69.4707 64.6913 68.9449 65.4875 68.6173 65.882C68.3461 65.1487 67.8746 63.4683 67.999 62.1163C68.0026 62.0772 68.0069 62.0385 68.0127 62.0009C68.0626 61.5833 68.1736 61.2003 68.3711 60.8933C68.5012 60.6916 68.8618 60.5682 69.2711 60.5682C69.5734 60.5682 69.9021 60.6344 70.1852 60.7863H70.1874C70.3389 60.8673 70.5454 61.0315 70.5671 61.5084C70.5982 62.1528 70.2912 63.0188 69.8931 63.8285Z" fill="white"/>
<path d="M93.0681 54.2638C93.0869 54.2262 93.0663 54.1864 93.0337 54.1601C92.8649 54.0248 92.0856 53.6357 91.1707 53.247C91.0565 53.1985 90.9238 53.2296 90.8504 53.3298C90.4648 53.8545 89.9278 54.8504 89.5389 55.5715L89.4776 55.6851C89.2731 56.0645 89.0808 56.4211 88.9125 56.711C88.4128 57.5676 88.3716 58.2981 88.3354 58.9414C88.2931 59.7019 88.2494 60.4885 87.3931 61.0597C86.8203 61.4415 86.3035 61.5305 83.6566 61.9344C83.3239 61.9861 83.205 62.0374 83.0571 62.1025C82.8757 62.1813 82.6755 62.2682 82.2181 62.3549C82.1151 62.3744 82.0326 62.4479 81.9845 62.5411L81.9747 62.5597L81.9628 62.5809C81.7531 62.9433 81.0374 63.4752 80.4466 63.7221C80.3316 63.7702 80.2513 63.8798 80.2455 64.0042C80.2256 64.4309 80.1392 64.8547 79.9197 65.1407C79.7393 65.3736 79.4894 65.5038 79.1929 65.5175C79.1636 65.519 79.134 65.519 79.1054 65.519C78.5453 65.519 78.2234 65.2738 78.0491 65.0615C78.0347 65.0445 78.0036 65.0503 77.9981 65.072C77.8358 65.7153 77.493 66.2852 76.8045 66.4237C76.7062 66.4443 76.6136 66.4533 76.5282 66.4533C76.1778 66.4533 75.9348 66.3051 75.7833 66.1648C75.7204 66.1073 75.6076 66.1319 75.5841 66.214C75.5042 66.4924 75.3946 66.7499 75.2446 66.9592C75.0153 67.28 74.7083 67.4676 74.3535 67.5053C74.3036 67.511 74.2552 67.5132 74.2074 67.5132C73.9098 67.5132 73.6426 67.412 73.4304 67.2156C73.242 67.042 72.8015 67.0511 72.6533 67.2601C72.6287 67.2944 72.603 67.3284 72.5763 67.3613C72.1637 67.8737 71.5518 68.133 70.7592 68.133H70.7057C70.0154 68.1214 69.6672 67.7989 69.4961 67.528C69.4213 67.4098 69.3663 67.2789 69.3272 67.139C69.2509 66.8645 68.8076 66.7719 68.5226 66.7719C68.5039 66.7719 68.4866 66.7696 68.4707 66.7674L68.4584 66.7657L68.4493 66.7647C68.2514 66.7327 68.1763 66.5685 68.1154 66.4356L68.1141 66.4327C68.1032 66.4078 68.0627 66.4183 68.0659 66.445C68.0934 66.6685 68.126 66.8941 68.1618 67.1216C68.1824 67.2485 68.1824 67.5624 67.7615 67.7667C67.4672 67.9099 66.967 67.9833 66.4094 67.9833C65.3872 67.9833 64.17 67.7367 63.6692 67.2225C63.5448 67.1227 63.4002 67.0041 63.2787 66.8395C63.146 66.6591 62.86 66.585 62.6752 66.7115C62.4365 66.8757 62.2673 66.9075 62.1577 66.9075C62.1143 66.9075 62.08 66.9028 62.0536 66.8992C61.5672 66.8316 61.2435 66.3731 60.9821 65.7395C60.9243 65.5989 60.7695 65.5251 60.6184 65.541C60.3331 65.5754 60.0445 65.5913 59.7581 65.5956C59.48 65.5978 59.1958 65.588 58.9459 65.4579C58.6964 65.3255 58.5478 65.0959 58.4541 64.8381C58.4436 64.8124 58.4129 64.8023 58.388 64.8146L58.3753 64.82C58.3533 64.829 58.3305 64.8352 58.3055 64.8395C58.1631 64.8637 58.0227 64.8623 57.8882 64.8395C57.8206 64.8283 57.7537 64.8109 57.6894 64.7882C57.6127 64.7625 57.54 64.7267 57.4702 64.6833C57.4312 64.6601 57.3805 64.6999 57.3986 64.7415L57.4062 64.7596C58.8765 68.1048 59.7653 70.124 61.8702 71.2468C62.7616 71.7228 64.1033 71.876 66.7737 72.1808L66.783 72.1819C68.7339 72.4043 70.2114 72.4032 72.6587 72.3988C75.0135 72.3952 75.7045 72.2929 76.167 72.1996C76.9385 72.041 77.3429 71.8774 77.7685 71.7052L77.7868 71.6978C78.2577 71.5076 78.7466 71.31 79.6771 71.13C80.5694 70.9586 81.6118 70.9208 83.6858 70.8455L83.6996 70.845C84.8394 70.8031 85.4415 70.8013 85.8034 70.8013L85.8138 70.8012C86.2194 70.7998 86.2256 70.7998 86.3726 70.7546C87.9673 70.2802 88.9302 68.7918 89.8614 67.3523C90.6056 66.2013 91.1932 65.2919 91.4441 63.9181C91.5681 63.2396 91.5387 62.8192 91.4902 62.1252L91.4897 62.1181C91.4383 61.3952 91.37 60.4041 91.4347 58.6391C91.4897 57.1366 91.5942 56.5494 91.9207 55.9061C92.1462 55.4596 92.3885 55.171 92.6015 54.9174L92.6121 54.9048C92.7907 54.6952 92.9419 54.5173 93.0681 54.2638Z" fill="white"/>
<path d="M67.3284 62.0364C67.2235 62.9516 67.1595 64.1742 67.3078 65.7667C67.3497 66.2161 67.4083 66.6826 67.481 67.1552C67.3555 67.2236 66.9809 67.3194 66.3148 67.3089C65.3577 67.2898 64.4258 67.0489 64.1459 66.7463L64.1025 66.7072C63.8697 66.5203 63.7171 66.3969 63.6954 66.0628C63.6881 65.95 63.7366 65.8383 63.84 65.6802C63.8971 65.5913 63.9724 65.4886 64.0656 65.362C64.2266 65.1462 64.4262 64.8771 64.6305 64.53C65.2297 63.5179 65.4567 63.2054 65.7453 62.8106C65.7681 62.7787 65.7923 62.7466 65.8173 62.7136C65.9872 62.4808 66.1868 62.2023 66.487 61.7449C66.7104 61.4054 66.8963 61.1392 67.0496 60.9302C67.3053 60.5827 67.4727 60.394 67.5801 60.2913C67.5642 60.4489 67.5287 60.6702 67.4944 60.8745L67.4829 60.9459C67.4343 61.2464 67.3759 61.6076 67.3284 62.0364Z" fill="white"/>
<path d="M66.142 60.7067C66.1113 60.3932 66.0563 60.079 65.9424 59.7836C65.9378 59.7749 65.9242 59.7455 65.9123 59.7197L65.8966 59.6857L65.8932 59.6787C65.8804 59.6553 65.8664 59.6327 65.8524 59.61C65.8439 59.5962 65.8354 59.5824 65.827 59.5684C65.8256 59.567 65.8249 59.567 65.8249 59.5659L65.8233 59.5639C65.8233 59.5645 65.8229 59.5635 65.8233 59.5639L65.8072 59.5455C65.8002 59.5377 65.7933 59.53 65.7862 59.5225C65.7677 59.504 65.7479 59.4863 65.728 59.47C65.7244 59.4657 65.7211 59.4621 65.7178 59.4606C65.7088 59.4531 65.6951 59.4422 65.6802 59.4335C65.6691 59.4277 65.6582 59.4216 65.6474 59.4156C65.6348 59.4086 65.6224 59.4016 65.6097 59.3952C65.6025 59.3905 65.5855 59.3836 65.5696 59.3778L65.5685 59.3768L65.5639 59.3752C65.5619 59.3746 65.56 59.3739 65.5584 59.3731C65.5548 59.371 65.5526 59.3695 65.5504 59.3688C65.5468 59.3674 65.5446 59.3666 65.5425 59.3666L65.5408 59.3661C65.5335 59.3625 65.5287 59.3608 65.5255 59.3594L65.4685 59.3384C65.3043 59.2777 65.1376 59.2161 64.9639 59.1905C64.9628 59.1905 64.9596 59.1894 64.957 59.1894H64.9527C64.9362 59.1894 64.9066 59.1869 64.8923 59.1857L64.8843 59.1851C64.8572 59.1837 64.8308 59.1837 64.8044 59.1851C64.7918 59.1851 64.7795 59.1851 64.7679 59.1862H64.7578L64.7528 59.1866L64.7511 59.1868C64.7483 59.1872 64.7453 59.1876 64.7422 59.1876C64.7401 59.1898 64.7364 59.1898 64.735 59.1898H64.7328C64.7151 59.195 64.697 59.2 64.6788 59.205C64.6527 59.2122 64.626 59.2195 64.6005 59.2274L64.5853 59.235C64.5713 59.2418 64.5568 59.249 64.5434 59.2574C64.5374 59.2609 64.5314 59.2647 64.5254 59.2685C64.5155 59.2747 64.5055 59.2811 64.4956 59.286C64.4945 59.2871 64.4924 59.2892 64.4898 59.2892L64.4866 59.2929C64.4763 59.3031 64.4658 59.313 64.4553 59.3229C64.4447 59.3329 64.434 59.3429 64.4237 59.3532C64.4168 59.3605 64.3976 59.384 64.3839 59.4013C64.3822 59.4024 64.3808 59.4034 64.3798 59.4045C64.3787 59.4056 64.3781 59.4067 64.3781 59.4079L64.3759 59.41C64.3754 59.4108 64.3741 59.4125 64.3723 59.4133L64.3715 59.4146C64.3711 59.4153 64.3708 59.4158 64.3701 59.4158C64.3676 59.4204 64.3649 59.4248 64.3626 59.4285C64.36 59.4326 64.3579 59.4361 64.3568 59.4386C64.2834 59.5525 64.2092 59.6657 64.1329 59.7781C63.9572 60.0475 63.7771 60.3155 63.5945 60.5816C63.4278 60.8225 63.2615 61.0633 63.0958 61.3037C63.0033 61.4386 62.9122 61.5717 62.821 61.7066C62.8051 61.7294 62.7903 61.7521 62.7755 61.7749L62.9096 61.8007C62.9733 61.813 63.0373 61.8254 63.1016 61.8375C63.3468 61.8823 63.5909 61.9253 63.8397 61.9593C64.3517 62.0291 64.8724 62.0613 65.3913 62.0429C65.4163 62.0414 65.4412 62.0429 65.4644 62.0472C65.5891 61.8693 65.7359 61.657 65.9232 61.3728C66.027 61.2141 66.1261 61.0673 66.2194 60.9313C66.1774 60.8662 66.151 60.7885 66.142 60.7067Z" fill="white"/>
<path d="M63.1429 65.2127C63.8321 64.2396 64.274 63.2177 64.3181 62.8229C64.2383 62.8162 64.1592 62.8077 64.0796 62.7991L64.035 62.7943H64.0307C62.5951 62.7885 61.5732 62.7017 60.991 62.3792C60.965 62.8171 60.9921 63.5146 61.1414 64.0346C61.2076 64.266 61.2868 64.5423 61.3743 64.8193C61.5924 65.5027 61.8671 66.1919 62.1456 66.2306C62.2154 66.2238 62.5658 66.0263 63.1429 65.2127Z" fill="white"/>
<path d="M63.2973 59.5717V59.5739C63.2937 59.5788 63.2904 59.5839 63.2871 59.5889C63.2842 59.5935 63.2812 59.5981 63.2781 59.6024C63.0315 59.9651 62.7831 60.326 62.5343 60.6872C62.4055 60.8735 62.2779 61.0593 62.151 61.2466C62.1191 61.2933 62.0821 61.342 62.0436 61.3928C61.9982 61.4527 61.9507 61.5154 61.9069 61.5808L61.839 61.5648C61.6574 61.5222 61.4762 61.4797 61.2965 61.4289C61.1312 61.3812 60.9682 61.3298 60.808 61.2658C60.7758 61.2542 60.7451 61.2416 60.7154 61.2271C60.689 61.1736 60.6514 61.1255 60.6058 61.089L60.6069 61.0861L60.6074 61.0844L60.7837 60.7263C60.8944 60.5086 61.0054 60.292 61.1284 60.0819C61.3479 59.7029 61.6122 59.3175 61.9832 59.0719C62.0008 59.0588 62.02 59.0467 62.0387 59.035L62.0414 59.0333C62.1853 58.9429 62.3292 58.8792 62.5057 58.8575C62.5263 58.8553 62.6507 58.8561 62.7089 58.8611C62.7147 58.8611 62.7199 58.8615 62.7243 58.8618L62.7332 58.8622C62.7375 58.8637 62.7469 58.8658 62.7592 58.8702C62.7787 58.8763 62.7983 58.8816 62.8178 58.8868C62.8418 58.8932 62.8658 58.8996 62.8897 58.9078C62.9041 58.9148 62.9184 58.9217 62.9331 58.9295L62.9582 58.9444C62.9877 58.9618 63.0173 58.9792 63.0449 59.0014C62.9877 58.958 63.1237 59.0983 63.1237 59.0882C63.2333 59.2397 63.2665 59.3667 63.2973 59.5717Z" fill="white"/>
<path d="M60.2793 59.9383C60.5563 59.4184 60.8882 58.9186 61.3446 58.5433C61.3185 58.5252 61.2827 58.5031 61.2498 58.489C61.1065 58.4315 60.9455 58.4222 60.7917 58.4133L60.74 58.4102L60.6964 58.4076C60.5503 58.3985 60.3998 58.3891 60.2735 58.4637C60.1437 58.539 60.0442 58.6621 59.9511 58.7773L59.9379 58.7935C59.6801 59.1085 59.4429 59.4437 59.2238 59.785L59.1855 59.8444C59.0418 60.0673 58.894 60.2965 58.7685 60.5343C58.8311 60.5672 58.894 60.5979 58.9565 60.6279C59.0932 60.6916 59.2361 60.744 59.3796 60.7896C59.5145 60.8326 59.6526 60.8724 59.7908 60.9024C59.8078 60.8731 59.8226 60.8445 59.8374 60.8145C59.8753 60.7384 59.9128 60.6623 59.9503 60.5861C60.0573 60.3689 60.1641 60.152 60.2793 59.9383Z" fill="white"/>
<path d="M60.6199 64.6674C60.5971 64.6866 60.5779 64.7072 60.5609 64.7314C60.5502 64.7343 60.5392 64.7369 60.5301 64.7391L60.5186 64.7419C60.4091 64.7531 60.2973 64.7611 60.1867 64.7683C59.9744 64.7817 59.7589 64.7911 59.5445 64.7831C59.4248 64.7788 59.3163 64.7603 59.2671 64.684C59.2004 64.5827 59.173 64.4174 59.1491 64.2728C59.1448 64.2465 59.1405 64.221 59.1362 64.1966C58.9959 63.4173 58.9775 62.6055 59.0769 61.8169C59.4841 61.963 59.9032 62.0761 60.3328 62.1466C60.2402 62.8576 60.3978 63.9012 60.4901 64.2208L60.511 64.2934C60.5472 64.4182 60.5835 64.5438 60.6199 64.6674Z" fill="white"/>
<path d="M58.3263 59.6856C58.621 59.1974 58.9494 58.7262 59.3099 58.2836C59.1367 58.0818 58.9277 57.9607 58.6608 57.909C58.5708 57.8934 58.4236 57.8786 58.3118 57.9104C58.2112 57.9404 58.1428 58.031 58.0779 58.1169C58.0637 58.1357 58.0497 58.1542 58.0356 58.1719C57.8233 58.4387 57.636 58.7287 57.4686 59.0253C57.3804 59.1833 57.2961 59.3456 57.2205 59.5109C57.2106 59.5318 57.1981 59.5558 57.1848 59.5817C57.1535 59.6421 57.117 59.7128 57.094 59.7781C57.1026 59.7829 57.1105 59.7891 57.1185 59.7954L57.1236 59.7995L57.1895 59.8519C57.2184 59.8748 57.2457 59.8965 57.2596 59.9079C57.3587 59.9832 57.4606 60.0551 57.5655 60.1202C57.7022 60.2048 57.8309 60.262 57.9737 60.3017C58.0508 60.1367 58.1492 59.9759 58.2451 59.8191C58.2726 59.7743 58.2998 59.7297 58.3263 59.6856Z" fill="white"/>
<path d="M56.5321 60.2041C56.5371 60.1853 56.5617 60.1828 56.5729 60.1987C56.6677 60.3335 56.7997 60.4507 56.9414 60.561L56.9509 60.5682C57.011 60.6139 57.0705 60.6591 57.1313 60.702C57.1392 60.7078 57.1428 60.7176 57.1407 60.7273C56.9913 61.346 56.8893 62.0031 56.8912 62.6503C56.8912 62.6789 56.8481 62.6847 56.8416 62.6569C56.659 61.9033 56.4109 60.6471 56.5321 60.2041Z" fill="white"/>
<path d="M58.2125 63.1714C58.189 62.6287 58.2241 62.0888 58.2971 61.5504L58.2979 61.5489C58.2088 61.5078 58.1182 61.4688 58.0287 61.4304C57.9884 61.4131 57.9484 61.3959 57.9088 61.3786C57.7797 61.3229 57.7023 61.2897 57.6133 61.2535C57.5092 61.7999 57.4615 62.3567 57.4828 62.9143C57.4944 63.1986 57.5262 63.5034 57.6712 63.7543C57.7258 63.8476 57.8079 63.9391 57.8856 63.9894C57.8924 63.9937 57.8985 63.9976 57.9041 64.0011C57.9477 64.0289 57.9604 64.0371 58.027 64.0534C58.0304 64.0541 58.0383 64.0549 58.0462 64.0556C58.05 64.0559 58.0537 64.0563 58.057 64.0567H58.0614C58.0649 64.0567 58.0696 64.0565 58.0745 64.0564C58.0902 64.056 58.1081 64.0555 58.0979 64.0588C58.1662 64.0491 58.2331 64.0512 58.2971 64.0661C58.2961 64.065 58.2961 64.061 58.2961 64.0588C58.2559 63.7648 58.2241 63.469 58.2125 63.1714Z" fill="white"/>
<defs>
<filter id="filter0_f_302_1606" x="29.823" y="12.7847" width="98.3539" height="102.431" filterUnits="userSpaceOnUse" color-interpolation-filters="sRGB">
<feFlood flood-opacity="0" result="BackgroundImageFix"/>
<feBlend mode="normal" in="SourceGraphic" in2="BackgroundImageFix" result="shape"/>
<feGaussianBlur stdDeviation="9" result="effect1_foregroundBlur_302_1606"/>
</filter>
<filter id="filter1_f_302_1606" x="0.225094" y="0.784664" width="157.55" height="162.431" filterUnits="userSpaceOnUse" color-interpolation-filters="sRGB">
<feFlood flood-opacity="0" result="BackgroundImageFix"/>
<feBlend mode="normal" in="SourceGraphic" in2="BackgroundImageFix" result="shape"/>
<feGaussianBlur stdDeviation="22.5" result="effect1_foregroundBlur_302_1606"/>
</filter>
<linearGradient id="paint0_linear_302_1606" x1="78.9999" y1="6.78467" x2="78.9999" y2="97.2155" gradientUnits="userSpaceOnUse">
<stop stop-color="#C28457"/>
<stop offset="1" stop-color="#965E36"/>
</linearGradient>
</defs>
</svg>
