<svg width="158" height="164" viewBox="0 0 158 164" fill="none" xmlns="http://www.w3.org/2000/svg">
<g opacity="0.3" filter="url(#filter0_f_302_1618)">
<path d="M70.0001 33.1962C75.5694 29.9808 82.4309 29.9808 88.0001 33.1962L101.177 40.8039C106.746 44.0193 110.177 49.9616 110.177 56.3924V71.6078C110.177 78.0385 106.746 83.9808 101.177 87.1962L88.0001 94.8039C82.4309 98.0193 75.5694 98.0193 70.0001 94.8039L56.8232 87.1962C51.254 83.9808 47.8232 78.0385 47.8232 71.6078V56.3924C47.8232 49.9616 51.254 44.0193 56.8232 40.8039L70.0001 33.1962Z" fill="#931A42"/>
</g>
<g opacity="0.4" filter="url(#filter1_f_302_1618)">
<path d="M70.0001 48.1962C75.5693 44.9808 82.4309 44.9808 88.0001 48.1962L103.775 57.3039C109.344 60.5193 112.775 66.4616 112.775 72.8924V91.1078C112.775 97.5385 109.344 103.481 103.775 106.696L88.0001 115.804C82.4309 119.019 75.5693 119.019 70.0001 115.804L54.2251 106.696C48.6559 103.481 45.2251 97.5385 45.2251 91.1078V72.8924C45.2251 66.4616 48.6559 60.5193 54.2251 57.3039L70.0001 48.1962Z" fill="#931A42"/>
</g>
<path d="M70.0001 9.19621C75.5693 5.98082 82.4309 5.98082 88.0001 9.19621L111.569 22.8039C117.139 26.0193 120.569 31.9616 120.569 38.3924V65.6078C120.569 72.0385 117.139 77.9808 111.569 81.1962L88.0001 94.8039C82.4309 98.0193 75.5693 98.0193 70.0001 94.8039L46.4309 81.1962C40.8617 77.9808 37.4309 72.0385 37.4309 65.6078V38.3924C37.4309 31.9616 40.8617 26.0193 46.4309 22.8039L70.0001 9.19621Z" fill="url(#paint0_linear_302_1618)"/>
<path d="M61.4789 69.7767H68.541C70.2037 69.7767 71.035 69.7767 71.777 69.5713C72.5905 69.3295 73.3325 68.9007 73.9493 68.3105C74.5158 67.7708 74.9245 67.0555 75.7309 65.6443L75.755 65.602L84.9143 49.411C85.7278 47.9896 86.1301 47.2745 86.3089 46.5236C86.5055 45.7101 86.5055 44.8519 86.3089 44.0384C86.1315 43.2932 85.7251 42.5832 84.9237 41.183L81.3207 34.8935C80.5788 33.5883 80.2033 32.9358 79.7295 32.6944C79.22 32.4352 78.6121 32.4352 78.1025 32.6944C77.6287 32.9358 77.2533 33.5883 76.5113 34.8935L59.0742 65.6288C58.3412 66.9161 57.9747 67.56 58.0015 68.0871C58.0373 68.6594 58.3322 69.1778 58.815 69.4908C59.2619 69.7767 59.9949 69.7767 61.4789 69.7767Z" fill="white"/>
<path d="M96.4942 69.7767H86.375C84.8822 69.7767 84.1313 69.7767 83.6932 69.4908C83.2105 69.1778 82.9155 68.6507 82.8798 68.0784C82.8531 67.5552 83.2226 66.9174 83.9618 65.6413L83.9793 65.6112L89.03 56.94C89.772 55.6617 90.1474 55.027 90.6123 54.7857C91.1216 54.5264 91.721 54.5264 92.2302 54.7857C92.6917 55.0206 93.0512 55.6284 93.7628 56.8317L93.8214 56.9311L98.8902 65.6022C98.9149 65.645 98.9391 65.687 98.9634 65.7283C99.6659 66.9406 100.025 67.5595 99.9988 68.0697C99.9717 68.6415 99.6679 69.1691 99.1853 69.4821C98.7381 69.7767 97.987 69.7767 96.4942 69.7767Z" fill="white"/>
<defs>
<filter id="filter0_f_302_1618" x="29.8232" y="12.7847" width="98.3539" height="102.431" filterUnits="userSpaceOnUse" color-interpolation-filters="sRGB">
<feFlood flood-opacity="0" result="BackgroundImageFix"/>
<feBlend mode="normal" in="SourceGraphic" in2="BackgroundImageFix" result="shape"/>
<feGaussianBlur stdDeviation="9" result="effect1_foregroundBlur_302_1618"/>
</filter>
<filter id="filter1_f_302_1618" x="0.225124" y="0.784664" width="157.55" height="162.431" filterUnits="userSpaceOnUse" color-interpolation-filters="sRGB">
<feFlood flood-opacity="0" result="BackgroundImageFix"/>
<feBlend mode="normal" in="SourceGraphic" in2="BackgroundImageFix" result="shape"/>
<feGaussianBlur stdDeviation="22.5" result="effect1_foregroundBlur_302_1618"/>
</filter>
<linearGradient id="paint0_linear_302_1618" x1="79.0001" y1="6.78467" x2="79.0001" y2="97.2155" gradientUnits="userSpaceOnUse">
<stop stop-color="#E3638E"/>
<stop offset="1" stop-color="#DC386E"/>
</linearGradient>
</defs>
</svg>
