<svg width="158" height="164" viewBox="0 0 158 164" fill="none" xmlns="http://www.w3.org/2000/svg">
<g opacity="0.3" filter="url(#filter0_f_302_1617)">
<path d="M70 33.1962C75.5693 29.9808 82.4308 29.9808 88 33.1962L101.177 40.8039C106.746 44.0193 110.177 49.9616 110.177 56.3924V71.6078C110.177 78.0385 106.746 83.9808 101.177 87.1962L88 94.8039C82.4308 98.0193 75.5693 98.0193 70 94.8039L56.8231 87.1962C51.2539 83.9808 47.8231 78.0385 47.8231 71.6078V56.3924C47.8231 49.9616 51.2539 44.0193 56.8231 40.8039L70 33.1962Z" fill="#6B3D0F"/>
</g>
<g opacity="0.4" filter="url(#filter1_f_302_1617)">
<path d="M70.0002 48.1962C75.5694 44.9808 82.431 44.9808 88.0002 48.1962L103.775 57.3039C109.344 60.5193 112.775 66.4616 112.775 72.8924V91.1078C112.775 97.5385 109.344 103.481 103.775 106.696L88.0002 115.804C82.431 119.019 75.5694 119.019 70.0002 115.804L54.2252 106.696C48.656 103.481 45.2252 97.5385 45.2252 91.1078V72.8924C45.2252 66.4616 48.656 60.5193 54.2252 57.3039L70.0002 48.1962Z" fill="#6B3D0F"/>
</g>
<path d="M70.0002 9.19621C75.5694 5.98082 82.431 5.98082 88.0002 9.19621L111.569 22.8039C117.139 26.0193 120.569 31.9616 120.569 38.3924V65.6078C120.569 72.0385 117.139 77.9808 111.569 81.1962L88.0002 94.8039C82.431 98.0193 75.5694 98.0193 70.0002 94.8039L46.431 81.1962C40.8617 77.9808 37.431 72.0385 37.431 65.6078V38.3924C37.431 31.9616 40.8617 26.0193 46.431 22.8039L70.0002 9.19621Z" fill="url(#paint0_linear_302_1617)"/>
<path d="M79.5375 54.0722H92.6158C92.8946 54.0722 93.0263 54.0722 93.0464 53.7066C93.1533 52.3762 93.1533 51.038 93.0464 49.706C93.0464 49.4473 92.9179 49.3405 92.6375 49.3405H66.6094C66.2872 49.3405 66.2005 49.4473 66.2005 49.7494V53.5781C66.2005 54.0722 66.2005 54.0722 66.7162 54.0722H79.5375ZM91.5859 44.8659C91.623 44.7683 91.623 44.6614 91.5859 44.5654C91.3675 44.0899 91.1088 43.6361 90.8083 43.2102C90.3561 42.4822 89.8233 41.8116 89.2161 41.2091C88.9296 40.8451 88.5982 40.5183 88.2264 40.2411C86.3647 38.6566 84.1515 37.5353 81.7725 36.9715C80.5721 36.702 79.3454 36.5734 78.1157 36.5843H66.5644C66.2423 36.5843 66.1989 36.7128 66.1989 36.9932V44.6289C66.1989 44.9511 66.1989 45.0378 66.6078 45.0378H91.431C91.431 45.0378 91.6463 44.9944 91.6896 44.8659H91.5843H91.5859ZM91.5859 58.5467C91.2203 58.5065 90.8517 58.5065 90.4862 58.5467H66.631C66.3089 58.5467 66.2005 58.5467 66.2005 58.9773V66.4427C66.2005 66.7865 66.2005 66.8733 66.631 66.8733H77.6448C78.1714 66.9135 78.698 66.8764 79.2138 66.7664C80.8122 66.6518 82.3842 66.3049 83.8835 65.7333C84.4287 65.5444 84.9553 65.2981 85.4525 65.0023H85.6027C88.1846 63.6594 90.2817 61.5499 91.6045 58.9603C91.6045 58.9603 91.7547 58.635 91.5859 58.5498V58.5467ZM61.8777 70.7438V70.6153V65.6032V63.9042V58.8488C61.8777 58.5684 61.8777 58.5266 61.5338 58.5266H56.8656C56.607 58.5266 56.5001 58.5266 56.5001 58.1828V54.0954H61.4905C61.7693 54.0954 61.8777 54.0954 61.8777 53.7299V49.6859C61.8777 49.4272 61.8777 49.3637 61.5338 49.3637H56.8656C56.607 49.3637 56.5001 49.3637 56.5001 49.0199V45.2345C56.5001 44.9975 56.5001 44.934 56.844 44.934H61.4688C61.7909 44.934 61.8777 44.934 61.8777 44.5252V32.9306C61.8777 32.5867 61.8777 32.5 62.3083 32.5H78.4409C79.6118 32.5465 80.775 32.675 81.9258 32.8872C84.2971 33.3255 86.5754 34.1727 88.6586 35.3824C90.0401 36.1955 91.3117 37.1775 92.4439 38.3081C93.2958 39.1925 94.064 40.1497 94.7455 41.1688C95.4223 42.2019 95.9846 43.3062 96.426 44.4601C96.4802 44.7606 96.7683 44.9635 97.0687 44.9124H100.919C101.413 44.9124 101.413 44.9124 101.435 45.3863V48.9145C101.435 49.2584 101.306 49.3451 100.961 49.3451H97.9918C97.6914 49.3451 97.6046 49.3451 97.6263 49.7323C97.744 51.0426 97.744 52.3576 97.6263 53.6679C97.6263 54.0334 97.6263 54.0768 98.0368 54.0768H101.433C101.584 54.2704 101.433 54.464 101.433 54.6592C101.455 54.9085 101.455 55.161 101.433 55.4104V58.0139C101.433 58.3795 101.326 58.4879 101.003 58.4879H96.9371C96.6537 58.4337 96.378 58.6149 96.3129 58.8968C95.3449 61.4136 93.7961 63.6703 91.795 65.4793C91.0639 66.1376 90.2957 66.7571 89.4934 67.3286C88.6322 67.8243 87.7943 68.34 86.9115 68.7489C85.2868 69.48 83.583 70.019 81.8344 70.3613C80.1741 70.6586 78.4905 70.7934 76.8007 70.7701H61.8715V70.7485L61.8777 70.7438Z" fill="white"/>
<defs>
<filter id="filter0_f_302_1617" x="29.8231" y="12.7847" width="98.3538" height="102.431" filterUnits="userSpaceOnUse" color-interpolation-filters="sRGB">
<feFlood flood-opacity="0" result="BackgroundImageFix"/>
<feBlend mode="normal" in="SourceGraphic" in2="BackgroundImageFix" result="shape"/>
<feGaussianBlur stdDeviation="9" result="effect1_foregroundBlur_302_1617"/>
</filter>
<filter id="filter1_f_302_1617" x="0.225216" y="0.784664" width="157.55" height="162.431" filterUnits="userSpaceOnUse" color-interpolation-filters="sRGB">
<feFlood flood-opacity="0" result="BackgroundImageFix"/>
<feBlend mode="normal" in="SourceGraphic" in2="BackgroundImageFix" result="shape"/>
<feGaussianBlur stdDeviation="22.5" result="effect1_foregroundBlur_302_1617"/>
</filter>
<linearGradient id="paint0_linear_302_1617" x1="79.0002" y1="6.78467" x2="79.0002" y2="97.2155" gradientUnits="userSpaceOnUse">
<stop stop-color="#F4BA45"/>
<stop offset="1" stop-color="#F19C3B"/>
</linearGradient>
</defs>
</svg>
