<svg width="158" height="164" viewBox="0 0 158 164" fill="none" xmlns="http://www.w3.org/2000/svg">
<g opacity="0.3" filter="url(#filter0_f_302_1594)">
<path d="M69.9999 33.1962C75.5691 29.9808 82.4307 29.9808 87.9999 33.1962L101.177 40.8039C106.746 44.0193 110.177 49.9616 110.177 56.3924V71.6078C110.177 78.0385 106.746 83.9808 101.177 87.1962L87.9999 94.8039C82.4307 98.0193 75.5691 98.0193 69.9999 94.8039L56.823 87.1962C51.2538 83.9808 47.823 78.0385 47.823 71.6078V56.3924C47.823 49.9616 51.2538 44.0193 56.823 40.8039L69.9999 33.1962Z" fill="#073B54"/>
</g>
<g opacity="0.4" filter="url(#filter1_f_302_1594)">
<path d="M70.0001 48.1962C75.5693 44.9808 82.4309 44.9808 88.0001 48.1962L103.775 57.3039C109.344 60.5193 112.775 66.4616 112.775 72.8924V91.1078C112.775 97.5385 109.344 103.481 103.775 106.696L88.0001 115.804C82.4309 119.019 75.5693 119.019 70.0001 115.804L54.2251 106.696C48.6559 103.481 45.2251 97.5385 45.2251 91.1078V72.8924C45.2251 66.4616 48.6559 60.5193 54.2251 57.3039L70.0001 48.1962Z" fill="#073B54"/>
</g>
<path d="M69.9999 9.19621C75.5691 5.98082 82.4307 5.98082 87.9999 9.19621L111.569 22.8039C117.138 26.0193 120.569 31.9616 120.569 38.3924V65.6078C120.569 72.0385 117.138 77.9808 111.569 81.1962L87.9999 94.8039C82.4307 98.0193 75.5691 98.0193 69.9999 94.8039L46.4307 81.1962C40.8614 77.9808 37.4307 72.0385 37.4307 65.6078V38.3924C37.4307 31.9616 40.8614 26.0193 46.4307 22.8039L69.9999 9.19621Z" fill="url(#paint0_linear_302_1594)"/>
<path d="M99.9977 34.0023C89.9557 33.9992 79.9144 33.9992 69.8737 34.0023C69.8704 37.2468 69.8704 40.4918 69.8737 43.7373C79.9154 43.7404 89.9567 43.7404 99.9977 43.7373C100.001 40.4929 100.001 37.2479 99.9977 34.0023Z" fill="white"/>
<path d="M67.7324 47.3997C64.4919 47.3829 61.252 47.3829 58.0126 47.3997C57.9958 50.6402 57.9958 53.8805 58.0126 57.1204C61.2521 57.1365 64.4921 57.1362 67.7324 57.1196C67.7492 53.8791 67.7492 50.6391 67.7324 47.3997Z" fill="white"/>
<path d="M69.8808 47.4002C77.128 47.3848 84.3748 47.3848 91.621 47.4002C91.6364 50.6395 91.6364 53.8794 91.621 57.1198C84.3739 57.1349 77.1272 57.1349 69.8808 57.1198C69.8657 53.8803 69.8657 50.6405 69.8808 47.4002Z" fill="white"/>
<path d="M79.5905 60.8009C76.3577 60.7658 73.1244 60.7658 69.8905 60.8009C69.858 64.0351 69.8585 67.2679 69.8921 70.4995C73.1248 70.5325 76.3581 70.5331 79.592 70.5012C79.6246 67.2662 79.6241 64.0328 79.5905 60.8009Z" fill="white"/>
<defs>
<filter id="filter0_f_302_1594" x="29.823" y="12.7847" width="98.3539" height="102.431" filterUnits="userSpaceOnUse" color-interpolation-filters="sRGB">
<feFlood flood-opacity="0" result="BackgroundImageFix"/>
<feBlend mode="normal" in="SourceGraphic" in2="BackgroundImageFix" result="shape"/>
<feGaussianBlur stdDeviation="9" result="effect1_foregroundBlur_302_1594"/>
</filter>
<filter id="filter1_f_302_1594" x="0.225094" y="0.784664" width="157.55" height="162.431" filterUnits="userSpaceOnUse" color-interpolation-filters="sRGB">
<feFlood flood-opacity="0" result="BackgroundImageFix"/>
<feBlend mode="normal" in="SourceGraphic" in2="BackgroundImageFix" result="shape"/>
<feGaussianBlur stdDeviation="22.5" result="effect1_foregroundBlur_302_1594"/>
</filter>
<linearGradient id="paint0_linear_302_1594" x1="78.9999" y1="6.78467" x2="78.9999" y2="97.2155" gradientUnits="userSpaceOnUse">
<stop stop-color="#149DE1"/>
<stop offset="1" stop-color="#107CB2"/>
</linearGradient>
</defs>
</svg>
