<svg width="158" height="164" viewBox="0 0 158 164" fill="none" xmlns="http://www.w3.org/2000/svg">
<g opacity="0.3" filter="url(#filter0_f_302_1604)">
<path d="M69.9999 33.1962C75.5691 29.9808 82.4307 29.9808 87.9999 33.1962L101.177 40.8039C106.746 44.0193 110.177 49.9616 110.177 56.3924V71.6078C110.177 78.0385 106.746 83.9808 101.177 87.1962L87.9999 94.8039C82.4307 98.0193 75.5691 98.0193 69.9999 94.8039L56.823 87.1962C51.2538 83.9808 47.823 78.0385 47.823 71.6078V56.3924C47.823 49.9616 51.2538 44.0193 56.823 40.8039L69.9999 33.1962Z" fill="#6B3D0F"/>
</g>
<g opacity="0.4" filter="url(#filter1_f_302_1604)">
<path d="M70.0001 48.1962C75.5693 44.9808 82.4309 44.9808 88.0001 48.1962L103.775 57.3039C109.344 60.5193 112.775 66.4616 112.775 72.8924V91.1078C112.775 97.5385 109.344 103.481 103.775 106.696L88.0001 115.804C82.4309 119.019 75.5693 119.019 70.0001 115.804L54.2251 106.696C48.6559 103.481 45.2251 97.5385 45.2251 91.1078V72.8924C45.2251 66.4616 48.6559 60.5193 54.2251 57.3039L70.0001 48.1962Z" fill="#6B3D0F"/>
</g>
<path d="M69.9999 9.19621C75.5691 5.98082 82.4307 5.98082 87.9999 9.19621L111.569 22.8039C117.138 26.0193 120.569 31.9616 120.569 38.3924V65.6078C120.569 72.0385 117.138 77.9808 111.569 81.1962L87.9999 94.8039C82.4307 98.0193 75.5691 98.0193 69.9999 94.8039L46.4307 81.1962C40.8614 77.9808 37.4307 72.0385 37.4307 65.6078V38.3924C37.4307 31.9616 40.8614 26.0193 46.4307 22.8039L69.9999 9.19621Z" fill="url(#paint0_linear_302_1604)"/>
<path fill-rule="evenodd" clip-rule="evenodd" d="M90.5706 41.5C88.057 41.5 85.3151 42.8391 82.4208 45.4789C81.0554 46.7173 79.86 48.0505 78.985 49.1196C78.9813 49.1155 78.9795 49.1134 78.9795 49.1134L78.9646 49.1311C75.844 45.5111 71.6205 41.5 67.4409 41.5C62.4921 41.5184 58.302 44.8691 56.9765 49.4365C56.868 49.6986 56.8179 49.8806 56.8047 49.9371C56.6143 50.7597 56.5 51.6205 56.5 52.5004C56.5 58.6027 61.3936 63.5572 67.4296 63.5572C69.943 63.5572 72.6848 62.2182 75.5792 59.5784C76.9501 58.3348 78.1496 56.9959 79.0256 55.9245C79.0256 55.9245 77.6166 54.3368 76.0742 52.6343C75.2363 53.6673 74.0367 55.0637 72.6468 56.3263C70.0762 58.66 68.3816 59.1574 67.4296 59.1574C63.8118 59.1574 60.8794 56.1924 60.8794 52.5195C60.8794 48.885 63.8118 45.9199 67.4296 45.8817C67.538 45.8817 67.6617 45.8893 67.8007 45.9095C70.0606 46.8112 71.9595 48.3428 72.4677 48.8266C74.3338 50.6056 76.0855 52.6333 76.0855 52.6333C77.628 54.3358 79.037 55.9236 79.037 55.9236L79.0548 55.9022C82.1884 59.5231 86.4136 63.5369 90.5943 63.5369C95.6443 63.5181 99.9043 60.0297 101.136 55.3193C101.169 55.2201 101.188 55.1512 101.195 55.1201C101.385 54.2976 101.5 53.4367 101.5 52.5568C101.481 46.4545 96.5875 41.5 90.5706 41.5ZM90.3846 59.1683C90.4508 59.1734 90.5128 59.1756 90.5706 59.1756C94.1882 59.1372 97.1207 56.1723 97.1207 52.5377C97.1207 48.8648 94.1882 45.8998 90.5706 45.8998C89.5992 45.8998 87.9236 46.378 85.353 48.7309C83.9689 49.9882 82.7736 51.3783 81.9362 52.41C82.0447 52.5351 83.7431 54.4892 85.5486 56.2104C86.0707 56.7073 88.0497 58.2896 90.3846 59.1683Z" fill="white"/>
<defs>
<filter id="filter0_f_302_1604" x="29.823" y="12.7847" width="98.3538" height="102.431" filterUnits="userSpaceOnUse" color-interpolation-filters="sRGB">
<feFlood flood-opacity="0" result="BackgroundImageFix"/>
<feBlend mode="normal" in="SourceGraphic" in2="BackgroundImageFix" result="shape"/>
<feGaussianBlur stdDeviation="9" result="effect1_foregroundBlur_302_1604"/>
</filter>
<filter id="filter1_f_302_1604" x="0.225094" y="0.784664" width="157.55" height="162.431" filterUnits="userSpaceOnUse" color-interpolation-filters="sRGB">
<feFlood flood-opacity="0" result="BackgroundImageFix"/>
<feBlend mode="normal" in="SourceGraphic" in2="BackgroundImageFix" result="shape"/>
<feGaussianBlur stdDeviation="22.5" result="effect1_foregroundBlur_302_1604"/>
</filter>
<linearGradient id="paint0_linear_302_1604" x1="78.9999" y1="6.78467" x2="78.9999" y2="97.2155" gradientUnits="userSpaceOnUse">
<stop stop-color="#F4BA45"/>
<stop offset="1" stop-color="#F19C3B"/>
</linearGradient>
</defs>
</svg>
