<svg width="158" height="164" viewBox="0 0 158 164" fill="none" xmlns="http://www.w3.org/2000/svg">
<g opacity="0.3" filter="url(#filter0_f_302_1609)">
<path d="M70 33.1962C75.5693 29.9808 82.4308 29.9808 88 33.1962L101.177 40.8039C106.746 44.0193 110.177 49.9616 110.177 56.3924V71.6078C110.177 78.0385 106.746 83.9808 101.177 87.1962L88 94.8039C82.4308 98.0193 75.5693 98.0193 70 94.8039L56.8231 87.1962C51.2539 83.9808 47.8231 78.0385 47.8231 71.6078V56.3924C47.8231 49.9616 51.2539 44.0193 56.8231 40.8039L70 33.1962Z" fill="#672268"/>
</g>
<g opacity="0.4" filter="url(#filter1_f_302_1609)">
<path d="M70.0002 48.1962C75.5694 44.9808 82.431 44.9808 88.0002 48.1962L103.775 57.3039C109.344 60.5193 112.775 66.4616 112.775 72.8924V91.1078C112.775 97.5385 109.344 103.481 103.775 106.696L88.0002 115.804C82.431 119.019 75.5694 119.019 70.0002 115.804L54.2252 106.696C48.656 103.481 45.2252 97.5385 45.2252 91.1078V72.8924C45.2252 66.4616 48.656 60.5193 54.2252 57.3039L70.0002 48.1962Z" fill="#672268"/>
</g>
<path d="M70.0002 9.19621C75.5694 5.98082 82.431 5.98082 88.0002 9.19621L111.569 22.8039C117.139 26.0193 120.569 31.9616 120.569 38.3924V65.6078C120.569 72.0385 117.139 77.9808 111.569 81.1962L88.0002 94.8039C82.431 98.0193 75.5694 98.0193 70.0002 94.8039L46.431 81.1962C40.8617 77.9808 37.431 72.0385 37.431 65.6078V38.3924C37.431 31.9616 40.8617 26.0193 46.431 22.8039L70.0002 9.19621Z" fill="url(#paint0_linear_302_1609)"/>
<path fill-rule="evenodd" clip-rule="evenodd" d="M72.8344 52L84.9007 64.2983L92.5581 56.6409C93.9504 55.2486 96.0388 55.2486 97.199 56.6409C98.5913 58.0332 98.5913 60.3536 97.199 61.7459L87.2211 71.9558C85.8289 73.3481 83.7405 73.3481 82.3482 71.9558L67.9615 57.105V65.9227C67.9615 67.779 66.3371 69.4033 64.4808 69.4033C62.6244 69.4033 61.0001 67.779 61.0001 65.9227V38.0773C61.0001 36.221 62.6244 34.5967 64.4808 34.5967C66.3371 34.5967 67.9615 36.221 67.9615 38.0773V46.895L82.3482 32.0442C83.7405 30.6519 85.8289 30.6519 87.2211 32.0442L97.199 42.2541C98.5913 43.6464 98.5913 45.9669 97.199 47.3591C95.8068 48.7514 93.7184 48.7514 92.5581 47.3591L84.9007 39.4696L72.8344 52ZM84.9007 48.5193C86.757 48.5193 88.3813 50.1436 88.3813 52C88.3813 53.8564 86.757 55.4807 84.9007 55.4807C83.0443 55.4807 81.42 53.8564 81.42 52C81.42 50.1436 83.0443 48.5193 84.9007 48.5193Z" fill="white"/>
<defs>
<filter id="filter0_f_302_1609" x="29.8231" y="12.7847" width="98.3538" height="102.431" filterUnits="userSpaceOnUse" color-interpolation-filters="sRGB">
<feFlood flood-opacity="0" result="BackgroundImageFix"/>
<feBlend mode="normal" in="SourceGraphic" in2="BackgroundImageFix" result="shape"/>
<feGaussianBlur stdDeviation="9" result="effect1_foregroundBlur_302_1609"/>
</filter>
<filter id="filter1_f_302_1609" x="0.225216" y="0.784664" width="157.55" height="162.431" filterUnits="userSpaceOnUse" color-interpolation-filters="sRGB">
<feFlood flood-opacity="0" result="BackgroundImageFix"/>
<feBlend mode="normal" in="SourceGraphic" in2="BackgroundImageFix" result="shape"/>
<feGaussianBlur stdDeviation="22.5" result="effect1_foregroundBlur_302_1609"/>
</filter>
<linearGradient id="paint0_linear_302_1609" x1="79.0002" y1="6.78467" x2="79.0002" y2="97.2155" gradientUnits="userSpaceOnUse">
<stop stop-color="#C859C9"/>
<stop offset="1" stop-color="#B33BB5"/>
</linearGradient>
</defs>
</svg>
