<svg width="158" height="164" viewBox="0 0 158 164" fill="none" xmlns="http://www.w3.org/2000/svg">
<g opacity="0.3" filter="url(#filter0_f_302_1621)">
<path d="M70 33.1962C75.5692 29.9808 82.4308 29.9808 88 33.1962L101.177 40.8039C106.746 44.0193 110.177 49.9616 110.177 56.3924V71.6078C110.177 78.0385 106.746 83.9808 101.177 87.1962L88 94.8039C82.4308 98.0193 75.5692 98.0193 70 94.8039L56.8231 87.1962C51.2538 83.9808 47.8231 78.0385 47.8231 71.6078V56.3924C47.8231 49.9616 51.2538 44.0193 56.8231 40.8039L70 33.1962Z" fill="#6B3D0F"/>
</g>
<g opacity="0.4" filter="url(#filter1_f_302_1621)">
<path d="M70.0002 48.1962C75.5694 44.9808 82.4309 44.9808 88.0002 48.1962L103.775 57.3039C109.344 60.5193 112.775 66.4616 112.775 72.8924V91.1078C112.775 97.5385 109.344 103.481 103.775 106.696L88.0002 115.804C82.4309 119.019 75.5694 119.019 70.0002 115.804L54.2252 106.696C48.6559 103.481 45.2252 97.5385 45.2252 91.1078V72.8924C45.2252 66.4616 48.6559 60.5193 54.2252 57.3039L70.0002 48.1962Z" fill="#6B3D0F"/>
</g>
<path d="M70.0001 9.19621C75.5693 5.98082 82.4309 5.98082 88.0001 9.19621L111.569 22.8039C117.139 26.0193 120.569 31.9616 120.569 38.3924V65.6078C120.569 72.0385 117.139 77.9808 111.569 81.1962L88.0001 94.8039C82.4309 98.0193 75.5693 98.0193 70.0001 94.8039L46.4309 81.1962C40.8617 77.9808 37.4309 72.0385 37.4309 65.6078V38.3924C37.4309 31.9616 40.8617 26.0193 46.4309 22.8039L70.0001 9.19621Z" fill="url(#paint0_linear_302_1621)"/>
<path d="M82.8697 51.7779L82.8717 51.7771L83.0337 51.7168L83.7223 51.4535L84.4109 51.17L85.0792 50.9067L86.4564 50.3396L87.1247 50.0764L87.8133 49.7928L88.5018 49.5296L89.1702 49.246L89.8587 48.9827L90.5271 48.6992V36.163L89.7575 35.677L88.1778 34.7859L87.4082 34.2998L85.8285 33.4087L85.0589 32.9429L84.2691 32.4771L83.4995 32.0113L82.7097 31.5657L81.9198 31.0999L81.1503 30.6341L80.3807 30.1886L79.5908 29.743L79.1655 29.5L78.801 29.7025L78.0111 30.1278L77.2213 30.5329L76.472 30.9784L75.6821 31.4037L74.8923 31.8088L74.1024 32.2543L75.6821 33.1454L76.1682 33.4492L76.472 33.2872L77.2213 32.8821L78.0111 32.4568L78.801 32.0518L79.1048 31.8898L79.5908 32.1733L80.3807 32.6189L81.1503 33.0644L81.9198 33.5302L82.7097 33.996L83.4995 34.4416L84.2691 34.9074L85.0589 35.3732L85.8285 35.8187L86.6184 36.2643L87.4082 36.7503L88.1778 37.1959L88.4411 37.3377V46.5727H82.9122L82.9117 46.5847L82.8697 46.5731V51.7779Z" fill="white"/>
<path d="M61.6486 47.3829H61.5069L60.5145 47.3626H59.5424L59.5829 40.2541L60.5145 39.6667L61.5069 39.0794L62.4587 38.4921L63.4511 37.8845L64.4232 37.2972L65.3953 36.6896L66.3674 36.1023L67.3598 35.515L68.3116 34.9074L69.304 34.2999L70.2761 33.6923L71.228 33.1252L71.2685 33.1455L72.2203 33.6923L73.2127 34.2594L75.1569 35.353L76.129 35.9201L78.0733 37.0137L79.0656 37.5605L80.0377 38.1276L79.0656 39.8895L79.0251 39.9705L78.0733 39.4237L77.1012 38.8566L74.1848 37.2162L73.2127 36.6491L72.2203 36.1023L71.2887 35.5555H71.2685L70.2761 36.1631L69.304 36.7707L68.3116 37.358L67.3598 37.9453L66.3674 38.5529L65.3953 39.1402L64.4232 39.7478L63.4511 40.3351L62.4587 40.9224L61.6689 41.4287L61.6486 47.3829Z" fill="white"/>
<path d="M68.8566 48.7802H68.8364L68.0668 49.165L67.2972 49.57L66.5074 49.9346L65.7175 50.3194L64.9682 50.7244L63.3885 51.494L62.6189 51.8788L61.8291 52.2636L61.6873 52.3446L61.6266 61.7417L61.8291 61.8632L62.6189 62.4303L63.3885 62.9771L64.9682 64.0707L65.7175 64.6175L65.7985 64.6783L65.7175 64.7795L64.9682 65.7922L64.5226 66.3592L64.1784 66.0959L63.3885 65.5491L62.6189 65.0023L61.8291 64.4352L61.0595 63.9087L60.2899 63.3619L59.5001 62.8151L59.5811 51.2105L60.2899 50.8459L61.0595 50.4206L61.8291 50.0358L62.6189 49.6308L63.3885 49.2055L64.1784 48.8207L64.9682 48.3954L65.7175 47.9904L66.5074 47.6056L67.2972 47.1803L68.0668 46.7752L68.3908 46.6132H75.8639V46.6534L75.8656 46.653V51.7565L69.4743 49.0042L69.2009 48.9017L68.8566 48.7802Z" fill="white"/>
<path d="M81.5961 71.1786L82.2441 70.9153L82.3049 71.0369L83.034 72.8596L82.3049 73.1431L81.5961 73.4266L80.1379 74.0342L79.4088 74.2975L78.9835 74.5L78.7 74.338L77.9709 73.9937L77.2418 73.6089L76.533 73.2646L75.8039 72.8798L71.4294 70.6926L70.7408 70.3078L70.0117 69.9635L69.2826 69.5787L68.5536 69.2141L67.8245 68.8699V58.0956H69.9307V67.5737L71.4294 68.323L72.1585 68.7078L74.3457 69.8015L75.0748 70.1863L75.8039 70.5306L76.533 70.8951L77.2418 71.2799L77.9709 71.6242L78.7 72.009L79.0848 72.1912L79.4088 72.0697L80.1379 71.7659L80.867 71.4824L81.5961 71.1786Z" fill="white"/>
<path d="M95.1843 57.7518L95.2248 62.2073L95.0425 62.3693L93.8071 63.2199L91.3363 65.0021L88.8656 66.7438L87.6504 67.6349L86.415 68.5058L85.6859 69.0323L85.1796 68.6475L83.9645 67.6957L82.7291 66.7641L81.4937 65.8122L80.2786 64.8806L80.0558 64.7186V59.9188L80.2786 59.7163L81.4937 58.4201L82.7291 57.1442L86.3745 53.3165H71.6511L74.1016 55.8886L75.337 57.1645L77.7875 59.7365L77.9698 59.9188V65.7312L79.0229 66.5616L80.2786 67.5134L81.4937 68.445L82.7291 69.3969L83.9645 70.3285L85.1796 71.2803L85.6252 71.6246L86.415 71.0576L87.6504 70.207L88.8656 69.3159L90.101 68.4248L91.3363 67.5742L93.8071 65.792L95.0425 64.9414L96.2779 64.0503L97.2905 63.3009L97.4931 57.8328L96.2779 57.7923L95.1843 57.7518Z" fill="white"/>
<path d="M99.5779 41.9354L98.5653 41.1253L98.059 40.7L97.0464 39.8899L96.5198 39.4849L95.5072 38.6748L94.9806 38.2495L94.5958 37.966L94.4541 38.128L93.9478 38.7558L93.4415 39.4039L93.2997 39.5659L93.4415 39.7077L94.4541 40.5582L95.5072 41.4088L96.0135 41.8544L96.5198 42.2797L97.0464 42.705L97.2894 42.9075L97.3097 52.4869L97.0464 52.6691L96.5198 52.9932L95.5072 53.6413L94.4541 54.2893L91.9225 55.9095L91.396 56.2336L89.877 57.2057L89.3505 57.5297L88.8442 57.8537L89.3505 58.6638L89.877 59.4739L89.9581 59.6157L90.3834 59.3524L90.8897 59.0486L91.396 58.7246L91.9225 58.4208L92.4288 58.0765L92.9352 57.7727L93.4415 57.4487L93.9478 57.1449L94.4541 56.8209L94.9806 56.5171L95.5072 56.1728L96.0135 55.869L96.5198 55.545L97.0464 55.2412L97.5527 54.9172L98.059 54.6134L98.5653 54.2691L99.0716 53.9653L99.5779 53.6413V41.9354Z" fill="white"/>
<defs>
<filter id="filter0_f_302_1621" x="29.8231" y="12.7847" width="98.3538" height="102.431" filterUnits="userSpaceOnUse" color-interpolation-filters="sRGB">
<feFlood flood-opacity="0" result="BackgroundImageFix"/>
<feBlend mode="normal" in="SourceGraphic" in2="BackgroundImageFix" result="shape"/>
<feGaussianBlur stdDeviation="9" result="effect1_foregroundBlur_302_1621"/>
</filter>
<filter id="filter1_f_302_1621" x="0.225155" y="0.784664" width="157.55" height="162.431" filterUnits="userSpaceOnUse" color-interpolation-filters="sRGB">
<feFlood flood-opacity="0" result="BackgroundImageFix"/>
<feBlend mode="normal" in="SourceGraphic" in2="BackgroundImageFix" result="shape"/>
<feGaussianBlur stdDeviation="22.5" result="effect1_foregroundBlur_302_1621"/>
</filter>
<linearGradient id="paint0_linear_302_1621" x1="79.0001" y1="6.78467" x2="79.0001" y2="97.2155" gradientUnits="userSpaceOnUse">
<stop stop-color="#F4BA45"/>
<stop offset="1" stop-color="#F19C3B"/>
</linearGradient>
</defs>
</svg>
