<svg width="158" height="164" viewBox="0 0 158 164" fill="none" xmlns="http://www.w3.org/2000/svg">
<g opacity="0.3" filter="url(#filter0_f_302_1613)">
<path d="M70.0001 33.1962C75.5694 29.9808 82.4309 29.9808 88.0001 33.1962L101.177 40.8039C106.746 44.0193 110.177 49.9616 110.177 56.3924V71.6078C110.177 78.0385 106.746 83.9808 101.177 87.1962L88.0001 94.8039C82.4309 98.0193 75.5694 98.0193 70.0001 94.8039L56.8232 87.1962C51.254 83.9808 47.8232 78.0385 47.8232 71.6078V56.3924C47.8232 49.9616 51.254 44.0193 56.8232 40.8039L70.0001 33.1962Z" fill="#157070"/>
</g>
<g opacity="0.4" filter="url(#filter1_f_302_1613)">
<path d="M70.0001 48.1962C75.5693 44.9808 82.4309 44.9808 88.0001 48.1962L103.775 57.3039C109.344 60.5193 112.775 66.4616 112.775 72.8924V91.1078C112.775 97.5385 109.344 103.481 103.775 106.696L88.0001 115.804C82.4309 119.019 75.5693 119.019 70.0001 115.804L54.2251 106.696C48.6559 103.481 45.2251 97.5385 45.2251 91.1078V72.8924C45.2251 66.4616 48.6559 60.5193 54.2251 57.3039L70.0001 48.1962Z" fill="#157070"/>
</g>
<path d="M70.0001 9.19621C75.5694 5.98082 82.4309 5.98082 88.0001 9.19621L111.569 22.8039C117.139 26.0193 120.569 31.9616 120.569 38.3924V65.6078C120.569 72.0385 117.139 77.9808 111.569 81.1962L88.0001 94.8039C82.4309 98.0193 75.5694 98.0193 70.0001 94.8039L46.4309 81.1962C40.8617 77.9808 37.4309 72.0385 37.4309 65.6078V38.3924C37.4309 31.9616 40.8617 26.0193 46.4309 22.8039L70.0001 9.19621Z" fill="url(#paint0_linear_302_1613)"/>
<path d="M75.8219 65.6104L79.1662 54.333L84.3772 52.8553L85.466 49.1221L80.3329 50.6776L85.7771 32.1672V31.8716C85.7731 31.7531 85.7458 31.6366 85.6967 31.5287C85.6476 31.4207 85.5777 31.3235 85.491 31.2426C85.4043 31.1617 85.3026 31.0987 85.1915 31.0572C85.0805 31.0156 84.9623 30.9964 84.8438 31.0006H77.9218C77.6598 30.9925 77.4026 31.0723 77.1911 31.2274C76.9797 31.3824 76.8263 31.6037 76.7552 31.8561L70.2999 53.7886L65.1667 55.3441L64.0001 58.9218L69.1333 57.3663L64.5445 72.999H91.9213C92.184 73.0099 92.4425 72.9311 92.6545 72.7757C92.8665 72.6202 93.0194 72.3973 93.0879 72.1435L94.6435 66.777V66.4815C94.6394 66.363 94.6121 66.2464 94.563 66.1385C94.5139 66.0306 94.444 65.9334 94.3574 65.8525C94.2707 65.7716 94.1689 65.7086 94.0578 65.667C93.9468 65.6255 93.8286 65.6062 93.7101 65.6104H75.8219Z" fill="white"/>
<defs>
<filter id="filter0_f_302_1613" x="29.8232" y="12.7847" width="98.3538" height="102.431" filterUnits="userSpaceOnUse" color-interpolation-filters="sRGB">
<feFlood flood-opacity="0" result="BackgroundImageFix"/>
<feBlend mode="normal" in="SourceGraphic" in2="BackgroundImageFix" result="shape"/>
<feGaussianBlur stdDeviation="9" result="effect1_foregroundBlur_302_1613"/>
</filter>
<filter id="filter1_f_302_1613" x="0.225124" y="0.784664" width="157.55" height="162.431" filterUnits="userSpaceOnUse" color-interpolation-filters="sRGB">
<feFlood flood-opacity="0" result="BackgroundImageFix"/>
<feBlend mode="normal" in="SourceGraphic" in2="BackgroundImageFix" result="shape"/>
<feGaussianBlur stdDeviation="22.5" result="effect1_foregroundBlur_302_1613"/>
</filter>
<linearGradient id="paint0_linear_302_1613" x1="79.0001" y1="6.78467" x2="79.0001" y2="97.2155" gradientUnits="userSpaceOnUse">
<stop stop-color="#1EA3A3"/>
<stop offset="1" stop-color="#1A8D8D"/>
</linearGradient>
</defs>
</svg>
