<svg width="158" height="164" viewBox="0 0 158 164" fill="none" xmlns="http://www.w3.org/2000/svg">
<g opacity="0.15" filter="url(#filter0_f_302_1592)">
<path d="M69.9999 33.1962C75.5691 29.9808 82.4307 29.9808 87.9999 33.1962L101.177 40.8039C106.746 44.0193 110.177 49.9616 110.177 56.3924V71.6078C110.177 78.0385 106.746 83.9808 101.177 87.1962L87.9999 94.8039C82.4307 98.0193 75.5691 98.0193 69.9999 94.8039L56.823 87.1962C51.2538 83.9808 47.823 78.0385 47.823 71.6078V56.3924C47.823 49.9616 51.2538 44.0193 56.823 40.8039L69.9999 33.1962Z" fill="#0E1011"/>
</g>
<g opacity="0.2" filter="url(#filter1_f_302_1592)">
<path d="M70.0001 48.1962C75.5693 44.9808 82.4309 44.9808 88.0001 48.1962L103.775 57.3039C109.344 60.5193 112.775 66.4616 112.775 72.8924V91.1078C112.775 97.5385 109.344 103.481 103.775 106.696L88.0001 115.804C82.4309 119.019 75.5693 119.019 70.0001 115.804L54.2251 106.696C48.6559 103.481 45.2251 97.5385 45.2251 91.1078V72.8924C45.2251 66.4616 48.6559 60.5193 54.2251 57.3039L70.0001 48.1962Z" fill="#0E1011"/>
</g>
<path d="M69.9999 9.19621C75.5691 5.98082 82.4307 5.98082 87.9999 9.19621L111.569 22.8039C117.138 26.0193 120.569 31.9616 120.569 38.3924V65.6078C120.569 72.0385 117.138 77.9808 111.569 81.1962L87.9999 94.8039C82.4307 98.0193 75.5691 98.0193 69.9999 94.8039L46.4307 81.1962C40.8614 77.9808 37.4307 72.0385 37.4307 65.6078V38.3924C37.4307 31.9616 40.8614 26.0193 46.4307 22.8039L69.9999 9.19621Z" fill="#7D808C"/>
<mask id="mask0_302_1592" style="mask-type:alpha" maskUnits="userSpaceOnUse" x="37" y="6" width="84" height="92">
<path d="M70.001 9.19621C75.5702 5.98082 82.4318 5.98082 88.001 9.19621L111.57 22.8039C117.139 26.0193 120.57 31.9616 120.57 38.3924V65.6077C120.57 72.0385 117.139 77.9808 111.57 81.1962L88.001 94.8039C82.4318 98.0193 75.5702 98.0193 70.001 94.8039L46.4318 81.1962C40.8625 77.9808 37.4318 72.0385 37.4318 65.6078V38.3924C37.4318 31.9616 40.8625 26.0193 46.4318 22.8039L70.001 9.19621Z" fill="url(#paint0_linear_302_1592)"/>
</mask>
<g mask="url(#mask0_302_1592)">
<rect x="31" y="4" width="96" height="96" fill="#636574"/>
</g>
<path d="M90.788 34.4934L82.6411 46.5839C82.0777 47.4073 83.161 48.404 83.941 47.7107L91.958 40.7337C92.1749 40.5603 92.4781 40.6904 92.4781 40.9937V62.7913C92.4781 63.0947 92.0881 63.2248 91.9147 63.0079L67.647 33.9734C66.867 33.02 65.7403 32.5 64.4836 32.5H63.6168C61.3634 32.5 59.5 34.3634 59.5 36.6602V67.3416C59.5 69.6382 61.3634 71.5017 63.6602 71.5017C65.0903 71.5017 66.4336 70.765 67.2137 69.5083L75.3607 57.4178C75.9241 56.5945 74.8407 55.5976 74.0606 56.291L66.0436 63.2248C65.8269 63.3979 65.5236 63.2681 65.5236 62.9646V41.2104C65.5236 40.907 65.9136 40.777 66.087 40.9937L90.3546 70.0282C91.1347 70.9816 92.3047 71.5017 93.5181 71.5017H94.3849C96.6817 71.5017 98.545 69.6382 98.545 67.3416V36.6602C98.5017 34.3634 96.6382 32.5 94.3416 32.5C92.9114 32.5 91.568 33.2367 90.788 34.4934Z" fill="white"/>
<defs>
<filter id="filter0_f_302_1592" x="29.823" y="12.7847" width="98.3539" height="102.431" filterUnits="userSpaceOnUse" color-interpolation-filters="sRGB">
<feFlood flood-opacity="0" result="BackgroundImageFix"/>
<feBlend mode="normal" in="SourceGraphic" in2="BackgroundImageFix" result="shape"/>
<feGaussianBlur stdDeviation="9" result="effect1_foregroundBlur_302_1592"/>
</filter>
<filter id="filter1_f_302_1592" x="0.225094" y="0.784664" width="157.55" height="162.431" filterUnits="userSpaceOnUse" color-interpolation-filters="sRGB">
<feFlood flood-opacity="0" result="BackgroundImageFix"/>
<feBlend mode="normal" in="SourceGraphic" in2="BackgroundImageFix" result="shape"/>
<feGaussianBlur stdDeviation="22.5" result="effect1_foregroundBlur_302_1592"/>
</filter>
<linearGradient id="paint0_linear_302_1592" x1="79.001" y1="6.78467" x2="79.001" y2="97.2154" gradientUnits="userSpaceOnUse">
<stop stop-opacity="0"/>
<stop offset="1"/>
</linearGradient>
</defs>
</svg>
