<svg width="158" height="164" viewBox="0 0 158 164" fill="none" xmlns="http://www.w3.org/2000/svg">
<g opacity="0.3" filter="url(#filter0_f_302_1610)">
<path d="M70.0001 33.1962C75.5694 29.9808 82.4309 29.9808 88.0001 33.1962L101.177 40.8039C106.746 44.0193 110.177 49.9616 110.177 56.3924V71.6078C110.177 78.0385 106.746 83.9808 101.177 87.1962L88.0001 94.8039C82.4309 98.0193 75.5694 98.0193 70.0001 94.8039L56.8232 87.1962C51.254 83.9808 47.8232 78.0385 47.8232 71.6078V56.3924C47.8232 49.9616 51.254 44.0193 56.8232 40.8039L70.0001 33.1962Z" fill="#6B3D0F"/>
</g>
<g opacity="0.4" filter="url(#filter1_f_302_1610)">
<path d="M70.0001 48.1962C75.5693 44.9808 82.4309 44.9808 88.0001 48.1962L103.775 57.3039C109.344 60.5193 112.775 66.4616 112.775 72.8924V91.1078C112.775 97.5385 109.344 103.481 103.775 106.696L88.0001 115.804C82.4309 119.019 75.5693 119.019 70.0001 115.804L54.2251 106.696C48.6559 103.481 45.2251 97.5385 45.2251 91.1078V72.8924C45.2251 66.4616 48.6559 60.5193 54.2251 57.3039L70.0001 48.1962Z" fill="#6B3D0F"/>
</g>
<path d="M70.0001 9.19621C75.5693 5.98082 82.4309 5.98082 88.0001 9.19621L111.569 22.8039C117.139 26.0193 120.569 31.9616 120.569 38.3924V65.6078C120.569 72.0385 117.139 77.9808 111.569 81.1962L88.0001 94.8039C82.4309 98.0193 75.5693 98.0193 70.0001 94.8039L46.4309 81.1962C40.8617 77.9808 37.4309 72.0385 37.4309 65.6078V38.3924C37.4309 31.9616 40.8617 26.0193 46.4309 22.8039L70.0001 9.19621Z" fill="url(#paint0_linear_302_1610)"/>
<path d="M67.9137 32.5L64.0001 36.4066V52.0045L67.9137 55.9021H83.577V63.6958H75.7498V59.7982H64.0001V67.6024L67.9137 71.5H91.413L95.3266 67.6024V52.0045L91.413 48.0979H75.7498V40.3025H83.577V44.2003H95.3266V36.4066L91.413 32.5H67.9137Z" fill="white"/>
<defs>
<filter id="filter0_f_302_1610" x="29.8232" y="12.7847" width="98.3539" height="102.431" filterUnits="userSpaceOnUse" color-interpolation-filters="sRGB">
<feFlood flood-opacity="0" result="BackgroundImageFix"/>
<feBlend mode="normal" in="SourceGraphic" in2="BackgroundImageFix" result="shape"/>
<feGaussianBlur stdDeviation="9" result="effect1_foregroundBlur_302_1610"/>
</filter>
<filter id="filter1_f_302_1610" x="0.225124" y="0.784664" width="157.55" height="162.431" filterUnits="userSpaceOnUse" color-interpolation-filters="sRGB">
<feFlood flood-opacity="0" result="BackgroundImageFix"/>
<feBlend mode="normal" in="SourceGraphic" in2="BackgroundImageFix" result="shape"/>
<feGaussianBlur stdDeviation="22.5" result="effect1_foregroundBlur_302_1610"/>
</filter>
<linearGradient id="paint0_linear_302_1610" x1="79.0001" y1="6.78467" x2="79.0001" y2="97.2155" gradientUnits="userSpaceOnUse">
<stop stop-color="#F4BA45"/>
<stop offset="1" stop-color="#F19C3B"/>
</linearGradient>
</defs>
</svg>
