<svg width="158" height="164" viewBox="0 0 158 164" fill="none" xmlns="http://www.w3.org/2000/svg">
<g opacity="0.3" filter="url(#filter0_f_302_1629)">
<path d="M70 33.1962C75.5693 29.9808 82.4308 29.9808 88 33.1962L101.177 40.8039C106.746 44.0193 110.177 49.9616 110.177 56.3924V71.6078C110.177 78.0385 106.746 83.9808 101.177 87.1962L88 94.8039C82.4308 98.0193 75.5693 98.0193 70 94.8039L56.8231 87.1962C51.2539 83.9808 47.8231 78.0385 47.8231 71.6078V56.3924C47.8231 49.9616 51.2539 44.0193 56.8231 40.8039L70 33.1962Z" fill="#931A42"/>
</g>
<g opacity="0.4" filter="url(#filter1_f_302_1629)">
<path d="M70.0002 48.1962C75.5694 44.9808 82.431 44.9808 88.0002 48.1962L103.775 57.3039C109.344 60.5193 112.775 66.4616 112.775 72.8924V91.1078C112.775 97.5385 109.344 103.481 103.775 106.696L88.0002 115.804C82.431 119.019 75.5694 119.019 70.0002 115.804L54.2252 106.696C48.656 103.481 45.2252 97.5385 45.2252 91.1078V72.8924C45.2252 66.4616 48.656 60.5193 54.2252 57.3039L70.0002 48.1962Z" fill="#931A42"/>
</g>
<path d="M70.0002 9.19621C75.5694 5.98082 82.431 5.98082 88.0002 9.19621L111.569 22.8039C117.139 26.0193 120.569 31.9616 120.569 38.3924V65.6078C120.569 72.0385 117.139 77.9808 111.569 81.1962L88.0002 94.8039C82.431 98.0193 75.5694 98.0193 70.0002 94.8039L46.431 81.1962C40.8617 77.9808 37.431 72.0385 37.431 65.6078V38.3924C37.431 31.9616 40.8617 26.0193 46.431 22.8039L70.0002 9.19621Z" fill="url(#paint0_linear_302_1629)"/>
<path d="M99.7839 63.1718L92.8505 70.4961C92.6998 70.6552 92.5174 70.782 92.3147 70.8687C92.1121 70.9554 91.8935 71.0001 91.6726 71H58.805C58.6482 71 58.4948 70.9548 58.3637 70.8701C58.2325 70.7854 58.1293 70.6648 58.0668 70.5231C58.0043 70.3815 57.9852 70.2249 58.0118 70.0727C58.0384 69.9204 58.1095 69.7791 58.2165 69.6662L65.1551 62.342C65.3055 62.1833 65.4872 62.0567 65.6892 61.97C65.8912 61.8833 66.1091 61.8384 66.3295 61.8381H99.1952C99.352 61.8381 99.5054 61.8832 99.6367 61.9679C99.7676 62.0526 99.8708 62.1732 99.9336 62.3149C99.9959 62.4566 100.015 62.6131 99.9884 62.7654C99.9618 62.9176 99.8907 63.0589 99.7839 63.1718ZM92.8505 48.4229C92.6998 48.2638 92.5174 48.137 92.3147 48.0503C92.1121 47.9636 91.8935 47.9189 91.6726 47.9191H58.805C58.6482 47.9191 58.4948 47.9642 58.3637 48.0489C58.2325 48.1336 58.1293 48.2542 58.0668 48.3958C58.0043 48.5375 57.9852 48.6941 58.0118 48.8464C58.0384 48.9986 58.1095 49.1398 58.2165 49.2528L65.1551 56.577C65.3055 56.7357 65.4872 56.8623 65.6892 56.949C65.8912 57.0356 66.1091 57.0806 66.3295 57.0809H99.1952C99.352 57.0809 99.5054 57.0358 99.6367 56.9511C99.7676 56.8664 99.8708 56.7458 99.9336 56.6041C99.9959 56.4624 100.015 56.3059 99.9884 56.1536C99.9618 56.0014 99.8907 55.8601 99.7839 55.7472L92.8505 48.4229ZM58.805 43.1619H91.6726C91.8935 43.162 92.1121 43.1173 92.3147 43.0306C92.5174 42.9439 92.6998 42.8171 92.8505 42.658L99.7839 35.3338C99.8907 35.2208 99.9618 35.0795 99.9884 34.9273C100.015 34.7751 99.9959 34.6185 99.9336 34.4768C99.8708 34.3352 99.7676 34.2146 99.6367 34.1298C99.5054 34.0451 99.352 34 99.1952 34H66.3295C66.1091 34.0004 65.8912 34.0453 65.6892 34.132C65.4872 34.2186 65.3055 34.3452 65.1551 34.5039L58.2183 41.8281C58.1114 41.9409 58.0403 42.0821 58.0136 42.2341C57.987 42.3862 58.006 42.5427 58.0683 42.6843C58.1306 42.8259 58.2334 42.9465 58.3643 43.0313C58.4952 43.1162 58.6484 43.1615 58.805 43.1619Z" fill="white"/>
<defs>
<filter id="filter0_f_302_1629" x="29.8231" y="12.7847" width="98.3538" height="102.431" filterUnits="userSpaceOnUse" color-interpolation-filters="sRGB">
<feFlood flood-opacity="0" result="BackgroundImageFix"/>
<feBlend mode="normal" in="SourceGraphic" in2="BackgroundImageFix" result="shape"/>
<feGaussianBlur stdDeviation="9" result="effect1_foregroundBlur_302_1629"/>
</filter>
<filter id="filter1_f_302_1629" x="0.225216" y="0.784664" width="157.55" height="162.431" filterUnits="userSpaceOnUse" color-interpolation-filters="sRGB">
<feFlood flood-opacity="0" result="BackgroundImageFix"/>
<feBlend mode="normal" in="SourceGraphic" in2="BackgroundImageFix" result="shape"/>
<feGaussianBlur stdDeviation="22.5" result="effect1_foregroundBlur_302_1629"/>
</filter>
<linearGradient id="paint0_linear_302_1629" x1="79.0002" y1="6.78467" x2="79.0002" y2="97.2155" gradientUnits="userSpaceOnUse">
<stop stop-color="#E3638E"/>
<stop offset="1" stop-color="#DC386E"/>
</linearGradient>
</defs>
</svg>
