<svg width="158" height="164" viewBox="0 0 158 164" fill="none" xmlns="http://www.w3.org/2000/svg">
<g opacity="0.3" filter="url(#filter0_f_302_1593)">
<path d="M69.9999 33.1962C75.5691 29.9808 82.4307 29.9808 87.9999 33.1962L101.177 40.8039C106.746 44.0193 110.177 49.9616 110.177 56.3924V71.6078C110.177 78.0385 106.746 83.9808 101.177 87.1962L87.9999 94.8039C82.4307 98.0193 75.5691 98.0193 69.9999 94.8039L56.823 87.1962C51.2538 83.9808 47.823 78.0385 47.823 71.6078V56.3924C47.823 49.9616 51.2538 44.0193 56.823 40.8039L69.9999 33.1962Z" fill="#891A64"/>
</g>
<g opacity="0.4" filter="url(#filter1_f_302_1593)">
<path d="M70.0001 48.1962C75.5693 44.9808 82.4309 44.9808 88.0001 48.1962L103.775 57.3039C109.344 60.5193 112.775 66.4616 112.775 72.8924V91.1078C112.775 97.5385 109.344 103.481 103.775 106.696L88.0001 115.804C82.4309 119.019 75.5693 119.019 70.0001 115.804L54.2251 106.696C48.6559 103.481 45.2251 97.5385 45.2251 91.1078V72.8924C45.2251 66.4616 48.6559 60.5193 54.2251 57.3039L70.0001 48.1962Z" fill="#891A64"/>
</g>
<path d="M69.9999 9.19621C75.5691 5.98082 82.4307 5.98082 87.9999 9.19621L111.569 22.8039C117.138 26.0193 120.569 31.9616 120.569 38.3924V65.6078C120.569 72.0385 117.138 77.9808 111.569 81.1962L87.9999 94.8039C82.4307 98.0193 75.5691 98.0193 69.9999 94.8039L46.4307 81.1962C40.8614 77.9808 37.4307 72.0385 37.4307 65.6078V38.3924C37.4307 31.9616 40.8614 26.0193 46.4307 22.8039L69.9999 9.19621Z" fill="url(#paint0_linear_302_1593)"/>
<path fill-rule="evenodd" clip-rule="evenodd" d="M69.366 41.4561C67.5718 39.8729 63.8309 36.5722 58.9609 30.6975C58.4152 30.0395 57.9848 29.5 58.0004 29.5C58.0815 29.5 70.7799 40.4271 72.0928 41.9489L72.4576 42.3668L72.4264 43.0217C72.4238 43.4106 72.3358 43.7943 72.1688 44.1456C72.0017 44.4969 71.7597 44.8073 71.4597 45.0549C70.7113 45.741 69.8038 46.1058 68.3724 46.3023C67.493 46.4208 67.1749 46.5518 66.8194 46.9385C66.4795 47.3127 66.3517 47.7773 66.2581 48.953C66.1115 50.7711 65.8964 51.5413 65.0294 53.35C64.1937 55.0932 64.0222 55.7512 64.1719 56.6868C64.3465 57.825 64.9951 58.6514 66.5107 59.6805C67.6645 60.4664 68.1884 60.9747 68.4753 61.5828C68.6531 61.957 68.6749 62.0942 68.6718 62.7428C68.6656 63.7376 68.5065 64.1368 67.8205 64.8634C66.7134 66.0391 64.7457 66.9933 62.3257 67.5359C61.3091 67.7636 61.2654 67.7636 61.2654 67.5328C61.2654 67.2397 60.8912 66.4912 60.2364 65.484C59.4786 64.3177 59.1792 63.7376 58.8985 62.852C58.5742 61.8447 58.4838 61.1649 58.5305 60.1077C58.5742 59.1129 58.6834 58.6701 59.0825 57.8812C59.4006 57.2512 59.6064 56.9674 60.86 55.4113C63.0055 52.7513 63.7789 51.1983 64.0534 48.9998C64.2997 47.0382 64.6396 46.0902 65.4005 45.2483C65.8558 44.7399 65.9587 44.5466 65.9587 44.1786C65.9587 44.1416 65.9773 44.0926 66.0021 44.0272C66.0984 43.7735 66.2885 43.273 65.8496 42.2639C62.8388 36.9086 62.473 36.2622 62.4964 36.2478C62.4996 36.2459 62.5101 36.2558 62.5222 36.2671C63.7086 38.0521 64.8812 39.8463 66.0398 41.6495C67.2376 43.7628 67.4982 43.9849 67.7238 44.1771C67.7548 44.2036 67.7852 44.2295 67.8173 44.2597C67.8173 44.2597 67.9764 44.4343 68.4348 44.4343C68.9941 44.3917 69.5396 44.2402 70.0408 43.9884C70.7456 43.5892 70.9015 43.0778 70.4899 42.5102C70.363 42.3358 69.9776 41.9958 69.366 41.4561ZM62.1237 60.4726C62.1901 60.7552 62.1476 61.0526 62.0045 61.3052C61.7176 61.8073 61.175 61.9695 60.7914 61.6732C60.5544 61.4861 60.5357 61.2148 60.7447 60.9061C60.9505 60.5973 60.9318 60.4477 60.6698 60.3136C60.5139 60.2356 60.4453 60.1452 60.4453 60.0204C60.4453 59.6181 61.1781 59.4685 61.6459 59.7803C61.8866 59.9427 62.0572 60.1899 62.1237 60.4726Z" fill="white"/>
<path fill-rule="evenodd" clip-rule="evenodd" d="M71.8308 48.3012C72.0366 47.559 72.6884 46.8511 73.3589 46.6484C73.9372 46.5323 74.5368 46.5887 75.0834 46.8106C75.8879 47.2191 76.4711 48.1422 76.3463 48.8095C76.1904 49.6266 74.862 50.2783 73.3339 50.2877C72.5512 50.2908 72.2643 50.1879 71.9649 49.7919C71.7809 49.5486 71.7092 48.7534 71.8308 48.3012ZM74.8775 47.1006C75.2798 47.3439 75.3827 47.7025 75.1489 48.0362C74.9867 48.2669 74.4815 48.4852 74.1135 48.4852C73.5616 48.4852 72.9597 48.0954 72.9597 47.7368C72.9597 47.0195 74.1166 46.636 74.8775 47.1006Z" fill="white"/>
<path d="M70.6146 32.6372C70.3371 32.6777 70.362 32.6871 70.9483 32.7775V32.7806C73.0844 33.1081 74.7528 33.95 76.4524 35.5561C77.2008 36.2608 77.9493 37.1371 79.1655 38.7244C81.9035 42.2919 83.0635 43.2836 85.3681 44.032C86.7215 44.4718 88.0874 44.6776 90.5011 44.8023C93.1705 44.9426 94.1809 45.1578 95.1351 45.7846C95.6843 46.1517 96.1471 46.6337 96.4916 47.1973L96.7287 47.5653L96.6788 47.1599C96.4885 45.6069 95.3721 43.4239 93.947 41.8211L93.6881 41.5279L93.5572 42.1173C93.2297 43.5955 92.5187 44.6557 91.8576 44.6557C91.6976 44.6556 91.5409 44.6104 91.4052 44.5255C91.2696 44.4406 91.1605 44.3193 91.0905 44.1755C90.9439 43.8262 90.9564 43.6984 91.1747 43.293C91.5769 42.5477 91.6736 41.5529 91.474 40.2493C91.421 39.872 91.3368 39.5227 91.2869 39.4666C91.1466 39.2951 89.9928 38.6277 89.2599 38.291C86.5999 37.0716 83.4253 36.6756 80.3006 37.1745L79.5584 37.293L79.0407 36.7192C77.0886 34.5581 75.2611 33.3419 73.2528 32.8679C72.3921 32.6652 71.1448 32.5561 70.6146 32.6372Z" fill="white"/>
<path d="M92.3316 33.9158C92.0385 34.555 91.895 35.2567 91.8358 36.317H91.8327C91.7953 37.003 91.7547 37.2369 91.6768 37.2681C91.5551 37.3118 91.393 37.265 90.4013 36.8845C89.7371 36.6319 88.0843 36.1517 88.0375 36.1985C88.2839 36.3414 88.5403 36.4664 88.8046 36.5727C89.3411 36.8179 89.8656 37.0885 90.3764 37.3835C92.0697 38.3752 92.3628 38.9583 92.3628 41.3751C92.3628 42.5789 92.3472 42.741 92.1975 43.1028C91.998 43.5924 92.0323 43.6859 92.2537 43.2493C92.6653 42.4541 92.8368 41.6558 92.8587 40.4115C92.8774 39.6132 92.8992 39.4448 93.0146 39.3325C93.1362 39.2109 93.1674 39.2109 93.367 39.3107C93.6663 39.4635 95.0135 40.53 95.5998 41.0758L96.08 41.5217L95.5998 40.898C95.3347 40.5519 94.6081 39.7535 93.9813 39.1174C92.6497 37.764 92.5468 37.5831 92.3597 36.3295C92.21 35.3409 92.2474 34.4927 92.4595 33.869C92.5374 33.6413 92.5873 33.4542 92.5718 33.4542C92.4763 33.5996 92.3959 33.7542 92.3316 33.9158Z" fill="white"/>
<path d="M70.3215 34.4615C70.1593 36.3295 70.8984 38.8273 72.0866 40.4552C73.0096 41.7182 74.441 42.7005 75.4982 42.794C76.1905 42.8564 76.3963 42.6412 76.0844 42.1859C75.651 41.556 75.1146 40.5862 74.9743 40.1714C74.8869 39.9095 74.6967 39.1485 74.5501 38.475C74.0543 36.1735 73.5647 35.2785 72.4389 34.5987C72.0273 34.3492 71.151 34.0249 70.6396 33.9314L70.3683 33.8846L70.3215 34.4615Z" fill="white"/>
<path d="M82.8671 45.161C82.8671 48.4197 84.8255 50.3532 90.3888 52.5767V52.5798C94.0936 54.0611 95.6091 54.8282 96.738 55.7918C97.7297 56.64 98.3222 57.772 98.3783 58.9321C98.3877 59.1504 98.4282 59.3094 98.4719 59.2938C98.6216 59.2439 99.1891 57.981 99.3762 57.2793C99.6164 56.3905 99.6974 54.7066 99.554 53.8085C99.0519 50.7118 96.9532 48.4416 93.5541 47.322C92.4844 46.9697 91.3306 46.7295 89.2724 46.4302C85.7735 45.9219 84.5105 45.5383 83.3816 44.6402C83.1384 44.4437 82.9232 44.2878 82.9045 44.2878C82.8827 44.2878 82.8671 44.6807 82.8671 45.161Z" fill="white"/>
<path d="M86.2163 52.3334C86.3296 52.7174 86.4192 53.1079 86.4845 53.5028C86.9304 56.1411 85.5365 58.271 82.8297 59.0943C82.5428 59.1816 81.4108 59.403 80.3193 59.5839C78.1052 59.9487 77.1166 60.2075 76.125 60.6847C75.4233 61.0215 74.5689 61.5267 74.6187 61.5766C74.7424 61.5707 74.864 61.5422 74.9774 61.4924C76.2279 61.0558 77.6218 60.8281 79.7393 60.719C80.5781 60.6753 81.5324 60.6067 81.8598 60.5662C83.7465 60.3292 85.0531 59.7616 86.0698 58.7325C86.601 58.2135 87.0026 57.5768 87.2423 56.8739C87.4169 56.3999 87.4419 56.2221 87.4419 55.377C87.4419 54.5163 87.4232 54.3604 87.2361 53.8303C86.9928 53.1349 86.7028 52.6141 86.3379 52.2087L86.0729 51.9124L86.2163 52.3334Z" fill="white"/>
<path d="M89.0354 58.0059C88.2963 56.4279 88.1248 54.903 88.5302 53.481C88.5738 53.3251 88.6425 53.2035 88.6861 53.2035C88.7267 53.2035 88.9044 53.297 89.0728 53.4124C89.4158 53.64 90.0957 54.0236 91.9168 55.009C94.1871 56.2408 95.4844 57.192 96.3638 58.2834C97.134 59.2346 97.6112 60.3229 97.8419 61.6451C97.9729 62.3936 97.8949 64.2023 97.7016 64.9569C97.0904 67.3395 95.6746 69.2105 93.6476 70.302C93.3513 70.461 93.0863 70.592 93.0551 70.592C93.027 70.592 93.1362 70.3207 93.2952 69.987C93.9781 68.5712 94.0561 67.196 93.5416 65.6648C93.2235 64.7262 92.5811 63.5817 91.2838 61.6451C89.7745 59.3998 89.4065 58.798 89.0354 58.0059Z" fill="white"/>
<path d="M68.1354 66.5287C70.203 64.7948 72.7695 63.5661 75.1114 63.1857C76.3177 63.031 77.5413 63.0784 78.732 63.326C80.2288 63.7064 81.5698 64.5609 82.2652 65.5744C82.945 66.5692 83.2381 67.433 83.5438 69.3602C83.6623 70.118 83.7932 70.882 83.8307 71.0535C84.0583 72.0515 84.5042 72.8498 85.0531 73.249C85.9263 73.8851 87.4356 73.9257 88.9169 73.3519C89.0707 73.2809 89.2332 73.2306 89.4002 73.2022C89.4533 73.2552 88.7079 73.751 88.184 74.013C87.5625 74.3435 86.8672 74.5109 86.1633 74.4995C84.8067 74.4995 83.681 73.8134 82.7392 72.4163C82.3938 71.8248 82.0855 71.2124 81.8161 70.5827C80.8245 68.3342 80.3349 67.6513 79.1841 66.8998C78.18 66.2449 76.8858 66.1295 75.9129 66.6035C74.6343 67.2272 74.2788 68.8488 75.1956 69.8779C75.6239 70.3201 76.1842 70.6112 76.7923 70.7074C77.0338 70.7405 77.2796 70.7213 77.513 70.651C77.7464 70.5808 77.9619 70.4611 78.145 70.3002C78.3281 70.1393 78.4745 69.9409 78.5741 69.7184C78.6738 69.496 78.7244 69.2547 78.7226 69.011C78.7226 68.3342 78.4607 67.9507 77.8027 67.6513C76.9014 67.249 75.9378 67.7199 75.9409 68.5588C75.9409 68.9174 76.1 69.1419 76.4617 69.3072C76.6925 69.4101 76.6987 69.4164 76.5085 69.3789C75.6852 69.2074 75.4919 68.2189 76.153 67.564C76.9513 66.7781 78.5979 67.1243 79.1623 68.2001C79.3993 68.6523 79.4274 69.5504 79.2216 70.0931C78.7538 71.3093 77.4066 71.9485 76.0345 71.5993C75.099 71.3623 74.7216 71.1066 73.5959 69.9558C71.6406 67.9538 70.8828 67.564 68.0637 67.1274L67.5211 67.0432L68.1354 66.5287Z" fill="white"/>
<defs>
<filter id="filter0_f_302_1593" x="29.823" y="12.7847" width="98.3539" height="102.431" filterUnits="userSpaceOnUse" color-interpolation-filters="sRGB">
<feFlood flood-opacity="0" result="BackgroundImageFix"/>
<feBlend mode="normal" in="SourceGraphic" in2="BackgroundImageFix" result="shape"/>
<feGaussianBlur stdDeviation="9" result="effect1_foregroundBlur_302_1593"/>
</filter>
<filter id="filter1_f_302_1593" x="0.225094" y="0.784664" width="157.55" height="162.431" filterUnits="userSpaceOnUse" color-interpolation-filters="sRGB">
<feFlood flood-opacity="0" result="BackgroundImageFix"/>
<feBlend mode="normal" in="SourceGraphic" in2="BackgroundImageFix" result="shape"/>
<feGaussianBlur stdDeviation="22.5" result="effect1_foregroundBlur_302_1593"/>
</filter>
<linearGradient id="paint0_linear_302_1593" x1="78.9999" y1="6.78467" x2="78.9999" y2="97.2155" gradientUnits="userSpaceOnUse">
<stop stop-color="#E05CB4"/>
<stop offset="1" stop-color="#D831A0"/>
</linearGradient>
</defs>
</svg>
