<svg width="56" height="59" viewBox="0 0 56 59" fill="none" xmlns="http://www.w3.org/2000/svg">
<g opacity="0.3" filter="url(#filter0_f_358_2360)">
<path d="M25.1923 11.7321C27.0487 10.6603 29.3359 10.6603 31.1923 11.7321L36.8837 15.018C38.7401 16.0898 39.8837 18.0705 39.8837 20.2141V26.7859C39.8837 28.9295 38.7401 30.9103 36.8837 31.9821L31.1923 35.268C29.3359 36.3398 27.0487 36.3398 25.1923 35.268L19.501 31.9821C17.6446 30.9103 16.501 28.9295 16.501 26.7859V20.2141C16.501 18.0705 17.6446 16.0898 19.501 15.018L25.1923 11.7321Z" fill="#0C378D"/>
</g>
<g opacity="0.4" filter="url(#filter1_f_358_2360)">
<path d="M25.1924 16.7321C27.0488 15.6603 29.336 15.6603 31.1924 16.7321L37.7497 20.518C39.6062 21.5898 40.7497 23.5705 40.7497 25.7141V33.2859C40.7497 35.4295 39.6062 37.4103 37.7497 38.4821L31.1924 42.268C29.336 43.3398 27.0488 43.3398 25.1924 42.268L18.635 38.4821C16.7786 37.4103 15.635 35.4295 15.635 33.2859V25.7141C15.635 23.5705 16.7786 21.5898 18.635 20.518L25.1924 16.7321Z" fill="#0C378D"/>
</g>
<path d="M25.1923 3.73207C27.0487 2.66027 29.3359 2.66027 31.1923 3.73207L40.3478 9.01797C42.2042 10.0898 43.3478 12.0705 43.3478 14.2141V24.7859C43.3478 26.9295 42.2042 28.9103 40.3478 29.9821L31.1923 35.268C29.3359 36.3398 27.0487 36.3398 25.1923 35.268L16.0369 29.9821C14.1805 28.9103 13.0369 26.9295 13.0369 24.7859V14.2141C13.0369 12.0705 14.1805 10.0898 16.0369 9.01797L25.1923 3.73207Z" fill="url(#paint0_linear_358_2360)"/>
<g clip-path="url(#clip0_358_2360)">
<path d="M21.707 16.969C20.4033 20.4302 22.2014 24.3409 25.7075 25.5994C25.8423 25.6894 25.9772 25.8691 25.9772 26.004V26.6334C25.9772 26.7232 25.9772 26.7682 25.9322 26.8131C25.8873 26.9929 25.7075 27.0828 25.5276 26.9929C23.0105 26.1838 21.0776 24.2509 20.2685 21.7337C18.92 17.4635 21.2574 12.9235 25.5276 11.575C25.5726 11.5301 25.6625 11.5301 25.7075 11.5301C25.8873 11.575 25.9772 11.7098 25.9772 11.8897V12.5189C25.9772 12.7437 25.8873 12.8786 25.7075 12.9685C23.8646 13.6427 22.3812 15.0811 21.707 16.969Z" fill="white"/>
<path d="M30.0677 11.7548C30.1126 11.575 30.2924 11.4851 30.4722 11.575C32.9444 12.3841 34.9223 14.317 35.7314 16.8791C37.0799 21.1494 34.7425 25.6894 30.4722 27.0379C30.4273 27.0828 30.3374 27.0828 30.2924 27.0828C30.1126 27.0379 30.0227 26.9031 30.0227 26.7232V26.094C30.0227 25.8691 30.1126 25.7343 30.2924 25.6444C32.1353 24.9702 33.6187 23.5318 34.2929 21.6439C35.5966 18.1826 33.7985 14.272 30.2924 13.0134C30.1576 12.9235 30.0227 12.7437 30.0227 12.5639V11.9346C30.0227 11.8447 30.0227 11.7998 30.0677 11.7548Z" fill="white"/>
<path d="M28.1337 18.542C30.0216 18.7667 30.9655 19.3061 30.9655 20.8794C30.9655 22.093 30.0665 23.037 28.7181 23.2618V24.3406C28.6731 24.5653 28.5382 24.7002 28.3584 24.7002H27.6841C27.4594 24.6552 27.3246 24.5203 27.3246 24.3406V23.2618C25.8413 23.037 25.122 22.2279 24.9423 21.1042V21.0592C24.9423 20.8794 25.0771 20.7445 25.2569 20.7445H26.0211C26.1559 20.7445 26.2908 20.8345 26.3357 21.0142C26.4705 21.6885 26.8751 22.183 28.0438 22.183C28.8978 22.183 29.5272 21.6886 29.5272 20.9693C29.5272 20.2501 29.1226 19.9804 27.864 19.7557C25.9761 19.5309 25.0771 18.9466 25.0771 17.4632C25.0771 16.3394 25.9311 15.4404 27.2796 15.2606V14.2268C27.3246 14.002 27.4594 13.8671 27.6393 13.8671H28.3135C28.5382 13.9121 28.6731 14.0469 28.6731 14.2268V15.3056C29.7069 15.3955 30.516 16.1596 30.6958 17.1485V17.1935C30.6958 17.3732 30.561 17.5081 30.3811 17.5081H29.662C29.5272 17.5081 29.3923 17.4182 29.3473 17.2834C29.1226 16.6091 28.6731 16.3394 27.864 16.3394C26.965 16.3394 26.5155 16.7439 26.5155 17.3732C26.5155 18.0026 26.7852 18.3622 28.1337 18.542Z" fill="white"/>
</g>
<defs>
<filter id="filter0_f_358_2360" x="10.501" y="4.92822" width="35.3826" height="37.1436" filterUnits="userSpaceOnUse" color-interpolation-filters="sRGB">
<feFlood flood-opacity="0" result="BackgroundImageFix"/>
<feBlend mode="normal" in="SourceGraphic" in2="BackgroundImageFix" result="shape"/>
<feGaussianBlur stdDeviation="3" result="effect1_foregroundBlur_358_2360"/>
</filter>
<filter id="filter1_f_358_2360" x="0.63501" y="0.928223" width="55.1147" height="57.1436" filterUnits="userSpaceOnUse" color-interpolation-filters="sRGB">
<feFlood flood-opacity="0" result="BackgroundImageFix"/>
<feBlend mode="normal" in="SourceGraphic" in2="BackgroundImageFix" result="shape"/>
<feGaussianBlur stdDeviation="7.5" result="effect1_foregroundBlur_358_2360"/>
</filter>
<linearGradient id="paint0_linear_358_2360" x1="28.1923" y1="2.92822" x2="28.1923" y2="36.0718" gradientUnits="userSpaceOnUse">
<stop stop-color="#4D83EF"/>
<stop offset="1" stop-color="#145CEB"/>
</linearGradient>
<clipPath id="clip0_358_2360">
<rect width="17.3077" height="17.3077" fill="white" transform="translate(19.3462 10.6539)"/>
</clipPath>
</defs>
</svg>
