<svg width="32" height="32" viewBox="0 0 32 32" fill="none" xmlns="http://www.w3.org/2000/svg">
<path d="M16.0004 20.9995C18.7618 20.9995 21.0004 18.7609 21.0004 15.9995C21.0004 13.2381 18.7618 10.9995 16.0004 10.9995C13.2389 10.9995 11.0004 13.2381 11.0004 15.9995C11.0004 18.7609 13.2389 20.9995 16.0004 20.9995Z" stroke="white" stroke-width="2" stroke-linecap="round" stroke-linejoin="round"/>
<path d="M22.6356 25.9998C20.4078 27.4783 17.75 28.1705 15.0839 27.9666C12.4179 27.7626 9.89636 26.6742 7.91937 24.874C5.94238 23.0737 4.62319 20.6649 4.17113 18.0295C3.71907 15.3942 4.16003 12.6834 5.42404 10.3272C6.68805 7.97104 8.70271 6.10446 11.1484 5.02365C13.594 3.94285 16.3305 3.70972 18.9237 4.36127C21.517 5.01282 23.8183 6.51171 25.4627 8.62013C27.107 10.7285 28.0002 13.3257 28.0004 15.9995C28.0004 18.7609 27.0004 20.9995 24.5004 20.9995C22.0004 20.9995 21.0004 18.7609 21.0004 15.9995V10.9995" stroke="white" stroke-width="2" stroke-linecap="round" stroke-linejoin="round"/>
</svg>
