<svg width="33" height="32" viewBox="0 0 33 32" fill="none" xmlns="http://www.w3.org/2000/svg">
<path opacity="0.8" d="M16.0728 20.9995C18.8342 20.9995 21.0728 18.7609 21.0728 15.9995C21.0728 13.2381 18.8342 10.9995 16.0728 10.9995C13.3113 10.9995 11.0728 13.2381 11.0728 15.9995C11.0728 18.7609 13.3113 20.9995 16.0728 20.9995Z" stroke="white" stroke-width="1.5" stroke-linecap="round" stroke-linejoin="round"/>
<path opacity="0.8" d="M22.7078 25.9995C20.48 27.4781 17.8222 28.1703 15.1562 27.9663C12.4901 27.7624 9.96857 26.6739 7.99158 24.8737C6.01458 23.0735 4.6954 20.6646 4.24334 18.0293C3.79128 15.394 4.23224 12.6831 5.49625 10.327C6.76026 7.97079 8.77492 6.10422 11.2206 5.02341C13.6662 3.94261 16.4027 3.70948 18.9959 4.36103C21.5892 5.01257 23.8905 6.51147 25.5349 8.61988C27.1792 10.7283 28.0724 13.3255 28.0726 15.9993C28.0726 18.7607 27.0726 20.9993 24.5726 20.9993C22.0726 20.9993 21.0726 18.7607 21.0726 15.9993V10.9993" stroke="white" stroke-width="1.5" stroke-linecap="round" stroke-linejoin="round"/>
</svg>
