<svg width="33" height="32" viewBox="0 0 33 32" fill="none" xmlns="http://www.w3.org/2000/svg">
<path opacity="0.8" d="M23.1923 7.28008C22.8759 7.28008 22.5666 7.37392 22.3034 7.54973C22.0403 7.72554 21.8352 7.97543 21.7141 8.26779C21.593 8.56015 21.5614 8.88186 21.6231 9.19223C21.6848 9.50259 21.8372 9.78769 22.061 10.0115C22.2847 10.2352 22.5698 10.3876 22.8802 10.4493C23.1906 10.5111 23.5123 10.4794 23.8046 10.3583C24.097 10.2372 24.3469 10.0321 24.5227 9.76899C24.6985 9.50588 24.7923 9.19653 24.7923 8.88008C24.7923 8.45573 24.6238 8.04877 24.3237 7.74871C24.0237 7.44865 23.6167 7.28008 23.1923 7.28008ZM29.3257 10.5067C29.2997 9.40048 29.0926 8.30595 28.7123 7.26675C28.3733 6.37759 27.8457 5.57245 27.1657 4.90675C26.5054 4.22332 25.6984 3.69898 24.8057 3.37341C23.7692 2.98163 22.6735 2.76969 21.5657 2.74675C20.1523 2.66675 19.699 2.66675 16.0723 2.66675C12.4457 2.66675 11.9923 2.66675 10.579 2.74675C9.47122 2.76969 8.37547 2.98163 7.33901 3.37341C6.44792 3.70228 5.64159 4.22616 4.97901 4.90675C4.29558 5.56698 3.77125 6.374 3.44568 7.26675C3.05389 8.30321 2.84196 9.39895 2.81901 10.5067C2.73901 11.9201 2.73901 12.3734 2.73901 16.0001C2.73901 19.6267 2.73901 20.0801 2.81901 21.4934C2.84196 22.6012 3.05389 23.697 3.44568 24.7334C3.77125 25.6262 4.29558 26.4332 4.97901 27.0934C5.64159 27.774 6.44792 28.2979 7.33901 28.6267C8.37547 29.0185 9.47122 29.2305 10.579 29.2534C11.9923 29.3334 12.4457 29.3334 16.0723 29.3334C19.699 29.3334 20.1523 29.3334 21.5657 29.2534C22.6735 29.2305 23.7692 29.0185 24.8057 28.6267C25.6984 28.3012 26.5054 27.7768 27.1657 27.0934C27.8487 26.4302 28.3768 25.6243 28.7123 24.7334C29.0926 23.6942 29.2997 22.5997 29.3257 21.4934C29.3257 20.0801 29.4057 19.6267 29.4057 16.0001C29.4057 12.3734 29.4057 11.9201 29.3257 10.5067ZM26.9257 21.3334C26.916 22.1798 26.7627 23.0184 26.4723 23.8134C26.2595 24.3937 25.9175 24.918 25.4723 25.3467C25.0399 25.7874 24.5166 26.1287 23.939 26.3467C23.1439 26.6371 22.3054 26.7904 21.459 26.8001C20.1257 26.8667 19.6323 26.8801 16.1257 26.8801C12.619 26.8801 12.1257 26.8801 10.7923 26.8001C9.91353 26.8165 9.03847 26.6812 8.20568 26.4001C7.65339 26.1708 7.15415 25.8305 6.73901 25.4001C6.29646 24.9717 5.9588 24.447 5.75235 23.8667C5.42682 23.0603 5.24627 22.2027 5.21901 21.3334C5.21901 20.0001 5.13901 19.5067 5.13901 16.0001C5.13901 12.4934 5.13901 12.0001 5.21901 10.6667C5.22499 9.80149 5.38295 8.94401 5.68568 8.13341C5.92041 7.57063 6.2807 7.06896 6.73901 6.66675C7.1441 6.20831 7.64473 5.84421 8.20568 5.60008C9.01841 5.30681 9.87501 5.15352 10.739 5.14675C12.0723 5.14675 12.5657 5.06675 16.0723 5.06675C19.579 5.06675 20.0723 5.06675 21.4057 5.14675C22.252 5.15646 23.0906 5.30974 23.8857 5.60008C24.4916 5.82495 25.0354 6.19054 25.4723 6.66675C25.9093 7.07632 26.2507 7.57706 26.4723 8.13341C26.7687 8.94533 26.9221 9.80245 26.9257 10.6667C26.9923 12.0001 27.0057 12.4934 27.0057 16.0001C27.0057 19.5067 26.9923 20.0001 26.9257 21.3334ZM16.0723 9.16008C14.7201 9.16272 13.399 9.56612 12.2759 10.3193C11.1528 11.0725 10.2782 12.1417 9.76253 13.3918C9.24687 14.6418 9.11331 16.0167 9.37874 17.3427C9.64417 18.6686 10.2967 19.8861 11.2538 20.8414C12.2109 21.7966 13.4297 22.4468 14.7562 22.7096C16.0826 22.9725 17.4572 22.8362 18.7063 22.3181C19.9554 21.8 21.0229 20.9233 21.7739 19.7988C22.5249 18.6742 22.9257 17.3523 22.9257 16.0001C22.9274 15.1002 22.7513 14.2089 22.4073 13.3774C22.0634 12.5458 21.5584 11.7905 20.9215 11.1548C20.2846 10.5191 19.5283 10.0157 18.6961 9.67332C17.8639 9.33099 16.9722 9.15656 16.0723 9.16008ZM16.0723 20.4401C15.1942 20.4401 14.3358 20.1797 13.6056 19.6918C12.8755 19.2039 12.3064 18.5105 11.9703 17.6992C11.6343 16.8879 11.5463 15.9952 11.7177 15.1339C11.889 14.2726 12.3118 13.4815 12.9328 12.8605C13.5537 12.2396 14.3449 11.8167 15.2061 11.6454C16.0674 11.4741 16.9602 11.562 17.7715 11.8981C18.5828 12.2341 19.2762 12.8032 19.7641 13.5333C20.2519 14.2635 20.5123 15.1219 20.5123 16.0001C20.5123 16.5831 20.3975 17.1605 20.1744 17.6992C19.9512 18.2379 19.6242 18.7273 19.2119 19.1396C18.7996 19.5519 18.3101 19.879 17.7715 20.1021C17.2328 20.3252 16.6554 20.4401 16.0723 20.4401Z" fill="white"/>
</svg>
