<svg width="32" height="32" viewBox="0 0 32 32" fill="none" xmlns="http://www.w3.org/2000/svg">
<path d="M11 16.8588L22.2397 26.7497C22.3697 26.8641 22.5273 26.9428 22.6969 26.9781C22.8665 27.0133 23.0423 27.0039 23.2072 26.9507C23.3721 26.8976 23.5203 26.8025 23.6374 26.6748C23.7544 26.5471 23.8363 26.3912 23.875 26.2224L28.5767 5.7058C28.6174 5.52841 28.6089 5.34329 28.5521 5.17039C28.4953 4.9975 28.3924 4.84337 28.2545 4.72463C28.1166 4.60588 27.9489 4.52702 27.7695 4.49655C27.5901 4.46607 27.4057 4.48513 27.2364 4.55167L4.16676 13.6147C3.9657 13.6937 3.79563 13.8357 3.68198 14.0194C3.56834 14.2031 3.51724 14.4187 3.53632 14.6338C3.55541 14.849 3.64365 15.0522 3.78786 15.213C3.93206 15.3739 4.12447 15.4837 4.33629 15.5261L11 16.8588Z" stroke="white" stroke-width="1.5" stroke-linecap="round" stroke-linejoin="round"/>
<path d="M11 16.8592L28.014 4.57129" stroke="white" stroke-width="1.5" stroke-linecap="round" stroke-linejoin="round"/>
<path d="M16.6134 21.7987L12.7071 25.7049C12.5673 25.8448 12.3891 25.94 12.1951 25.9786C12.0011 26.0172 11.8 25.9974 11.6173 25.9217C11.4346 25.846 11.2784 25.7179 11.1685 25.5534C11.0587 25.389 11 25.1956 11 24.9978V16.8589" stroke="white" stroke-width="1.5" stroke-linecap="round" stroke-linejoin="round"/>
</svg>
