<svg width="56" height="59" viewBox="0 0 56 59" fill="none" xmlns="http://www.w3.org/2000/svg">
<g opacity="0.3" filter="url(#filter0_f_358_2489)">
<path d="M25.1389 11.7321C26.9953 10.6603 29.2824 10.6603 31.1389 11.7321L36.8302 15.018C38.6866 16.0898 39.8302 18.0705 39.8302 20.2141V26.7859C39.8302 28.9295 38.6866 30.9103 36.8302 31.9821L31.1389 35.268C29.2824 36.3398 26.9953 36.3398 25.1389 35.268L19.4475 31.9821C17.5911 30.9103 16.4475 28.9295 16.4475 26.7859V20.2141C16.4475 18.0705 17.5911 16.0898 19.4475 15.018L25.1389 11.7321Z" fill="#6B3D0F"/>
</g>
<g opacity="0.4" filter="url(#filter1_f_358_2489)">
<path d="M25.1389 16.7321C26.9953 15.6603 29.2825 15.6603 31.1389 16.7321L37.6963 20.518C39.5527 21.5898 40.6963 23.5705 40.6963 25.7141V33.2859C40.6963 35.4295 39.5527 37.4103 37.6963 38.4821L31.1389 42.268C29.2825 43.3398 26.9953 43.3398 25.1389 42.268L18.5815 38.4821C16.7251 37.4103 15.5815 35.4295 15.5815 33.2859V25.7141C15.5815 23.5705 16.7251 21.5898 18.5815 20.518L25.1389 16.7321Z" fill="#6B3D0F"/>
</g>
<path d="M25.1388 3.73207C26.9952 2.66027 29.2824 2.66027 31.1388 3.73207L40.2943 9.01797C42.1507 10.0898 43.2943 12.0705 43.2943 14.2141V24.7859C43.2943 26.9295 42.1507 28.9103 40.2943 29.9821L31.1388 35.268C29.2824 36.3398 26.9952 36.3398 25.1388 35.268L15.9834 29.9821C14.127 28.9103 12.9834 26.9295 12.9834 24.7859V14.2141C12.9834 12.0705 14.127 10.0898 15.9834 9.01797L25.1388 3.73207Z" fill="url(#paint0_linear_358_2489)"/>
<path d="M33.7531 17.7662C34.0089 16.056 32.7068 15.1367 30.9264 14.5234L31.504 12.2067L30.0937 11.8553L29.5315 14.111C29.1607 14.0185 28.78 13.9314 28.4016 13.845L28.968 11.5745L27.5586 11.2231L26.9807 13.539C26.6739 13.4691 26.3726 13.4001 26.0802 13.3274L26.0819 13.3201L24.1371 12.8344L23.762 14.3406C23.762 14.3406 24.8083 14.5805 24.7862 14.5952C25.3573 14.7378 25.4606 15.1158 25.4434 15.4154L24.7855 18.0547C24.8248 18.0646 24.8758 18.0791 24.9321 18.1017C24.885 18.09 24.835 18.0773 24.783 18.0648L23.8608 21.762C23.791 21.9355 23.6139 22.1959 23.2146 22.097C23.2288 22.1175 22.1897 21.8412 22.1897 21.8412L21.4895 23.4555L23.3247 23.913C23.6661 23.9986 24.0006 24.0881 24.3301 24.1724L23.7465 26.5156L25.1551 26.867L25.733 24.5487C26.1179 24.6531 26.4913 24.7495 26.8569 24.8403L26.2809 27.1477L27.6912 27.4991L28.2747 25.1603C30.6794 25.6154 32.4876 25.4319 33.2487 23.2568C33.862 21.5056 33.2182 20.4956 31.953 19.8369C32.8745 19.6244 33.568 19.0181 33.7531 17.7662ZM30.5311 22.2843C30.0953 24.0355 27.1468 23.0889 26.1909 22.8515L26.9652 19.7471C27.9211 19.9857 30.9865 20.458 30.5311 22.2843ZM30.9672 17.7408C30.5696 19.3337 28.1156 18.5245 27.3195 18.326L28.0216 15.5105C28.8177 15.709 31.3812 16.0793 30.9672 17.7408Z" fill="white"/>
<defs>
<filter id="filter0_f_358_2489" x="10.4475" y="4.92822" width="35.3826" height="37.1436" filterUnits="userSpaceOnUse" color-interpolation-filters="sRGB">
<feFlood flood-opacity="0" result="BackgroundImageFix"/>
<feBlend mode="normal" in="SourceGraphic" in2="BackgroundImageFix" result="shape"/>
<feGaussianBlur stdDeviation="3" result="effect1_foregroundBlur_358_2489"/>
</filter>
<filter id="filter1_f_358_2489" x="0.581543" y="0.928223" width="55.1147" height="57.1436" filterUnits="userSpaceOnUse" color-interpolation-filters="sRGB">
<feFlood flood-opacity="0" result="BackgroundImageFix"/>
<feBlend mode="normal" in="SourceGraphic" in2="BackgroundImageFix" result="shape"/>
<feGaussianBlur stdDeviation="7.5" result="effect1_foregroundBlur_358_2489"/>
</filter>
<linearGradient id="paint0_linear_358_2489" x1="28.1388" y1="2.92822" x2="28.1388" y2="36.0718" gradientUnits="userSpaceOnUse">
<stop stop-color="#F4BA45"/>
<stop offset="1" stop-color="#F19C3B"/>
</linearGradient>
</defs>
</svg>
