<svg width="56" height="59" viewBox="0 0 56 59" fill="none" xmlns="http://www.w3.org/2000/svg">
<g opacity="0.3" filter="url(#filter0_f_358_2411)">
<path d="M25.1923 11.7321C27.0487 10.6603 29.3359 10.6603 31.1923 11.7321L36.8837 15.018C38.7401 16.0898 39.8837 18.0705 39.8837 20.2141V26.7859C39.8837 28.9295 38.7401 30.9103 36.8837 31.9821L31.1923 35.268C29.3359 36.3398 27.0487 36.3398 25.1923 35.268L19.501 31.9821C17.6446 30.9103 16.501 28.9295 16.501 26.7859V20.2141C16.501 18.0705 17.6446 16.0898 19.501 15.018L25.1923 11.7321Z" fill="#6B3D0F"/>
</g>
<g opacity="0.4" filter="url(#filter1_f_358_2411)">
<path d="M25.1924 16.7321C27.0488 15.6603 29.336 15.6603 31.1924 16.7321L37.7497 20.518C39.6062 21.5898 40.7497 23.5705 40.7497 25.7141V33.2859C40.7497 35.4295 39.6062 37.4103 37.7497 38.4821L31.1924 42.268C29.336 43.3398 27.0488 43.3398 25.1924 42.268L18.635 38.4821C16.7786 37.4103 15.635 35.4295 15.635 33.2859V25.7141C15.635 23.5705 16.7786 21.5898 18.635 20.518L25.1924 16.7321Z" fill="#6B3D0F"/>
</g>
<path d="M25.1923 3.73207C27.0487 2.66027 29.3359 2.66027 31.1923 3.73207L40.3478 9.01797C42.2042 10.0898 43.3478 12.0705 43.3478 14.2141V24.7859C43.3478 26.9295 42.2042 28.9103 40.3478 29.9821L31.1923 35.268C29.3359 36.3398 27.0487 36.3398 25.1923 35.268L16.0369 29.9821C14.1805 28.9103 13.0369 26.9295 13.0369 24.7859V14.2141C13.0369 12.0705 14.1805 10.0898 16.0369 9.01797L25.1923 3.73207Z" fill="url(#paint0_linear_358_2411)"/>
<path fill-rule="evenodd" clip-rule="evenodd" d="M22.728 26.8698H27.7187C27.7187 26.8698 34.7362 27.4674 34.7362 19.4295C34.7362 11.7032 28.3281 11.7306 27.0896 11.7359C27.0606 11.736 27.0344 11.7362 27.0112 11.7362H22.7279V18.4776H20.9688V20.1288H22.728V26.8698ZM25.539 14.5335H27.508C28.2445 14.5335 31.9496 14.8346 31.9555 19.484C31.9614 24.078 28.2258 24.0732 27.6248 24.0724C27.6176 24.0724 27.6108 24.0724 27.6045 24.0724H25.539V20.1287H28.6368V18.4774H25.539V14.5335Z" fill="white"/>
<defs>
<filter id="filter0_f_358_2411" x="10.501" y="4.92822" width="35.3826" height="37.1436" filterUnits="userSpaceOnUse" color-interpolation-filters="sRGB">
<feFlood flood-opacity="0" result="BackgroundImageFix"/>
<feBlend mode="normal" in="SourceGraphic" in2="BackgroundImageFix" result="shape"/>
<feGaussianBlur stdDeviation="3" result="effect1_foregroundBlur_358_2411"/>
</filter>
<filter id="filter1_f_358_2411" x="0.63501" y="0.928223" width="55.1147" height="57.1436" filterUnits="userSpaceOnUse" color-interpolation-filters="sRGB">
<feFlood flood-opacity="0" result="BackgroundImageFix"/>
<feBlend mode="normal" in="SourceGraphic" in2="BackgroundImageFix" result="shape"/>
<feGaussianBlur stdDeviation="7.5" result="effect1_foregroundBlur_358_2411"/>
</filter>
<linearGradient id="paint0_linear_358_2411" x1="28.1923" y1="2.92822" x2="28.1923" y2="36.0718" gradientUnits="userSpaceOnUse">
<stop stop-color="#C28457"/>
<stop offset="1" stop-color="#965E36"/>
</linearGradient>
</defs>
</svg>
