<svg width="56" height="59" viewBox="0 0 56 59" fill="none" xmlns="http://www.w3.org/2000/svg">
<g opacity="0.3" filter="url(#filter0_f_358_2437)">
<path d="M25.1923 11.732C27.0487 10.6602 29.3359 10.6602 31.1923 11.732L36.8837 15.0179C38.7401 16.0897 39.8837 18.0705 39.8837 20.2141V26.7859C39.8837 28.9295 38.7401 30.9102 36.8837 31.982L31.1923 35.2679C29.3359 36.3397 27.0487 36.3397 25.1923 35.2679L19.501 31.982C17.6446 30.9102 16.501 28.9295 16.501 26.7859V20.2141C16.501 18.0705 17.6446 16.0897 19.501 15.0179L25.1923 11.732Z" fill="#194327"/>
</g>
<g opacity="0.4" filter="url(#filter1_f_358_2437)">
<path d="M25.1924 16.732C27.0488 15.6602 29.336 15.6602 31.1924 16.732L37.7497 20.5179C39.6062 21.5897 40.7497 23.5705 40.7497 25.7141V33.2859C40.7497 35.4295 39.6062 37.4102 37.7497 38.482L31.1924 42.2679C29.336 43.3397 27.0488 43.3397 25.1924 42.2679L18.635 38.482C16.7786 37.4102 15.635 35.4295 15.635 33.2859V25.7141C15.635 23.5705 16.7786 21.5897 18.635 20.5179L25.1924 16.732Z" fill="#194327"/>
</g>
<path d="M25.1923 3.73204C27.0487 2.66024 29.3359 2.66024 31.1923 3.73204L40.3478 9.01794C42.2042 10.0897 43.3478 12.0705 43.3478 14.2141V24.7859C43.3478 26.9295 42.2042 28.9102 40.3478 29.982L31.1923 35.2679C29.3359 36.3397 27.0487 36.3397 25.1923 35.2679L16.0369 29.982C14.1805 28.9102 13.0369 26.9295 13.0369 24.7859V14.2141C13.0369 12.0705 14.1805 10.0897 16.0369 9.01794L25.1923 3.73204Z" fill="url(#paint0_linear_358_2437)"/>
<path fill-rule="evenodd" clip-rule="evenodd" d="M29.5408 19.775C29.4547 19.7815 29.0101 19.808 28.0184 19.808C27.2296 19.808 26.6695 19.7844 26.4731 19.775C23.4247 19.641 21.1494 19.1103 21.1494 18.475C21.1494 17.8396 23.4247 17.3097 26.4731 17.1734V19.2466C26.6724 19.2609 27.2432 19.2946 28.032 19.2946C28.9786 19.2946 29.4526 19.2552 29.5379 19.2473V17.1749C32.5798 17.3104 34.8501 17.8411 34.8501 18.475C34.8501 19.1089 32.5805 19.6395 29.5379 19.7743L29.5408 19.775ZM29.5408 16.9605V15.1054H33.7859V12.2764H22.2279V15.1054H26.4723V16.9597C23.0224 17.1182 20.428 17.8016 20.428 18.6205C20.428 19.4395 23.0224 20.1221 26.4723 20.2813V26.226H29.54V20.2792C32.9821 20.1207 35.5722 19.438 35.5722 18.6198C35.5722 17.8016 32.9842 17.1189 29.54 16.9597L29.5408 16.9605Z" fill="white"/>
<defs>
<filter id="filter0_f_358_2437" x="10.501" y="4.92819" width="35.3826" height="37.1436" filterUnits="userSpaceOnUse" color-interpolation-filters="sRGB">
<feFlood flood-opacity="0" result="BackgroundImageFix"/>
<feBlend mode="normal" in="SourceGraphic" in2="BackgroundImageFix" result="shape"/>
<feGaussianBlur stdDeviation="3" result="effect1_foregroundBlur_358_2437"/>
</filter>
<filter id="filter1_f_358_2437" x="0.63501" y="0.928192" width="55.1147" height="57.1436" filterUnits="userSpaceOnUse" color-interpolation-filters="sRGB">
<feFlood flood-opacity="0" result="BackgroundImageFix"/>
<feBlend mode="normal" in="SourceGraphic" in2="BackgroundImageFix" result="shape"/>
<feGaussianBlur stdDeviation="7.5" result="effect1_foregroundBlur_358_2437"/>
</filter>
<linearGradient id="paint0_linear_358_2437" x1="28.1923" y1="2.92819" x2="28.1923" y2="36.0718" gradientUnits="userSpaceOnUse">
<stop stop-color="#3FA862"/>
<stop offset="1" stop-color="#348D52"/>
</linearGradient>
</defs>
</svg>
