<svg width="32" height="32" viewBox="0 0 32 32" fill="none" xmlns="http://www.w3.org/2000/svg">
<path d="M5.6786 22.1247C4.18768 19.6114 3.66554 16.6402 4.21024 13.7692C4.75494 10.8981 6.329 8.32466 8.63685 6.53204C10.9447 4.73941 13.8276 3.85093 16.7441 4.03344C19.6607 4.21595 22.4103 5.45689 24.4767 7.52325C26.5431 9.5896 27.784 12.3392 27.9666 15.2558C28.1491 18.1724 27.2606 21.0552 25.468 23.3631C23.6754 25.671 21.1019 27.245 18.2309 27.7897C15.3598 28.3345 12.3887 27.8123 9.87532 26.3214L9.87535 26.3213L5.73078 27.5055C5.5593 27.5545 5.37785 27.5567 5.20521 27.512C5.03258 27.4672 4.87504 27.3772 4.74894 27.2511C4.62284 27.125 4.53275 26.9674 4.48802 26.7948C4.44329 26.6221 4.44553 26.4407 4.49453 26.2692L5.67869 22.1246L5.6786 22.1247Z" stroke="#676673" stroke-width="2" stroke-linecap="round" stroke-linejoin="round"/>
<path d="M19.0142 23C17.6986 23.0019 16.3956 22.7441 15.1797 22.2415C13.9639 21.7389 12.8592 21.0013 11.9289 20.0711C10.9987 19.1408 10.2611 18.0361 9.75849 16.8203C9.25589 15.6044 8.99814 14.3014 9.00001 12.9858C9.00299 12.0598 9.37314 11.1727 10.0293 10.5192C10.6854 9.86576 11.574 9.49921 12.5 9.5V9.5C12.6519 9.5 12.8011 9.54015 12.9325 9.61639C13.0638 9.69263 13.1727 9.80224 13.2481 9.93412L14.7094 12.4915C14.7976 12.6458 14.843 12.8207 14.8411 12.9983C14.8393 13.1759 14.7901 13.3498 14.6987 13.5022L13.5251 15.4582C14.1289 16.7982 15.2018 17.8711 16.5418 18.4749V18.4749L18.4978 17.3013C18.6502 17.2099 18.8241 17.1608 19.0017 17.1589C19.1793 17.157 19.3542 17.2024 19.5085 17.2906L22.0659 18.7519C22.1978 18.8273 22.3074 18.9362 22.3836 19.0675C22.4598 19.1989 22.5 19.3481 22.5 19.5V19.5C22.4974 20.425 22.1297 21.3115 21.477 21.9669C20.8242 22.6223 19.9392 22.9936 19.0142 23V23Z" stroke="#676673" stroke-width="2" stroke-linecap="round" stroke-linejoin="round"/>
</svg>
