<svg width="24" height="25" viewBox="0 0 24 25" fill="none" xmlns="http://www.w3.org/2000/svg">
<path d="M7.48438 10.0984H2.98438V5.59839" stroke="white" stroke-width="2" stroke-linecap="round" stroke-linejoin="round"/>
<path d="M17.8336 6.91637C17.0675 6.15029 16.1581 5.5426 15.1571 5.12799C14.1562 4.71339 13.0834 4.5 12 4.5C10.9166 4.5 9.84378 4.71339 8.84285 5.12799C7.84191 5.5426 6.93244 6.15029 6.16635 6.91637L2.98438 10.0984" stroke="white" stroke-width="2" stroke-linecap="round" stroke-linejoin="round"/>
<path d="M16.5156 15.4016H21.0156V19.9016" stroke="white" stroke-width="2" stroke-linecap="round" stroke-linejoin="round"/>
<path d="M6.16638 18.5837C6.93247 19.3497 7.84194 19.9574 8.84287 20.372C9.84381 20.7866 10.9166 21 12 21C13.0834 21 14.1562 20.7866 15.1572 20.372C16.1581 19.9574 17.0676 19.3497 17.8336 18.5837L21.0156 15.4017" stroke="white" stroke-width="2" stroke-linecap="round" stroke-linejoin="round"/>
</svg>
