<svg width="130" height="144" viewBox="0 0 130 144" fill="none" xmlns="http://www.w3.org/2000/svg">
<g opacity="0.3" filter="url(#filter0_f_34_1198)">
<path d="M62.0309 11.7321C63.8873 10.6603 66.1745 10.6603 68.0309 11.7321L110.528 36.268C112.385 37.3397 113.528 39.3205 113.528 41.4641V90.5359C113.528 92.6795 112.385 94.6603 110.528 95.7321L68.0309 120.268C66.1745 121.34 63.8873 121.34 62.0309 120.268L19.5334 95.7321C17.677 94.6603 16.5334 92.6795 16.5334 90.5359V41.4641C16.5334 39.3205 17.677 37.3397 19.5334 36.268L62.0309 11.7321Z" fill="#891A64"/>
</g>
<g opacity="0.4" filter="url(#filter1_f_34_1198)">
<path d="M62.0307 16.7321C63.8871 15.6603 66.1743 15.6603 68.0307 16.7321L111.394 41.768C113.251 42.8397 114.394 44.8205 114.394 46.9641V97.0359C114.394 99.1795 113.251 101.16 111.394 102.232L68.0307 127.268C66.1743 128.34 63.8871 128.34 62.0307 127.268L18.6672 102.232C16.8108 101.16 15.6672 99.1795 15.6672 97.0359V46.9641C15.6672 44.8205 16.8108 42.8397 18.6672 41.768L62.0307 16.7321Z" fill="#891A64"/>
</g>
<path d="M62.0309 3.73205C63.8873 2.66025 66.1745 2.66025 68.0309 3.73205L113.992 30.268C115.849 31.3397 116.992 33.3205 116.992 35.4641V88.5359C116.992 90.6795 115.849 92.6603 113.992 93.7321L68.0309 120.268C66.1745 121.34 63.8873 121.34 62.0309 120.268L16.0693 93.7321C14.2129 92.6603 13.0693 90.6795 13.0693 88.5359V35.4641C13.0693 33.3205 14.2129 31.3397 16.0693 30.268L62.0309 3.73205Z" fill="url(#paint0_linear_34_1198)"/>
<path fill-rule="evenodd" clip-rule="evenodd" d="M52.9882 48.8201C50.7455 46.8412 46.0694 42.7152 39.9819 35.3719C39.2997 34.5494 38.7618 33.875 38.7813 33.875C38.8826 33.875 54.7556 47.5339 56.3967 49.4361L56.8528 49.9585L56.8138 50.7771C56.8105 51.2633 56.7005 51.7429 56.4917 52.182C56.2829 52.6211 55.9804 53.0091 55.6054 53.3186C54.6699 54.1762 53.5355 54.6323 51.7463 54.8779C50.647 55.026 50.2494 55.1897 49.8051 55.6731C49.3802 56.1408 49.2203 56.7217 49.1034 58.1912C48.9202 60.4638 48.6512 61.4266 47.5676 63.6875C46.5229 65.8666 46.3085 66.6891 46.4956 67.8585C46.7139 69.2813 47.5247 70.3143 49.4191 71.6006C50.8614 72.583 51.5163 73.2183 51.8749 73.9785C52.0971 74.4462 52.1244 74.6177 52.1205 75.4286C52.1127 76.672 51.9139 77.171 51.0563 78.0792C49.6725 79.5488 47.2128 80.7416 44.1879 81.4199C42.9171 81.7045 42.8626 81.7045 42.8626 81.416C42.8626 81.0496 42.3948 80.114 41.5762 78.855C40.629 77.3971 40.2547 76.672 39.9039 75.565C39.4985 74.3059 39.3855 73.4561 39.4439 72.1347C39.4985 70.8912 39.635 70.3377 40.1339 69.3514C40.5315 68.564 40.7888 68.2093 42.3558 66.2642C45.0377 62.9391 46.0044 60.9979 46.3475 58.2497C46.6554 55.7978 47.0803 54.6128 48.0314 53.5603C48.6005 52.9249 48.7292 52.6832 48.7292 52.2233C48.7292 52.1769 48.7524 52.1157 48.7834 52.034C48.9038 51.7169 49.1413 51.0913 48.5927 49.8298C44.8292 43.1358 44.372 42.3278 44.4012 42.3098C44.4053 42.3073 44.4184 42.3197 44.4335 42.3338C45.9165 44.5651 47.3823 46.8079 48.8305 49.0619C50.3278 51.7035 50.6536 51.9811 50.9355 52.2214C50.9743 52.2545 51.0123 52.2869 51.0524 52.3246C51.0524 52.3246 51.2512 52.5429 51.8243 52.5429C52.5233 52.4896 53.2053 52.3003 53.8318 51.9855C54.7127 51.4865 54.9076 50.8472 54.3931 50.1378C54.2345 49.9198 53.7528 49.4947 52.9882 48.8201ZM43.9353 72.5907C44.0184 72.944 43.9652 73.3157 43.7864 73.6315C43.4278 74.2591 42.7495 74.4618 42.2701 74.0915C41.9738 73.8576 41.9504 73.5185 42.2116 73.1326C42.4689 72.7467 42.4455 72.5596 42.118 72.3919C41.9231 72.2945 41.8374 72.1814 41.8374 72.0255C41.8374 71.5227 42.7534 71.3356 43.3381 71.7254C43.639 71.9284 43.8522 72.2374 43.9353 72.5907Z" fill="white"/>
<path fill-rule="evenodd" clip-rule="evenodd" d="M56.0693 57.3765C56.3265 56.4488 57.1412 55.5639 57.9793 55.3106C58.7022 55.1654 59.4518 55.2359 60.135 55.5133C61.1407 56.0239 61.8696 57.1777 61.7137 58.0119C61.5188 59.0332 59.8582 59.8479 57.9481 59.8596C56.9697 59.8635 56.6111 59.7349 56.2369 59.2398C56.0069 58.9358 55.9172 57.9418 56.0693 57.3765ZM59.8777 55.8758C60.3805 56.1798 60.5092 56.6281 60.2168 57.0452C60.0141 57.3337 59.3826 57.6065 58.9227 57.6065C58.2327 57.6065 57.4804 57.1193 57.4804 56.671C57.4804 55.7744 58.9266 55.295 59.8777 55.8758Z" fill="white"/>
<path d="M54.549 37.7965C54.2021 37.8471 54.2333 37.8588 54.9661 37.9719V37.9758C57.6363 38.3851 59.7218 39.4376 61.8462 41.4451C62.7818 42.326 63.7173 43.4214 65.2376 45.4055C68.6601 49.8649 70.1102 51.1045 72.9909 52.0401C74.6826 52.5897 76.39 52.847 79.4071 53.0029C82.7439 53.1783 84.0068 53.4473 85.1997 54.2308C85.8861 54.6896 86.4647 55.2921 86.8953 55.9966L87.1916 56.4566L87.1292 55.9498C86.8914 54.0086 85.4959 51.2799 83.7145 49.2763L83.3909 48.9099L83.2272 49.6466C82.8179 51.4943 81.9292 52.8197 81.1028 52.8197C80.9028 52.8194 80.7068 52.763 80.5373 52.6569C80.3678 52.5508 80.2314 52.3992 80.1438 52.2194C79.9606 51.7828 79.9762 51.623 80.2491 51.1162C80.7519 50.1846 80.8728 48.9411 80.6233 47.3117C80.557 46.84 80.4518 46.4034 80.3894 46.3333C80.214 46.1189 78.7717 45.2847 77.8557 44.8637C74.5306 43.3395 70.5624 42.8445 66.6565 43.4682L65.7287 43.6163L65.0817 42.8991C62.6415 40.1977 60.3572 38.6774 57.8468 38.0849C56.7709 37.8315 55.2117 37.6951 54.549 37.7965Z" fill="white"/>
<path d="M81.6953 39.3947C81.3289 40.1938 81.1496 41.0709 81.0755 42.3962H81.0716C81.0248 43.2538 80.9741 43.5462 80.8767 43.5851C80.7247 43.6397 80.522 43.5812 79.2824 43.1057C78.4521 42.7899 76.3861 42.1896 76.3276 42.2481C76.6357 42.4267 76.9562 42.5831 77.2866 42.7159C77.9571 43.0224 78.6127 43.3606 79.2512 43.7294C81.3679 44.969 81.7343 45.6979 81.7343 48.7189C81.7343 50.2236 81.7148 50.4263 81.5277 50.8785C81.2782 51.4905 81.3211 51.6074 81.5978 51.0617C82.1124 50.0677 82.3268 49.0697 82.3541 47.5144C82.3775 46.5165 82.4047 46.306 82.549 46.1657C82.701 46.0136 82.74 46.0136 82.9895 46.1384C83.3637 46.3294 85.0476 47.6625 85.7805 48.3447L86.3808 48.9021L85.7805 48.1225C85.4492 47.6898 84.5409 46.6919 83.7574 45.8967C82.0929 44.2049 81.9643 43.9788 81.7304 42.4118C81.5433 41.1761 81.59 40.1158 81.8551 39.3362C81.9526 39.0517 82.0149 38.8178 81.9955 38.8178C81.8762 38.9995 81.7756 39.1928 81.6953 39.3947Z" fill="white"/>
<path d="M54.1826 40.0769C53.9799 42.4118 54.9038 45.5342 56.389 47.569C57.5428 49.1477 59.332 50.3756 60.6535 50.4925C61.5188 50.5705 61.7761 50.3015 61.3863 49.7324C60.8445 48.945 60.174 47.7327 59.9986 47.2143C59.8894 46.8868 59.6516 45.9357 59.4684 45.0937C58.8486 42.2169 58.2366 41.0982 56.8294 40.2484C56.3149 39.9365 55.2195 39.5311 54.5802 39.4142L54.2411 39.3557L54.1826 40.0769Z" fill="white"/>
<path d="M69.8646 53.4512C69.8646 57.5247 72.3126 59.9415 79.2668 62.7208V62.7247C83.8977 64.5763 85.7922 65.5352 87.2033 66.7397C88.4429 67.8 89.1835 69.215 89.2537 70.6651C89.2654 70.938 89.316 71.1368 89.3706 71.1173C89.5577 71.0549 90.2672 69.4762 90.5011 68.5991C90.8012 67.4882 90.9026 65.3832 90.7233 64.2606C90.0957 60.3898 87.4723 57.552 83.2233 56.1526C81.8863 55.7121 80.444 55.4119 77.8713 55.0377C73.4976 54.4023 71.9189 53.9229 70.5078 52.8002C70.2038 52.5546 69.9348 52.3597 69.9114 52.3597C69.8841 52.3597 69.8646 52.8509 69.8646 53.4512Z" fill="white"/>
<path d="M74.0512 62.4168C74.1927 62.8967 74.3047 63.3849 74.3864 63.8786C74.9438 67.1763 73.2014 69.8387 69.8178 70.8678C69.4592 70.977 68.0442 71.2537 66.6799 71.4798C63.9122 71.9359 62.6766 72.2594 61.437 72.8558C60.5599 73.2768 59.4918 73.9083 59.5542 73.9707C59.7088 73.9634 59.8608 73.9277 60.0025 73.8654C61.5656 73.3197 63.308 73.0352 65.9548 72.8987C67.0034 72.8441 68.1962 72.7584 68.6055 72.7077C70.9639 72.4115 72.5972 71.702 73.868 70.4156C74.532 69.7669 75.0341 68.9711 75.3336 68.0924C75.5519 67.4999 75.5831 67.2777 75.5831 66.2213C75.5831 65.1454 75.5597 64.9505 75.3258 64.2879C75.0218 63.4186 74.6593 62.7676 74.2032 62.2609L73.8718 61.8905L74.0512 62.4168Z" fill="white"/>
<path d="M77.575 69.5074C76.6511 67.5349 76.4367 65.6288 76.9435 63.8512C76.9981 63.6563 77.0838 63.5043 77.1384 63.5043C77.1891 63.5043 77.4113 63.6213 77.6218 63.7655C78.0505 64.05 78.9003 64.5295 81.1768 65.7613C84.0146 67.301 85.6362 68.49 86.7355 69.8543C87.6983 71.0432 88.2947 72.4036 88.5832 74.0564C88.7469 74.992 88.6494 77.2528 88.4077 78.1962C87.6437 81.1743 85.874 83.5132 83.3402 84.8775C82.9699 85.0763 82.6386 85.24 82.5996 85.24C82.5645 85.24 82.701 84.9009 82.8998 84.4838C83.7534 82.7141 83.8509 80.995 83.2077 79.081C82.8101 77.9077 82.0071 76.4771 80.3855 74.0564C78.4988 71.2498 78.0389 70.4975 77.575 69.5074Z" fill="white"/>
<path d="M51.45 80.1608C54.0345 77.9935 57.2426 76.4576 60.17 75.9821C61.6779 75.7887 63.2074 75.848 64.6957 76.1575C66.5668 76.6331 68.243 77.7011 69.1122 78.968C69.962 80.2115 70.3284 81.2913 70.7105 83.7003C70.8586 84.6475 71.0223 85.6025 71.0691 85.8169C71.3536 87.0643 71.9111 88.0622 72.5971 88.5612C73.6886 89.3564 75.5753 89.4071 77.4269 88.6898C77.6192 88.6012 77.8223 88.5383 78.0311 88.5027C78.0973 88.569 77.1657 89.1888 76.5108 89.5162C75.7338 89.9294 74.8647 90.1386 73.9848 90.1243C72.2892 90.1243 70.882 89.2667 69.7048 87.5204C69.273 86.781 68.8877 86.0155 68.5509 85.2283C67.3113 82.4178 66.6993 81.5641 65.2609 80.6247C64.0058 79.8061 62.3881 79.6619 61.1719 80.2544C59.5736 81.034 59.1293 83.061 60.2753 84.3474C60.8107 84.9001 61.5111 85.264 62.2711 85.3842C62.573 85.4256 62.8802 85.4016 63.172 85.3138C63.4637 85.2259 63.7332 85.0764 63.9621 84.8753C64.1909 84.6741 64.3738 84.4261 64.4984 84.148C64.623 83.87 64.6863 83.5684 64.684 83.2637C64.684 82.4178 64.3566 81.9383 63.5341 81.5641C62.4075 81.0613 61.203 81.6499 61.2069 82.6985C61.2069 83.1467 61.4057 83.4274 61.8579 83.634C62.1464 83.7626 62.1542 83.7704 61.9164 83.7237C60.8873 83.5093 60.6456 82.2736 61.472 81.455C62.4699 80.4727 64.5281 80.9053 65.2337 82.2502C65.5299 82.8154 65.565 83.9381 65.3077 84.6163C64.723 86.1366 63.039 86.9357 61.3239 86.4991C60.1545 86.2028 59.6828 85.8832 58.2756 84.4448C55.8315 81.9422 54.8842 81.455 51.3604 80.9092L50.6821 80.804L51.45 80.1608Z" fill="white"/>
<defs>
<filter id="filter0_f_34_1198" x="10.5334" y="4.9282" width="108.995" height="122.144" filterUnits="userSpaceOnUse" color-interpolation-filters="sRGB">
<feFlood flood-opacity="0" result="BackgroundImageFix"/>
<feBlend mode="normal" in="SourceGraphic" in2="BackgroundImageFix" result="shape"/>
<feGaussianBlur stdDeviation="3" result="effect1_foregroundBlur_34_1198"/>
</filter>
<filter id="filter1_f_34_1198" x="0.667236" y="0.928204" width="128.727" height="142.144" filterUnits="userSpaceOnUse" color-interpolation-filters="sRGB">
<feFlood flood-opacity="0" result="BackgroundImageFix"/>
<feBlend mode="normal" in="SourceGraphic" in2="BackgroundImageFix" result="shape"/>
<feGaussianBlur stdDeviation="7.5" result="effect1_foregroundBlur_34_1198"/>
</filter>
<linearGradient id="paint0_linear_34_1198" x1="65.0309" y1="2.9282" x2="65.0309" y2="121.072" gradientUnits="userSpaceOnUse">
<stop stop-color="#E05CB4"/>
<stop offset="1" stop-color="#D831A0"/>
</linearGradient>
</defs>
</svg>
