<svg width="130" height="144" viewBox="0 0 130 144" fill="none" xmlns="http://www.w3.org/2000/svg">
<g opacity="0.3" filter="url(#filter0_f_34_1383)">
<path d="M61.9693 11.7321C63.8258 10.6603 66.1129 10.6603 67.9693 11.7321L110.467 36.268C112.323 37.3398 113.467 39.3205 113.467 41.4641V90.5359C113.467 92.6795 112.323 94.6603 110.467 95.7321L67.9693 120.268C66.1129 121.34 63.8258 121.34 61.9693 120.268L19.4719 95.7321C17.6155 94.6603 16.4719 92.6795 16.4719 90.5359V41.4641C16.4719 39.3205 17.6155 37.3398 19.4719 36.268L61.9693 11.7321Z" fill="#194327"/>
</g>
<g opacity="0.4" filter="url(#filter1_f_34_1383)">
<path d="M61.9692 16.7321C63.8256 15.6603 66.1128 15.6603 67.9692 16.7321L111.333 41.768C113.189 42.8398 114.333 44.8205 114.333 46.9641V97.0359C114.333 99.1795 113.189 101.16 111.333 102.232L67.9692 127.268C66.1128 128.34 63.8256 128.34 61.9692 127.268L18.6057 102.232C16.7493 101.16 15.6057 99.1795 15.6057 97.0359V46.9641C15.6057 44.8205 16.7493 42.8398 18.6057 41.768L61.9692 16.7321Z" fill="#194327"/>
</g>
<path d="M61.9693 3.73205C63.8257 2.66026 66.1129 2.66026 67.9693 3.73205L113.931 30.268C115.787 31.3398 116.931 33.3205 116.931 35.4641V88.5359C116.931 90.6795 115.787 92.6603 113.931 93.7321L67.9693 120.268C66.1129 121.34 63.8257 121.34 61.9693 120.268L16.0078 93.7321C14.1514 92.6603 13.0078 90.6795 13.0078 88.5359V35.4641C13.0078 33.3205 14.1514 31.3398 16.0078 30.268L61.9693 3.73205Z" fill="url(#paint0_linear_34_1383)"/>
<path fill-rule="evenodd" clip-rule="evenodd" d="M70.3102 63.6202C70.0119 63.6426 68.4707 63.7346 65.0326 63.7346C62.2981 63.7346 60.3566 63.6525 59.6755 63.6202C49.1079 63.1554 41.2201 61.3158 41.2201 59.1133C41.2201 56.9107 49.1079 55.0736 59.6755 54.6013V61.7881C60.3666 61.8378 62.3454 61.9547 65.0799 61.9547C68.3613 61.9547 70.0045 61.8179 70.3003 61.7906V54.6063C80.8455 55.0761 88.7159 56.9157 88.7159 59.1133C88.7159 61.3108 80.848 63.1504 70.3003 63.6177L70.3102 63.6202ZM70.3102 53.863V47.4319H85.0268V37.625H44.9589V47.4319H59.673V53.8605C47.7133 54.4099 38.7192 56.779 38.7192 59.6179C38.7192 62.4568 47.7133 64.8234 59.673 65.3753V85.9835H70.3077V65.3678C82.2401 64.8184 91.2192 62.4518 91.2192 59.6154C91.2192 56.779 82.2476 54.4124 70.3077 53.8605L70.3102 53.863Z" fill="white"/>
<defs>
<filter id="filter0_f_34_1383" x="10.4719" y="4.92821" width="108.995" height="122.144" filterUnits="userSpaceOnUse" color-interpolation-filters="sRGB">
<feFlood flood-opacity="0" result="BackgroundImageFix"/>
<feBlend mode="normal" in="SourceGraphic" in2="BackgroundImageFix" result="shape"/>
<feGaussianBlur stdDeviation="3" result="effect1_foregroundBlur_34_1383"/>
</filter>
<filter id="filter1_f_34_1383" x="0.605713" y="0.928207" width="128.727" height="142.144" filterUnits="userSpaceOnUse" color-interpolation-filters="sRGB">
<feFlood flood-opacity="0" result="BackgroundImageFix"/>
<feBlend mode="normal" in="SourceGraphic" in2="BackgroundImageFix" result="shape"/>
<feGaussianBlur stdDeviation="7.5" result="effect1_foregroundBlur_34_1383"/>
</filter>
<linearGradient id="paint0_linear_34_1383" x1="64.9693" y1="2.92821" x2="64.9693" y2="121.072" gradientUnits="userSpaceOnUse">
<stop stop-color="#3FA862"/>
<stop offset="1" stop-color="#348D52"/>
</linearGradient>
</defs>
</svg>
