<svg width="232" height="255" viewBox="0 0 232 255" fill="none" xmlns="http://www.w3.org/2000/svg">
<g opacity="0.3" filter="url(#filter0_f_34_1159)">
<path d="M112.729 11.7321C114.585 10.6603 116.872 10.6603 118.729 11.7321L209.29 64.0179C211.147 65.0897 212.29 67.0705 212.29 69.2141V173.786C212.29 175.929 211.147 177.91 209.29 178.982L118.729 231.268C116.872 232.34 114.585 232.34 112.729 231.268L22.1668 178.982C20.3103 177.91 19.1667 175.929 19.1667 173.786V69.2141C19.1667 67.0705 20.3103 65.0897 22.1667 64.0179L112.729 11.7321Z" fill="#6B3D0F"/>
</g>
<g opacity="0.4" filter="url(#filter1_f_34_1159)">
<path d="M112.729 16.7321C114.585 15.6603 116.872 15.6603 118.729 16.7321L210.156 69.5179C212.013 70.5897 213.156 72.5705 213.156 74.7141V180.286C213.156 182.429 212.013 184.41 210.156 185.482L118.729 238.268C116.872 239.34 114.585 239.34 112.729 238.268L21.3008 185.482C19.4444 184.41 18.3008 182.429 18.3008 180.286V74.7141C18.3008 72.5705 19.4444 70.5897 21.3008 69.5179L112.729 16.7321Z" fill="#6B3D0F"/>
</g>
<path d="M112.729 3.73205C114.585 2.66025 116.872 2.66025 118.729 3.73205L212.755 58.0179C214.611 59.0897 215.755 61.0705 215.755 63.2141V171.786C215.755 173.929 214.611 175.91 212.755 176.982L118.729 231.268C116.872 232.34 114.585 232.34 112.729 231.268L18.7026 176.982C16.8462 175.91 15.7026 173.929 15.7026 171.786V63.2141C15.7026 61.0705 16.8462 59.0897 18.7026 58.0179L112.729 3.73205Z" fill="url(#paint0_linear_34_1159)"/>
<path d="M154.324 107.108C156.029 95.7065 147.349 89.5777 135.479 85.4893L139.33 70.0449L129.928 67.7022L126.18 82.74C123.708 82.1236 121.17 81.5427 118.647 80.9669L122.423 65.8299L113.027 63.4873L109.174 78.9266C107.129 78.461 105.12 78.0007 103.171 77.5158L103.182 77.4672L90.2173 74.2297L87.7164 84.271C87.7164 84.271 94.6915 85.8699 94.5445 85.9683C98.3516 86.9185 99.0401 89.4387 98.9257 91.4363L94.5395 109.031C94.8017 109.098 95.1417 109.194 95.5169 109.345C95.2033 109.267 94.8695 109.182 94.5232 109.099L88.3751 133.747C87.9099 134.903 86.7289 136.639 84.0672 135.98C84.1614 136.117 77.2341 134.275 77.2341 134.275L72.5664 145.036L84.8009 148.086C87.0769 148.657 89.3073 149.254 91.5038 149.816L87.6134 165.437L97.004 167.78L100.857 152.324C103.422 153.021 105.912 153.663 108.349 154.269L104.509 169.652L113.911 171.994L117.801 156.402C133.833 159.436 145.887 158.213 150.961 143.712C155.049 132.038 150.757 125.304 142.323 120.913C148.466 119.496 153.09 115.454 154.324 107.108ZM132.844 137.229C129.938 148.903 110.282 142.592 103.909 141.01L109.071 120.314C115.444 121.905 135.88 125.053 132.844 137.229ZM135.751 106.939C133.101 117.558 116.74 112.163 111.433 110.84L116.114 92.0703C121.421 93.3932 138.511 95.8623 135.751 106.939Z" fill="white"/>
<defs>
<filter id="filter0_f_34_1159" x="13.1667" y="4.9282" width="205.124" height="233.144" filterUnits="userSpaceOnUse" color-interpolation-filters="sRGB">
<feFlood flood-opacity="0" result="BackgroundImageFix"/>
<feBlend mode="normal" in="SourceGraphic" in2="BackgroundImageFix" result="shape"/>
<feGaussianBlur stdDeviation="3" result="effect1_foregroundBlur_34_1159"/>
</filter>
<filter id="filter1_f_34_1159" x="3.30078" y="0.928205" width="224.856" height="253.144" filterUnits="userSpaceOnUse" color-interpolation-filters="sRGB">
<feFlood flood-opacity="0" result="BackgroundImageFix"/>
<feBlend mode="normal" in="SourceGraphic" in2="BackgroundImageFix" result="shape"/>
<feGaussianBlur stdDeviation="7.5" result="effect1_foregroundBlur_34_1159"/>
</filter>
<linearGradient id="paint0_linear_34_1159" x1="115.729" y1="2.9282" x2="115.729" y2="232.072" gradientUnits="userSpaceOnUse">
<stop stop-color="#F4BA45"/>
<stop offset="1" stop-color="#F19C3B"/>
</linearGradient>
</defs>
</svg>
