<svg width="130" height="144" viewBox="0 0 130 144" fill="none" xmlns="http://www.w3.org/2000/svg">
<g opacity="0.3" filter="url(#filter0_f_34_1243)">
<path d="M61.9693 11.7321C63.8258 10.6603 66.1129 10.6603 67.9693 11.7321L110.467 36.268C112.323 37.3398 113.467 39.3205 113.467 41.4641V90.5359C113.467 92.6795 112.323 94.6603 110.467 95.7321L67.9693 120.268C66.1129 121.34 63.8258 121.34 61.9693 120.268L19.4719 95.7321C17.6155 94.6603 16.4719 92.6795 16.4719 90.5359V41.4641C16.4719 39.3205 17.6155 37.3398 19.4719 36.268L61.9693 11.7321Z" fill="#6B3D0F"/>
</g>
<g opacity="0.4" filter="url(#filter1_f_34_1243)">
<path d="M61.9692 16.7321C63.8256 15.6603 66.1128 15.6603 67.9692 16.7321L111.333 41.768C113.189 42.8398 114.333 44.8205 114.333 46.9641V97.0359C114.333 99.1795 113.189 101.16 111.333 102.232L67.9692 127.268C66.1128 128.34 63.8256 128.34 61.9692 127.268L18.6057 102.232C16.7493 101.16 15.6057 99.1795 15.6057 97.0359V46.9641C15.6057 44.8205 16.7493 42.8398 18.6057 41.768L61.9692 16.7321Z" fill="#6B3D0F"/>
</g>
<path d="M61.9693 3.73205C63.8257 2.66026 66.1129 2.66026 67.9693 3.73205L113.931 30.268C115.787 31.3398 116.931 33.3205 116.931 35.4641V88.5359C116.931 90.6795 115.787 92.6603 113.931 93.7321L67.9693 120.268C66.1129 121.34 63.8257 121.34 61.9693 120.268L16.0078 93.7321C14.1514 92.6603 13.0078 90.6795 13.0078 88.5359V35.4641C13.0078 33.3205 14.1514 31.3398 16.0078 30.268L61.9693 3.73205Z" fill="url(#paint0_linear_34_1243)"/>
<path fill-rule="evenodd" clip-rule="evenodd" d="M46.693 88.2153H63.9942C63.9942 88.2153 88.3215 90.2869 88.3215 62.4222C88.3215 35.6378 66.1066 35.7328 61.8131 35.7511C61.7126 35.7516 61.6219 35.752 61.5415 35.752H46.6925V59.1221H40.5942V64.8466H46.693V88.2153ZM56.4379 45.4493H63.2637C65.8168 45.4493 78.6612 46.4933 78.6817 62.6111C78.702 78.5368 65.752 78.5204 63.6687 78.5177C63.6436 78.5177 63.6201 78.5177 63.5982 78.5177H56.4379V64.8462H67.1769V59.1217H56.4379V45.4493Z" fill="white"/>
<defs>
<filter id="filter0_f_34_1243" x="10.4719" y="4.92821" width="108.995" height="122.144" filterUnits="userSpaceOnUse" color-interpolation-filters="sRGB">
<feFlood flood-opacity="0" result="BackgroundImageFix"/>
<feBlend mode="normal" in="SourceGraphic" in2="BackgroundImageFix" result="shape"/>
<feGaussianBlur stdDeviation="3" result="effect1_foregroundBlur_34_1243"/>
</filter>
<filter id="filter1_f_34_1243" x="0.605713" y="0.928207" width="128.727" height="142.144" filterUnits="userSpaceOnUse" color-interpolation-filters="sRGB">
<feFlood flood-opacity="0" result="BackgroundImageFix"/>
<feBlend mode="normal" in="SourceGraphic" in2="BackgroundImageFix" result="shape"/>
<feGaussianBlur stdDeviation="7.5" result="effect1_foregroundBlur_34_1243"/>
</filter>
<linearGradient id="paint0_linear_34_1243" x1="64.9693" y1="2.92821" x2="64.9693" y2="121.072" gradientUnits="userSpaceOnUse">
<stop stop-color="#C28457"/>
<stop offset="1" stop-color="#965E36"/>
</linearGradient>
</defs>
</svg>
