<svg width="130" height="144" viewBox="0 0 130 144" fill="none" xmlns="http://www.w3.org/2000/svg">
<g opacity="0.3" filter="url(#filter0_f_34_1313)">
<path d="M61.9693 11.7321C63.8258 10.6603 66.1129 10.6603 67.9693 11.7321L110.467 36.268C112.323 37.3398 113.467 39.3205 113.467 41.4641V90.5359C113.467 92.6795 112.323 94.6603 110.467 95.7321L67.9693 120.268C66.1129 121.34 63.8258 121.34 61.9693 120.268L19.4719 95.7321C17.6155 94.6603 16.4719 92.6795 16.4719 90.5359V41.4641C16.4719 39.3205 17.6155 37.3398 19.4719 36.268L61.9693 11.7321Z" fill="#0C378D"/>
</g>
<g opacity="0.4" filter="url(#filter1_f_34_1313)">
<path d="M61.9692 16.732C63.8256 15.6603 66.1128 15.6603 67.9692 16.732L111.333 41.7679C113.189 42.8397 114.333 44.8205 114.333 46.9641V97.0359C114.333 99.1795 113.189 101.16 111.333 102.232L67.9692 127.268C66.1128 128.34 63.8256 128.34 61.9692 127.268L18.6057 102.232C16.7493 101.16 15.6057 99.1795 15.6057 97.0359V46.9641C15.6057 44.8205 16.7493 42.8397 18.6057 41.7679L61.9692 16.732Z" fill="#0C378D"/>
</g>
<path d="M61.9693 3.73205C63.8257 2.66026 66.1129 2.66026 67.9693 3.73205L113.931 30.268C115.787 31.3398 116.931 33.3205 116.931 35.4641V88.5359C116.931 90.6795 115.787 92.6603 113.931 93.7321L67.9693 120.268C66.1129 121.34 63.8257 121.34 61.9693 120.268L16.0078 93.7321C14.1514 92.6603 13.0078 90.6795 13.0078 88.5359V35.4641C13.0078 33.3205 14.1514 31.3398 16.0078 30.268L61.9693 3.73205Z" fill="url(#paint0_linear_34_1313)"/>
<path d="M43.1535 53.8924C38.6343 65.8913 44.8675 79.4483 57.022 83.8112C57.4895 84.1231 57.957 84.7462 57.957 85.2136V87.3955C57.957 87.707 57.957 87.863 57.8011 88.0185C57.6455 88.642 57.022 88.9535 56.3986 88.642C47.6724 85.8371 40.9717 79.1364 38.1668 70.4102C33.492 55.6067 41.5951 39.8679 56.3986 35.1931C56.5546 35.0375 56.8661 35.0375 57.022 35.0375C57.6455 35.1931 57.957 35.6606 57.957 36.284V38.4654C57.957 39.2448 57.6455 39.7123 57.022 40.0238C50.6332 42.3613 45.4909 47.3476 43.1535 53.8924Z" fill="white"/>
<path d="M72.1374 35.8165C72.293 35.1931 72.9164 34.8815 73.5399 35.1931C82.1101 37.998 88.9668 44.6987 91.7717 53.5808C96.4465 68.3843 88.3433 84.1231 73.5399 88.7979C73.3839 88.9535 73.0724 88.9535 72.9164 88.9535C72.293 88.7979 71.9815 88.3304 71.9815 87.707V85.5256C71.9815 84.7462 72.293 84.2787 72.9164 83.9672C79.3052 81.6297 84.4475 76.6434 86.7849 70.0986C91.3042 58.0997 85.071 44.5427 72.9164 40.1798C72.449 39.8679 71.9815 39.2448 71.9815 38.6214V36.4399C71.9815 36.128 71.9815 35.9725 72.1374 35.8165Z" fill="white"/>
<path d="M65.4329 59.3455C71.9775 60.1245 75.2498 61.9945 75.2498 67.4483C75.2498 71.6557 72.1335 74.9281 67.4587 75.7075V79.4473C67.3028 80.2263 66.8353 80.6938 66.2119 80.6938H63.8745C63.0955 80.5379 62.628 80.0704 62.628 79.4473V75.7075C57.4858 74.9281 54.9924 72.1232 54.3694 68.2277V68.0718C54.3694 67.4483 54.8369 66.9808 55.4599 66.9808H58.1092C58.5767 66.9808 59.0441 67.2927 59.1997 67.9158C59.6672 70.2532 61.0696 71.9676 65.1213 71.9676C68.0818 71.9676 70.2636 70.2536 70.2636 67.7602C70.2636 65.2669 68.8611 64.3319 64.4979 63.5529C57.9532 62.7735 54.8369 60.748 54.8369 55.6057C54.8369 51.7098 57.7973 48.5934 62.4721 47.97V44.386C62.628 43.6067 63.0955 43.1392 63.7189 43.1392H66.0563C66.8353 43.2951 67.3028 43.7626 67.3028 44.386V48.1259C70.8866 48.4374 73.6915 51.0864 74.3149 54.5147V54.6707C74.3149 55.2937 73.8474 55.7612 73.224 55.7612H70.731C70.2636 55.7612 69.7961 55.4497 69.6401 54.9822C68.8611 52.6448 67.3028 51.7098 64.4979 51.7098C61.3815 51.7098 59.8232 53.1119 59.8232 55.2938C59.8232 57.4756 60.7581 58.7221 65.4329 59.3455Z" fill="white"/>
<defs>
<filter id="filter0_f_34_1313" x="10.4719" y="4.92821" width="108.995" height="122.144" filterUnits="userSpaceOnUse" color-interpolation-filters="sRGB">
<feFlood flood-opacity="0" result="BackgroundImageFix"/>
<feBlend mode="normal" in="SourceGraphic" in2="BackgroundImageFix" result="shape"/>
<feGaussianBlur stdDeviation="3" result="effect1_foregroundBlur_34_1313"/>
</filter>
<filter id="filter1_f_34_1313" x="0.605713" y="0.9282" width="128.727" height="142.144" filterUnits="userSpaceOnUse" color-interpolation-filters="sRGB">
<feFlood flood-opacity="0" result="BackgroundImageFix"/>
<feBlend mode="normal" in="SourceGraphic" in2="BackgroundImageFix" result="shape"/>
<feGaussianBlur stdDeviation="7.5" result="effect1_foregroundBlur_34_1313"/>
</filter>
<linearGradient id="paint0_linear_34_1313" x1="64.9693" y1="2.92821" x2="64.9693" y2="121.072" gradientUnits="userSpaceOnUse">
<stop stop-color="#4D83EF"/>
<stop offset="1" stop-color="#145CEB"/>
</linearGradient>
</defs>
</svg>
