<svg width="130" height="144" viewBox="0 0 130 144" fill="none" xmlns="http://www.w3.org/2000/svg">
<g opacity="0.3" filter="url(#filter0_f_34_1278)">
<path d="M62.0001 11.7321C63.8565 10.6603 66.1437 10.6603 68.0001 11.7321L110.498 36.268C112.354 37.3398 113.498 39.3205 113.498 41.4641V90.5359C113.498 92.6795 112.354 94.6603 110.498 95.7321L68.0001 120.268C66.1437 121.34 63.8565 121.34 62.0001 120.268L19.5027 95.7321C17.6463 94.6603 16.5027 92.6795 16.5027 90.5359V41.4641C16.5027 39.3205 17.6463 37.3398 19.5027 36.268L62.0001 11.7321Z" fill="#194327"/>
</g>
<g opacity="0.4" filter="url(#filter1_f_34_1278)">
<path d="M61.9999 16.732C63.8563 15.6603 66.1435 15.6603 67.9999 16.732L111.363 41.7679C113.22 42.8397 114.363 44.8205 114.363 46.9641V97.0359C114.363 99.1795 113.22 101.16 111.363 102.232L67.9999 127.268C66.1435 128.34 63.8563 128.34 61.9999 127.268L18.6365 102.232C16.7801 101.16 15.6365 99.1795 15.6365 97.0359V46.9641C15.6365 44.8205 16.7801 42.8397 18.6365 41.7679L61.9999 16.732Z" fill="#194327"/>
</g>
<path d="M62.0001 3.73205C63.8565 2.66026 66.1437 2.66026 68.0001 3.73205L113.962 30.268C115.818 31.3398 116.962 33.3205 116.962 35.4641V88.5359C116.962 90.6795 115.818 92.6603 113.962 93.7321L68.0001 120.268C66.1437 121.34 63.8565 121.34 62.0001 120.268L16.0386 93.7321C14.1822 92.6603 13.0386 90.6795 13.0386 88.5359V35.4641C13.0386 33.3205 14.1822 31.3398 16.0386 30.268L62.0001 3.73205Z" fill="url(#paint0_linear_34_1278)"/>
<path d="M93.0153 39.5H84.8855L72.0216 52.2255C70.1487 54.0713 67.6248 55.106 64.9953 55.106C62.3657 55.106 59.8418 54.0713 57.969 52.2255L45.1149 39.5H36.9785L53.904 56.2519C60.0355 62.3153 69.9693 62.3153 76.0964 56.2519L93.0153 39.5Z" fill="white"/>
<path d="M36.875 86.0819H45.0104L57.9786 73.2531C59.8515 71.4073 62.3754 70.3725 65.0049 70.3725C67.6345 70.3725 70.1584 71.4073 72.0312 73.2531L84.9951 86.0819H93.125L76.0962 69.2266C69.9647 63.1632 60.0309 63.1632 53.9038 69.2266L36.875 86.0819Z" fill="white"/>
<defs>
<filter id="filter0_f_34_1278" x="10.5027" y="4.92821" width="108.995" height="122.144" filterUnits="userSpaceOnUse" color-interpolation-filters="sRGB">
<feFlood flood-opacity="0" result="BackgroundImageFix"/>
<feBlend mode="normal" in="SourceGraphic" in2="BackgroundImageFix" result="shape"/>
<feGaussianBlur stdDeviation="3" result="effect1_foregroundBlur_34_1278"/>
</filter>
<filter id="filter1_f_34_1278" x="0.636475" y="0.9282" width="128.727" height="142.144" filterUnits="userSpaceOnUse" color-interpolation-filters="sRGB">
<feFlood flood-opacity="0" result="BackgroundImageFix"/>
<feBlend mode="normal" in="SourceGraphic" in2="BackgroundImageFix" result="shape"/>
<feGaussianBlur stdDeviation="7.5" result="effect1_foregroundBlur_34_1278"/>
</filter>
<linearGradient id="paint0_linear_34_1278" x1="65.0001" y1="2.92821" x2="65.0001" y2="121.072" gradientUnits="userSpaceOnUse">
<stop stop-color="#3FA862"/>
<stop offset="1" stop-color="#348D52"/>
</linearGradient>
</defs>
</svg>
