<svg width="152" height="155" viewBox="0 0 152 155" fill="none" xmlns="http://www.w3.org/2000/svg">
<rect width="152" height="155" fill="#0D1425"/>
<g clip-path="url(#clip0_331_2665)">
<g opacity="0.3" filter="url(#filter0_f_331_2665)">
<path d="M72.7264 30.2074C73.5372 29.7297 74.5357 29.7297 75.346 30.2074L114.886 53.5128C115.697 53.9905 116.196 54.8734 116.196 55.8288V102.44C116.196 103.395 115.697 104.278 114.886 104.756L75.346 128.061C74.5357 128.539 73.5372 128.539 72.7264 128.061L33.1865 104.756C32.376 104.278 31.8767 103.395 31.8767 102.44V55.8288C31.8767 54.8734 32.376 53.9905 33.1865 53.5128L72.7264 30.2074Z" fill="#6B3D0F"/>
</g>
<g opacity="0.4" filter="url(#filter1_f_331_2665)">
<path d="M72.7263 32.4362C73.5371 31.9584 74.5356 31.9584 75.346 32.4362L115.264 55.9644C116.075 56.4421 116.574 57.325 116.574 58.2805V105.337C116.574 106.293 116.075 107.175 115.264 107.653L75.346 131.181C74.5356 131.659 73.5371 131.659 72.7263 131.181L32.8084 107.653C31.9978 107.175 31.4985 106.293 31.4985 105.337V58.2805C31.4985 57.325 31.9978 56.4421 32.8084 55.9644L72.7263 32.4362Z" fill="#6B3D0F"/>
</g>
<path d="M74.3474 25.4829C75.1995 24.9956 76.2489 24.9956 77.1006 25.4829L120.246 50.1662C121.098 50.6535 121.622 51.5541 121.622 52.5288V101.895C121.622 102.87 121.098 103.77 120.246 104.258L77.1006 128.941C76.2489 129.429 75.1995 129.429 74.3474 128.941L31.2023 104.258C30.3504 103.77 29.8257 102.87 29.8257 101.895V52.5288C29.8257 51.5541 30.3504 50.6535 31.2023 50.1662L74.3474 25.4829Z" fill="url(#paint0_linear_331_2665)"/>
<path d="M86.7724 72.6122C79.5723 59.7973 58.8966 71.3573 69.6638 85.4272C64.8021 82.1508 58.104 69.8599 55.3296 64.1571C71.6455 41.6979 94.5011 54.9091 99.125 63.6946L86.7724 72.6122Z" fill="url(#paint1_linear_331_2665)"/>
<mask id="mask0_331_2665" style="mask-type:alpha" maskUnits="userSpaceOnUse" x="55" y="51" width="45" height="35">
<path d="M86.7724 72.6122C79.5723 59.7973 58.8966 71.3573 69.6638 85.4272C64.8021 82.1508 58.104 69.8599 55.3296 64.1571C71.6455 41.6979 94.5011 54.9091 99.125 63.6946L86.7724 72.6122Z" fill="url(#paint2_linear_331_2665)"/>
</mask>
<g mask="url(#mask0_331_2665)">
<g filter="url(#filter2_f_331_2665)">
<path d="M54.1151 65.7919C54.5031 64.8308 55.2014 63.7896 55.7445 63.1489C56.9083 64.9643 59.1861 68.5377 59.1584 68.595C59.0808 68.7552 58.4601 69.9832 58.1497 70.6773C56.7273 69.2357 53.9333 66.2423 54.1151 65.7919Z" fill="url(#paint3_linear_331_2665)" fill-opacity="0.4"/>
</g>
<g filter="url(#filter3_f_331_2665)">
<path d="M60.4194 76.672C60.9216 75.5447 60.8828 74.2426 61.3909 73.3944C63.012 75.4698 69.1015 81.1649 69.1278 81.2355C69.4702 82.4381 69.7292 84.7593 73.1889 89.2468C71.2265 87.6129 60.184 77.2003 60.4194 76.672Z" fill="url(#paint4_linear_331_2665)" fill-opacity="0.4"/>
</g>
</g>
<path d="M99.0588 91.9671L95.0294 88.9946C87.8953 100.753 65.5022 106.433 51.4321 78.8879C54.4047 109.802 89.943 109.406 99.0588 91.9671Z" fill="url(#paint5_linear_331_2665)"/>
<path d="M85.1209 64.091C76.7977 58.7404 63.1901 63.8929 61.5387 75.4527L57.9717 69.5737C63.5865 57.2873 78.6473 53.3238 89.4806 60.8542L91.9907 58.8725V68.1865L83.1392 65.6763L85.1209 64.091Z" fill="#F3AB40"/>
<path d="M90.8678 86.0221L86.8383 83.0496C75.1463 98.3086 63.2562 79.9449 55.3294 64.1575C54.3253 65.6371 53.1055 68.7374 52.6211 70.1025C64.0489 96.1948 81.752 99.2995 90.8678 86.0221Z" fill="url(#paint6_linear_331_2665)"/>
</g>
<defs>
<filter id="filter0_f_331_2665" x="29.7254" y="27.6978" width="88.6219" height="102.873" filterUnits="userSpaceOnUse" color-interpolation-filters="sRGB">
<feFlood flood-opacity="0" result="BackgroundImageFix"/>
<feBlend mode="normal" in="SourceGraphic" in2="BackgroundImageFix" result="shape"/>
<feGaussianBlur stdDeviation="1.07565" result="effect1_foregroundBlur_331_2665"/>
</filter>
<filter id="filter1_f_331_2665" x="26.1203" y="26.6996" width="95.8319" height="110.218" filterUnits="userSpaceOnUse" color-interpolation-filters="sRGB">
<feFlood flood-opacity="0" result="BackgroundImageFix"/>
<feBlend mode="normal" in="SourceGraphic" in2="BackgroundImageFix" result="shape"/>
<feGaussianBlur stdDeviation="2.68913" result="effect1_foregroundBlur_331_2665"/>
</filter>
<filter id="filter2_f_331_2665" x="53.5782" y="62.6205" width="6.1089" height="8.58522" filterUnits="userSpaceOnUse" color-interpolation-filters="sRGB">
<feFlood flood-opacity="0" result="BackgroundImageFix"/>
<feBlend mode="normal" in="SourceGraphic" in2="BackgroundImageFix" result="shape"/>
<feGaussianBlur stdDeviation="0.264226" result="effect1_foregroundBlur_331_2665"/>
</filter>
<filter id="filter3_f_331_2665" x="59.8873" y="72.8658" width="13.8301" height="16.9094" filterUnits="userSpaceOnUse" color-interpolation-filters="sRGB">
<feFlood flood-opacity="0" result="BackgroundImageFix"/>
<feBlend mode="normal" in="SourceGraphic" in2="BackgroundImageFix" result="shape"/>
<feGaussianBlur stdDeviation="0.264226" result="effect1_foregroundBlur_331_2665"/>
</filter>
<linearGradient id="paint0_linear_331_2665" x1="75.724" y1="25.1174" x2="75.724" y2="129.307" gradientUnits="userSpaceOnUse">
<stop stop-color="#F4BA45"/>
<stop offset="1" stop-color="#F19C3B"/>
</linearGradient>
<linearGradient id="paint1_linear_331_2665" x1="98.3323" y1="62.1093" x2="58.5664" y2="75.2546" gradientUnits="userSpaceOnUse">
<stop stop-color="white"/>
<stop offset="1" stop-color="#E2E2E2"/>
</linearGradient>
<linearGradient id="paint2_linear_331_2665" x1="98.3323" y1="62.1093" x2="58.5664" y2="75.2546" gradientUnits="userSpaceOnUse">
<stop stop-color="#E2E2E2"/>
<stop offset="1" stop-color="white"/>
</linearGradient>
<linearGradient id="paint3_linear_331_2665" x1="57.6842" y1="66.2724" x2="52.5544" y2="69.3307" gradientUnits="userSpaceOnUse">
<stop stop-opacity="0"/>
<stop offset="1"/>
</linearGradient>
<linearGradient id="paint4_linear_331_2665" x1="64.1065" y1="77.4322" x2="59.7985" y2="80.7102" gradientUnits="userSpaceOnUse">
<stop stop-opacity="0"/>
<stop offset="1"/>
</linearGradient>
<linearGradient id="paint5_linear_331_2665" x1="51.4322" y1="78.8994" x2="99.0789" y2="94.7982" gradientUnits="userSpaceOnUse">
<stop stop-color="white"/>
<stop offset="1" stop-color="#E2E2E2"/>
</linearGradient>
<linearGradient id="paint6_linear_331_2665" x1="53.3637" y1="63.0007" x2="91.4019" y2="90.2911" gradientUnits="userSpaceOnUse">
<stop stop-color="white"/>
<stop offset="1" stop-color="#E2E2E2"/>
</linearGradient>
<clipPath id="clip0_331_2665">
<rect width="92" height="105.849" fill="white" transform="translate(30 25)"/>
</clipPath>
</defs>
</svg>
