<svg width="24" height="24" viewBox="0 0 24 24" fill="none" xmlns="http://www.w3.org/2000/svg">
<g opacity="0.4">
<path d="M7.48438 9.34839H2.98438V4.84839" stroke="white" stroke-width="2" stroke-linecap="round" stroke-linejoin="round"/>
<path d="M17.8336 6.16637C17.0675 5.40029 16.1581 4.7926 15.1571 4.37799C14.1562 3.96339 13.0834 3.75 12 3.75C10.9166 3.75 9.84378 3.96339 8.84285 4.37799C7.84191 4.7926 6.93244 5.40029 6.16635 6.16637L2.98438 9.34835" stroke="white" stroke-width="1.5" stroke-linecap="round" stroke-linejoin="round"/>
<path d="M16.5156 14.6516H21.0156V19.1516" stroke="white" stroke-width="2" stroke-linecap="round" stroke-linejoin="round"/>
<path d="M6.16626 17.8337C6.93234 18.5997 7.84182 19.2074 8.84275 19.622C9.84369 20.0366 10.9165 20.25 11.9999 20.25C13.0833 20.25 14.1561 20.0366 15.157 19.622C16.158 19.2074 17.0674 18.5997 17.8335 17.8337L21.0155 14.6517" stroke="white" stroke-width="1.5" stroke-linecap="round" stroke-linejoin="round"/>
</g>
</svg>
