<svg width="140" height="45" viewBox="0 0 140 45" fill="none" xmlns="http://www.w3.org/2000/svg">
<g opacity="0.3" filter="url(#filter0_f_291_2548)">
<path d="M19.4412 2.07037C19.7614 1.88123 20.1557 1.88123 20.4757 2.07037L36.0898 11.2973C36.41 11.4864 36.6071 11.836 36.6071 12.2143V30.6681C36.6071 31.0465 36.41 31.3959 36.0898 31.5851L20.4757 40.812C20.1557 41.0012 19.7614 41.0012 19.4412 40.812L3.82716 31.5851C3.50709 31.3959 3.30992 31.0465 3.30992 30.6681V12.2143C3.30992 11.836 3.50709 11.4864 3.82716 11.2973L19.4412 2.07037Z" fill="#6B3D0F"/>
</g>
<g opacity="0.4" filter="url(#filter1_f_291_2548)">
<path d="M19.4412 2.95271C19.7614 2.76357 20.1557 2.76357 20.4757 2.95271L36.2392 12.2679C36.5594 12.457 36.7564 12.8065 36.7564 13.1848V31.8152C36.7564 32.1935 36.5594 32.5429 36.2392 32.7321L20.4757 42.0473C20.1557 42.2365 19.7614 42.2365 19.4412 42.0473L3.67789 32.7321C3.35782 32.5429 3.16064 32.1935 3.16064 31.8152V13.1848C3.16064 12.8065 3.35782 12.457 3.67789 12.2679L19.4412 2.95271Z" fill="#6B3D0F"/>
</g>
<path d="M20.0814 0.19996C20.4178 0.00701626 20.8323 0.00701626 21.1686 0.19996L38.2064 9.9724C38.5429 10.1653 38.75 10.5219 38.75 10.9078V30.4527C38.75 30.8386 38.5429 31.1951 38.2064 31.3881L21.1686 41.1605C20.8323 41.3535 20.4178 41.3535 20.0814 41.1605L3.04361 31.3881C2.70722 31.1951 2.5 30.8386 2.5 30.4527V10.9078C2.5 10.5219 2.70722 10.1653 3.04361 9.9724L20.0814 0.19996Z" fill="url(#paint0_linear_291_2548)"/>
<path d="M24.9149 18.7557C22.0799 13.7099 13.9391 18.2616 18.1786 23.8015C16.2643 22.5114 13.6269 17.672 12.5346 15.4265C18.9588 6.58341 27.958 11.7852 29.7787 15.2444L24.9149 18.7557Z" fill="url(#paint1_linear_291_2548)"/>
<mask id="mask0_291_2548" style="mask-type:alpha" maskUnits="userSpaceOnUse" x="12" y="10" width="18" height="14">
<path d="M24.9149 18.7557C22.0799 13.7099 13.9391 18.2616 18.1786 23.8015C16.2643 22.5114 13.6269 17.672 12.5346 15.4265C18.9588 6.58341 27.958 11.7852 29.7787 15.2444L24.9149 18.7557Z" fill="url(#paint2_linear_291_2548)"/>
</mask>
<g mask="url(#mask0_291_2548)">
<g filter="url(#filter2_f_291_2548)">
<path d="M12.0564 16.0702C12.2092 15.6918 12.4841 15.2819 12.6979 15.0296C13.1562 15.7444 14.0531 17.1514 14.0421 17.174C14.0116 17.237 13.7672 17.7205 13.645 17.9938C13.0849 17.4262 11.9848 16.2476 12.0564 16.0702Z" fill="url(#paint3_linear_291_2548)" fill-opacity="0.4"/>
</g>
<g filter="url(#filter3_f_291_2548)">
<path d="M14.5388 20.3541C14.7365 19.9102 14.7213 19.3976 14.9213 19.0636C15.5596 19.8808 17.9573 22.1232 17.9677 22.151C18.1025 22.6245 18.2045 23.5384 19.5667 25.3054C18.794 24.662 14.4461 20.5621 14.5388 20.3541Z" fill="url(#paint4_linear_291_2548)" fill-opacity="0.4"/>
</g>
</g>
<path d="M29.7527 26.3764L28.1661 25.206C25.3571 29.8356 16.54 32.0724 11 21.2266C12.1704 33.3989 26.1634 33.2429 29.7527 26.3764Z" fill="url(#paint5_linear_291_2548)"/>
<path d="M24.2647 15.4005C20.9875 13.2938 15.6296 15.3225 14.9794 19.8741L13.5749 17.5593C15.7857 12.7216 21.7158 11.161 25.9813 14.126L26.9697 13.3458V17.0131L23.4844 16.0247L24.2647 15.4005Z" fill="#F3AB40"/>
<path d="M26.5275 24.0356L24.941 22.8652C20.3373 28.8733 15.6557 21.6427 12.5346 15.4265C12.1392 16.0091 11.6589 17.2299 11.4682 17.7674C15.9678 28.041 22.9383 29.2635 26.5275 24.0356Z" fill="url(#paint6_linear_291_2548)"/>
<path d="M51.64 17.06C52.648 17.06 53.544 17.276 54.328 17.708C55.128 18.14 55.752 18.78 56.2 19.628C56.664 20.476 56.896 21.5 56.896 22.7V30.5H54.184V23.108C54.184 21.924 53.888 21.02 53.296 20.396C52.704 19.756 51.896 19.436 50.872 19.436C49.848 19.436 49.032 19.756 48.424 20.396C47.832 21.02 47.536 21.924 47.536 23.108V30.5H44.8V12.74H47.536V18.812C48 18.252 48.584 17.82 49.288 17.516C50.008 17.212 50.792 17.06 51.64 17.06ZM59.4739 23.828C59.4739 22.5 59.7459 21.324 60.2899 20.3C60.8499 19.276 61.6019 18.484 62.5459 17.924C63.5059 17.348 64.5619 17.06 65.7139 17.06C66.7539 17.06 67.6579 17.268 68.4259 17.684C69.2099 18.084 69.8339 18.588 70.2979 19.196V17.276H73.0579V30.5H70.2979V28.532C69.8339 29.156 69.2019 29.676 68.4019 30.092C67.6019 30.508 66.6899 30.716 65.6659 30.716C64.5299 30.716 63.4899 30.428 62.5459 29.852C61.6019 29.26 60.8499 28.444 60.2899 27.404C59.7459 26.348 59.4739 25.156 59.4739 23.828ZM70.2979 23.876C70.2979 22.964 70.1059 22.172 69.7219 21.5C69.3539 20.828 68.8659 20.316 68.2579 19.964C67.6499 19.612 66.9939 19.436 66.2899 19.436C65.5859 19.436 64.9299 19.612 64.3219 19.964C63.7139 20.3 63.2179 20.804 62.8339 21.476C62.4659 22.132 62.2819 22.916 62.2819 23.828C62.2819 24.74 62.4659 25.54 62.8339 26.228C63.2179 26.916 63.7139 27.444 64.3219 27.812C64.9459 28.164 65.6019 28.34 66.2899 28.34C66.9939 28.34 67.6499 28.164 68.2579 27.812C68.8659 27.46 69.3539 26.948 69.7219 26.276C70.1059 25.588 70.2979 24.788 70.2979 23.876ZM78.0436 15.524C77.5476 15.524 77.1316 15.356 76.7956 15.02C76.4596 14.684 76.2916 14.268 76.2916 13.772C76.2916 13.276 76.4596 12.86 76.7956 12.524C77.1316 12.188 77.5476 12.02 78.0436 12.02C78.5236 12.02 78.9316 12.188 79.2676 12.524C79.6036 12.86 79.7716 13.276 79.7716 13.772C79.7716 14.268 79.6036 14.684 79.2676 15.02C78.9316 15.356 78.5236 15.524 78.0436 15.524ZM79.3876 17.276V30.5H76.6516V17.276H79.3876ZM89.6517 17.06C90.6917 17.06 91.6197 17.276 92.4357 17.708C93.2677 18.14 93.9157 18.78 94.3797 19.628C94.8437 20.476 95.0757 21.5 95.0757 22.7V30.5H92.3637V23.108C92.3637 21.924 92.0677 21.02 91.4757 20.396C90.8837 19.756 90.0757 19.436 89.0517 19.436C88.0277 19.436 87.2117 19.756 86.6037 20.396C86.0117 21.02 85.7157 21.924 85.7157 23.108V30.5H82.9797V17.276H85.7157V18.788C86.1637 18.244 86.7317 17.82 87.4197 17.516C88.1237 17.212 88.8677 17.06 89.6517 17.06ZM103.894 17.06C104.918 17.06 105.822 17.268 106.606 17.684C107.406 18.084 108.03 18.588 108.478 19.196V17.276H111.238V30.716C111.238 31.932 110.982 33.012 110.47 33.956C109.958 34.916 109.214 35.668 108.238 36.212C107.278 36.756 106.126 37.028 104.782 37.028C102.99 37.028 101.502 36.604 100.318 35.756C99.1336 34.924 98.4616 33.788 98.3016 32.348H101.014C101.222 33.036 101.662 33.588 102.334 34.004C103.022 34.436 103.838 34.652 104.782 34.652C105.886 34.652 106.774 34.316 107.446 33.644C108.134 32.972 108.478 31.996 108.478 30.716V28.508C108.014 29.132 107.382 29.66 106.582 30.092C105.798 30.508 104.902 30.716 103.894 30.716C102.742 30.716 101.686 30.428 100.726 29.852C99.7816 29.26 99.0296 28.444 98.4696 27.404C97.9256 26.348 97.6536 25.156 97.6536 23.828C97.6536 22.5 97.9256 21.324 98.4696 20.3C99.0296 19.276 99.7816 18.484 100.726 17.924C101.686 17.348 102.742 17.06 103.894 17.06ZM108.478 23.876C108.478 22.964 108.286 22.172 107.902 21.5C107.534 20.828 107.046 20.316 106.438 19.964C105.83 19.612 105.174 19.436 104.47 19.436C103.766 19.436 103.11 19.612 102.502 19.964C101.894 20.3 101.398 20.804 101.014 21.476C100.646 22.132 100.462 22.916 100.462 23.828C100.462 24.74 100.646 25.54 101.014 26.228C101.398 26.916 101.894 27.444 102.502 27.812C103.126 28.164 103.782 28.34 104.47 28.34C105.174 28.34 105.83 28.164 106.438 27.812C107.046 27.46 107.534 26.948 107.902 26.276C108.286 25.588 108.478 24.788 108.478 23.876ZM126.951 23.564C126.951 24.06 126.919 24.508 126.855 24.908H116.751C116.831 25.964 117.223 26.812 117.927 27.452C118.631 28.092 119.495 28.412 120.519 28.412C121.991 28.412 123.031 27.796 123.639 26.564H126.591C126.191 27.78 125.463 28.78 124.407 29.564C123.367 30.332 122.071 30.716 120.519 30.716C119.255 30.716 118.119 30.436 117.111 29.876C116.119 29.3 115.335 28.5 114.759 27.476C114.199 26.436 113.919 25.236 113.919 23.876C113.919 22.516 114.191 21.324 114.735 20.3C115.295 19.26 116.071 18.46 117.063 17.9C118.071 17.34 119.223 17.06 120.519 17.06C121.767 17.06 122.879 17.332 123.855 17.876C124.831 18.42 125.591 19.188 126.135 20.18C126.679 21.156 126.951 22.284 126.951 23.564ZM124.095 22.7C124.079 21.692 123.719 20.884 123.015 20.276C122.311 19.668 121.439 19.364 120.399 19.364C119.455 19.364 118.647 19.668 117.975 20.276C117.303 20.868 116.903 21.676 116.775 22.7H124.095ZM135.308 23.804L139.58 30.5H136.484L133.628 26.012L130.94 30.5H128.084L132.356 23.996L128.084 17.276H131.18L134.036 21.764L136.724 17.276H139.58L135.308 23.804Z" fill="white"/>
<defs>
<filter id="filter0_f_291_2548" x="2.46286" y="1.08145" width="34.9913" height="40.7195" filterUnits="userSpaceOnUse" color-interpolation-filters="sRGB">
<feFlood flood-opacity="0" result="BackgroundImageFix"/>
<feBlend mode="normal" in="SourceGraphic" in2="BackgroundImageFix" result="shape"/>
<feGaussianBlur stdDeviation="0.423529" result="effect1_foregroundBlur_291_2548"/>
</filter>
<filter id="filter1_f_291_2548" x="1.043" y="0.693205" width="37.8311" height="43.6136" filterUnits="userSpaceOnUse" color-interpolation-filters="sRGB">
<feFlood flood-opacity="0" result="BackgroundImageFix"/>
<feBlend mode="normal" in="SourceGraphic" in2="BackgroundImageFix" result="shape"/>
<feGaussianBlur stdDeviation="1.05882" result="effect1_foregroundBlur_291_2548"/>
</filter>
<filter id="filter2_f_291_2548" x="11.845" y="14.8215" width="2.40531" height="3.3804" filterUnits="userSpaceOnUse" color-interpolation-filters="sRGB">
<feFlood flood-opacity="0" result="BackgroundImageFix"/>
<feBlend mode="normal" in="SourceGraphic" in2="BackgroundImageFix" result="shape"/>
<feGaussianBlur stdDeviation="0.104037" result="effect1_foregroundBlur_291_2548"/>
</filter>
<filter id="filter3_f_291_2548" x="14.3293" y="18.8555" width="5.44552" height="6.65794" filterUnits="userSpaceOnUse" color-interpolation-filters="sRGB">
<feFlood flood-opacity="0" result="BackgroundImageFix"/>
<feBlend mode="normal" in="SourceGraphic" in2="BackgroundImageFix" result="shape"/>
<feGaussianBlur stdDeviation="0.104037" result="effect1_foregroundBlur_291_2548"/>
</filter>
<linearGradient id="paint0_linear_291_2548" x1="20.625" y1="0.0552521" x2="20.625" y2="41.3053" gradientUnits="userSpaceOnUse">
<stop stop-color="#F4BA45"/>
<stop offset="1" stop-color="#F19C3B"/>
</linearGradient>
<linearGradient id="paint1_linear_291_2548" x1="29.4666" y1="14.6202" x2="13.809" y2="19.7961" gradientUnits="userSpaceOnUse">
<stop stop-color="white"/>
<stop offset="1" stop-color="#E2E2E2"/>
</linearGradient>
<linearGradient id="paint2_linear_291_2548" x1="29.4666" y1="14.6202" x2="13.809" y2="19.7961" gradientUnits="userSpaceOnUse">
<stop stop-color="#E2E2E2"/>
<stop offset="1" stop-color="white"/>
</linearGradient>
<linearGradient id="paint3_linear_291_2548" x1="13.4617" y1="16.2594" x2="11.4418" y2="17.4636" gradientUnits="userSpaceOnUse">
<stop stop-opacity="0"/>
<stop offset="1"/>
</linearGradient>
<linearGradient id="paint4_linear_291_2548" x1="15.9906" y1="20.6534" x2="14.2943" y2="21.9441" gradientUnits="userSpaceOnUse">
<stop stop-opacity="0"/>
<stop offset="1"/>
</linearGradient>
<linearGradient id="paint5_linear_291_2548" x1="11" y1="21.2311" x2="29.7606" y2="27.4911" gradientUnits="userSpaceOnUse">
<stop stop-color="white"/>
<stop offset="1" stop-color="#E2E2E2"/>
</linearGradient>
<linearGradient id="paint6_linear_291_2548" x1="11.7606" y1="14.9711" x2="26.7378" y2="25.7165" gradientUnits="userSpaceOnUse">
<stop stop-color="white"/>
<stop offset="1" stop-color="#E2E2E2"/>
</linearGradient>
</defs>
</svg>
