<svg width="238" height="26" viewBox="0 0 238 26" fill="none" xmlns="http://www.w3.org/2000/svg">
<path d="M0.888 10.624C0.888 8.99199 1.264 7.52799 2.016 6.23199C2.784 4.93599 3.816 3.92799 5.112 3.20799C6.424 2.47199 7.856 2.10399 9.408 2.10399C11.184 2.10399 12.76 2.54399 14.136 3.42399C15.528 4.28799 16.536 5.51999 17.16 7.11999H13.872C13.44 6.23999 12.84 5.58399 12.072 5.15199C11.304 4.71999 10.416 4.50399 9.408 4.50399C8.304 4.50399 7.32 4.75199 6.456 5.24799C5.592 5.74399 4.912 6.45599 4.416 7.38399C3.936 8.31199 3.696 9.39199 3.696 10.624C3.696 11.856 3.936 12.936 4.416 13.864C4.912 14.792 5.592 15.512 6.456 16.024C7.32 16.52 8.304 16.768 9.408 16.768C10.416 16.768 11.304 16.552 12.072 16.12C12.84 15.688 13.44 15.032 13.872 14.152H17.16C16.536 15.752 15.528 16.984 14.136 17.848C12.76 18.712 11.184 19.144 9.408 19.144C7.84 19.144 6.408 18.784 5.112 18.064C3.816 17.328 2.784 16.312 2.016 15.016C1.264 13.72 0.888 12.256 0.888 10.624Z" fill="white"/>
<path d="M27.2025 5.55999C28.2105 5.55999 29.1065 5.77599 29.8905 6.20799C30.6905 6.63999 31.3145 7.27999 31.7625 8.12799C32.2265 8.97599 32.4585 9.99999 32.4585 11.2V19H29.7465V11.608C29.7465 10.424 29.4505 9.51999 28.8585 8.89599C28.2665 8.25599 27.4585 7.93599 26.4345 7.93599C25.4105 7.93599 24.5945 8.25599 23.9865 8.89599C23.3945 9.51999 23.0985 10.424 23.0985 11.608V19H20.3625V1.23999H23.0985V7.31199C23.5625 6.75199 24.1465 6.31999 24.8505 6.01599C25.5705 5.71199 26.3545 5.55999 27.2025 5.55999Z" fill="white"/>
<path d="M35.0364 12.328C35.0364 11 35.3084 9.82399 35.8524 8.79999C36.4124 7.77599 37.1644 6.98399 38.1084 6.42399C39.0684 5.84799 40.1244 5.55999 41.2764 5.55999C42.3164 5.55999 43.2204 5.76799 43.9884 6.18399C44.7724 6.58399 45.3964 7.08799 45.8604 7.69599V5.77599H48.6204V19H45.8604V17.032C45.3964 17.656 44.7644 18.176 43.9644 18.592C43.1644 19.008 42.2524 19.216 41.2284 19.216C40.0924 19.216 39.0524 18.928 38.1084 18.352C37.1644 17.76 36.4124 16.944 35.8524 15.904C35.3084 14.848 35.0364 13.656 35.0364 12.328ZM45.8604 12.376C45.8604 11.464 45.6684 10.672 45.2844 9.99999C44.9164 9.32799 44.4284 8.81599 43.8204 8.46399C43.2124 8.11199 42.5564 7.93599 41.8524 7.93599C41.1484 7.93599 40.4924 8.11199 39.8844 8.46399C39.2764 8.79999 38.7804 9.30399 38.3964 9.97599C38.0284 10.632 37.8444 11.416 37.8444 12.328C37.8444 13.24 38.0284 14.04 38.3964 14.728C38.7804 15.416 39.2764 15.944 39.8844 16.312C40.5084 16.664 41.1644 16.84 41.8524 16.84C42.5564 16.84 43.2124 16.664 43.8204 16.312C44.4284 15.96 44.9164 15.448 45.2844 14.776C45.6684 14.088 45.8604 13.288 45.8604 12.376Z" fill="white"/>
<path d="M58.8861 5.55999C59.9261 5.55999 60.8541 5.77599 61.6701 6.20799C62.5021 6.63999 63.1501 7.27999 63.6141 8.12799C64.0781 8.97599 64.3101 9.99999 64.3101 11.2V19H61.5981V11.608C61.5981 10.424 61.3021 9.51999 60.7101 8.89599C60.1181 8.25599 59.3101 7.93599 58.2861 7.93599C57.2621 7.93599 56.4461 8.25599 55.8381 8.89599C55.2461 9.51999 54.9501 10.424 54.9501 11.608V19H52.2141V5.77599H54.9501V7.28799C55.3981 6.74399 55.9661 6.31999 56.6541 6.01599C57.3581 5.71199 58.1021 5.55999 58.8861 5.55999Z" fill="white"/>
<path d="M73.128 5.55999C74.152 5.55999 75.056 5.76799 75.84 6.18399C76.64 6.58399 77.264 7.08799 77.712 7.69599V5.77599H80.472V19.216C80.472 20.432 80.216 21.512 79.704 22.456C79.192 23.416 78.448 24.168 77.472 24.712C76.512 25.256 75.36 25.528 74.016 25.528C72.224 25.528 70.736 25.104 69.552 24.256C68.368 23.424 67.696 22.288 67.536 20.848H70.248C70.456 21.536 70.896 22.088 71.568 22.504C72.256 22.936 73.072 23.152 74.016 23.152C75.12 23.152 76.008 22.816 76.68 22.144C77.368 21.472 77.712 20.496 77.712 19.216V17.008C77.248 17.632 76.616 18.16 75.816 18.592C75.032 19.008 74.136 19.216 73.128 19.216C71.976 19.216 70.92 18.928 69.96 18.352C69.016 17.76 68.264 16.944 67.704 15.904C67.16 14.848 66.888 13.656 66.888 12.328C66.888 11 67.16 9.82399 67.704 8.79999C68.264 7.77599 69.016 6.98399 69.96 6.42399C70.92 5.84799 71.976 5.55999 73.128 5.55999ZM77.712 12.376C77.712 11.464 77.52 10.672 77.136 9.99999C76.768 9.32799 76.28 8.81599 75.672 8.46399C75.064 8.11199 74.408 7.93599 73.704 7.93599C73 7.93599 72.344 8.11199 71.736 8.46399C71.128 8.79999 70.632 9.30399 70.248 9.97599C69.88 10.632 69.696 11.416 69.696 12.328C69.696 13.24 69.88 14.04 70.248 14.728C70.632 15.416 71.128 15.944 71.736 16.312C72.36 16.664 73.016 16.84 73.704 16.84C74.408 16.84 75.064 16.664 75.672 16.312C76.28 15.96 76.768 15.448 77.136 14.776C77.52 14.088 77.712 13.288 77.712 12.376Z" fill="white"/>
<path d="M96.1856 12.064C96.1856 12.56 96.1536 13.008 96.0896 13.408H85.9856C86.0656 14.464 86.4576 15.312 87.1616 15.952C87.8656 16.592 88.7296 16.912 89.7536 16.912C91.2256 16.912 92.2656 16.296 92.8736 15.064H95.8256C95.4256 16.28 94.6976 17.28 93.6416 18.064C92.6016 18.832 91.3056 19.216 89.7536 19.216C88.4896 19.216 87.3536 18.936 86.3456 18.376C85.3536 17.8 84.5696 17 83.9936 15.976C83.4336 14.936 83.1536 13.736 83.1536 12.376C83.1536 11.016 83.4256 9.82399 83.9696 8.79999C84.5296 7.75999 85.3056 6.95999 86.2976 6.39999C87.3056 5.83999 88.4576 5.55999 89.7536 5.55999C91.0016 5.55999 92.1136 5.83199 93.0896 6.37599C94.0656 6.91999 94.8256 7.68799 95.3696 8.67999C95.9136 9.65599 96.1856 10.784 96.1856 12.064ZM93.3296 11.2C93.3136 10.192 92.9536 9.38399 92.2496 8.77599C91.5456 8.16799 90.6736 7.86399 89.6336 7.86399C88.6896 7.86399 87.8816 8.16799 87.2096 8.77599C86.5376 9.36799 86.1376 10.176 86.0096 11.2H93.3296Z" fill="white"/>
<path d="M104.201 12.376C104.201 11.016 104.473 9.82399 105.017 8.79999C105.577 7.75999 106.345 6.95999 107.321 6.39999C108.297 5.83999 109.417 5.55999 110.681 5.55999C112.281 5.55999 113.601 5.94399 114.641 6.71199C115.697 7.46399 116.409 8.54399 116.777 9.95199H113.825C113.585 9.29599 113.201 8.78399 112.673 8.41599C112.145 8.04799 111.481 7.86399 110.681 7.86399C109.561 7.86399 108.665 8.26399 107.993 9.06399C107.337 9.84799 107.008 10.952 107.008 12.376C107.008 13.8 107.337 14.912 107.993 15.712C108.665 16.512 109.561 16.912 110.681 16.912C112.265 16.912 113.313 16.216 113.825 14.824H116.777C116.393 16.168 115.673 17.24 114.617 18.04C113.561 18.824 112.249 19.216 110.681 19.216C109.417 19.216 108.297 18.936 107.321 18.376C106.345 17.8 105.577 17 105.017 15.976C104.473 14.936 104.201 13.736 104.201 12.376Z" fill="white"/>
<path d="M122.239 7.69599C122.639 7.02399 123.167 6.50399 123.823 6.13599C124.495 5.75199 125.287 5.55999 126.199 5.55999V8.39199H125.503C124.431 8.39199 123.615 8.66399 123.055 9.20799C122.511 9.75199 122.239 10.696 122.239 12.04V19H119.503V5.77599H122.239V7.69599Z" fill="white"/>
<path d="M140.618 5.77599L132.506 25.216H129.674L132.362 18.784L127.154 5.77599H130.202L133.922 15.856L137.786 5.77599H140.618Z" fill="white"/>
<path d="M145.419 7.71999C145.883 7.11199 146.515 6.59999 147.315 6.18399C148.115 5.76799 149.019 5.55999 150.027 5.55999C151.179 5.55999 152.227 5.84799 153.171 6.42399C154.131 6.98399 154.883 7.77599 155.427 8.79999C155.971 9.82399 156.243 11 156.243 12.328C156.243 13.656 155.971 14.848 155.427 15.904C154.883 16.944 154.131 17.76 153.171 18.352C152.227 18.928 151.179 19.216 150.027 19.216C149.019 19.216 148.123 19.016 147.339 18.616C146.555 18.2 145.915 17.688 145.419 17.08V25.288H142.683V5.77599H145.419V7.71999ZM153.459 12.328C153.459 11.416 153.267 10.632 152.883 9.97599C152.515 9.30399 152.019 8.79999 151.395 8.46399C150.787 8.11199 150.131 7.93599 149.427 7.93599C148.739 7.93599 148.083 8.11199 147.459 8.46399C146.851 8.81599 146.355 9.32799 145.971 9.99999C145.603 10.672 145.419 11.464 145.419 12.376C145.419 13.288 145.603 14.088 145.971 14.776C146.355 15.448 146.851 15.96 147.459 16.312C148.083 16.664 148.739 16.84 149.427 16.84C150.131 16.84 150.787 16.664 151.395 16.312C152.019 15.944 152.515 15.416 152.883 14.728C153.267 14.04 153.459 13.24 153.459 12.328Z" fill="white"/>
<path d="M162.14 8.00799V15.328C162.14 15.824 162.252 16.184 162.476 16.408C162.716 16.616 163.116 16.72 163.676 16.72H165.356V19H163.196C161.964 19 161.02 18.712 160.364 18.136C159.708 17.56 159.38 16.624 159.38 15.328V8.00799H157.82V5.77599H159.38V2.48799H162.14V5.77599H165.356V8.00799H162.14Z" fill="white"/>
<path d="M173.614 19.216C172.366 19.216 171.238 18.936 170.23 18.376C169.222 17.8 168.43 17 167.854 15.976C167.278 14.936 166.99 13.736 166.99 12.376C166.99 11.032 167.286 9.83999 167.878 8.79999C168.47 7.75999 169.278 6.95999 170.302 6.39999C171.326 5.83999 172.47 5.55999 173.734 5.55999C174.998 5.55999 176.142 5.83999 177.166 6.39999C178.19 6.95999 178.998 7.75999 179.59 8.79999C180.182 9.83999 180.478 11.032 180.478 12.376C180.478 13.72 180.174 14.912 179.566 15.952C178.958 16.992 178.126 17.8 177.07 18.376C176.03 18.936 174.878 19.216 173.614 19.216ZM173.614 16.84C174.318 16.84 174.974 16.672 175.582 16.336C176.206 16 176.71 15.496 177.094 14.824C177.478 14.152 177.67 13.336 177.67 12.376C177.67 11.416 177.486 10.608 177.118 9.95199C176.75 9.27999 176.262 8.77599 175.654 8.43999C175.046 8.10399 174.39 7.93599 173.686 7.93599C172.982 7.93599 172.326 8.10399 171.718 8.43999C171.126 8.77599 170.654 9.27999 170.302 9.95199C169.95 10.608 169.774 11.416 169.774 12.376C169.774 13.8 170.134 14.904 170.854 15.688C171.59 16.456 172.51 16.84 173.614 16.84Z" fill="white"/>
<path d="M188.505 12.376C188.505 11.016 188.777 9.82399 189.321 8.79999C189.881 7.75999 190.649 6.95999 191.625 6.39999C192.601 5.83999 193.721 5.55999 194.985 5.55999C196.585 5.55999 197.905 5.94399 198.945 6.71199C200.001 7.46399 200.713 8.54399 201.081 9.95199H198.129C197.889 9.29599 197.505 8.78399 196.977 8.41599C196.449 8.04799 195.785 7.86399 194.985 7.86399C193.865 7.86399 192.969 8.26399 192.297 9.06399C191.641 9.84799 191.313 10.952 191.313 12.376C191.313 13.8 191.641 14.912 192.297 15.712C192.969 16.512 193.865 16.912 194.985 16.912C196.569 16.912 197.617 16.216 198.129 14.824H201.081C200.697 16.168 199.977 17.24 198.921 18.04C197.865 18.824 196.553 19.216 194.985 19.216C193.721 19.216 192.601 18.936 191.625 18.376C190.649 17.8 189.881 17 189.321 15.976C188.777 14.936 188.505 13.736 188.505 12.376Z" fill="white"/>
<path d="M209.544 19.216C208.296 19.216 207.168 18.936 206.16 18.376C205.152 17.8 204.36 17 203.784 15.976C203.208 14.936 202.92 13.736 202.92 12.376C202.92 11.032 203.216 9.83999 203.808 8.79999C204.4 7.75999 205.208 6.95999 206.232 6.39999C207.256 5.83999 208.4 5.55999 209.664 5.55999C210.928 5.55999 212.072 5.83999 213.096 6.39999C214.12 6.95999 214.928 7.75999 215.52 8.79999C216.112 9.83999 216.408 11.032 216.408 12.376C216.408 13.72 216.104 14.912 215.496 15.952C214.888 16.992 214.056 17.8 213 18.376C211.96 18.936 210.808 19.216 209.544 19.216ZM209.544 16.84C210.248 16.84 210.904 16.672 211.512 16.336C212.136 16 212.64 15.496 213.024 14.824C213.408 14.152 213.6 13.336 213.6 12.376C213.6 11.416 213.416 10.608 213.048 9.95199C212.68 9.27999 212.192 8.77599 211.584 8.43999C210.976 8.10399 210.32 7.93599 209.616 7.93599C208.912 7.93599 208.256 8.10399 207.648 8.43999C207.056 8.77599 206.584 9.27999 206.232 9.95199C205.88 10.608 205.704 11.416 205.704 12.376C205.704 13.8 206.064 14.904 206.784 15.688C207.52 16.456 208.44 16.84 209.544 16.84Z" fill="white"/>
<path d="M220.505 4.02399C220.009 4.02399 219.593 3.85599 219.257 3.51999C218.921 3.18399 218.753 2.76799 218.753 2.27199C218.753 1.77599 218.921 1.35999 219.257 1.02399C219.593 0.68799 220.009 0.519989 220.505 0.519989C220.985 0.519989 221.393 0.68799 221.729 1.02399C222.065 1.35999 222.232 1.77599 222.232 2.27199C222.232 2.76799 222.065 3.18399 221.729 3.51999C221.393 3.85599 220.985 4.02399 220.505 4.02399ZM221.848 5.77599V19H219.113V5.77599H221.848Z" fill="white"/>
<path d="M232.113 5.55999C233.153 5.55999 234.081 5.77599 234.897 6.20799C235.729 6.63999 236.377 7.27999 236.841 8.12799C237.305 8.97599 237.537 9.99999 237.537 11.2V19H234.825V11.608C234.825 10.424 234.529 9.51999 233.937 8.89599C233.345 8.25599 232.537 7.93599 231.513 7.93599C230.489 7.93599 229.673 8.25599 229.065 8.89599C228.473 9.51999 228.177 10.424 228.177 11.608V19H225.441V5.77599H228.177V7.28799C228.625 6.74399 229.193 6.31999 229.881 6.01599C230.585 5.71199 231.329 5.55999 232.113 5.55999Z" fill="white"/>
</svg>
