<svg width="158" height="164" viewBox="0 0 158 164" fill="none" xmlns="http://www.w3.org/2000/svg">
<g opacity="0.3" filter="url(#filter0_f_302_1626)">
<path d="M69.9999 33.1962C75.5691 29.9808 82.4307 29.9808 87.9999 33.1962L101.177 40.8039C106.746 44.0193 110.177 49.9616 110.177 56.3924V71.6078C110.177 78.0385 106.746 83.9808 101.177 87.1962L87.9999 94.8039C82.4307 98.0193 75.5691 98.0193 69.9999 94.8039L56.823 87.1962C51.2538 83.9808 47.823 78.0385 47.823 71.6078V56.3924C47.823 49.9616 51.2538 44.0193 56.823 40.8039L69.9999 33.1962Z" fill="#093867"/>
</g>
<g opacity="0.4" filter="url(#filter1_f_302_1626)">
<path d="M70.0001 48.1962C75.5693 44.9808 82.4309 44.9808 88.0001 48.1962L103.775 57.3039C109.344 60.5193 112.775 66.4616 112.775 72.8924V91.1078C112.775 97.5385 109.344 103.481 103.775 106.696L88.0001 115.804C82.4309 119.019 75.5693 119.019 70.0001 115.804L54.2251 106.696C48.6559 103.481 45.2251 97.5385 45.2251 91.1078V72.8924C45.2251 66.4616 48.6559 60.5193 54.2251 57.3039L70.0001 48.1962Z" fill="#093867"/>
</g>
<path d="M69.9999 9.19621C75.5691 5.98082 82.4307 5.98082 87.9999 9.19621L111.569 22.8039C117.138 26.0193 120.569 31.9616 120.569 38.3924V65.6078C120.569 72.0385 117.138 77.9808 111.569 81.1962L87.9999 94.8039C82.4307 98.0193 75.5691 98.0193 69.9999 94.8039L46.4307 81.1962C40.8614 77.9808 37.4307 72.0385 37.4307 65.6078V38.3924C37.4307 31.9616 40.8614 26.0193 46.4307 22.8039L69.9999 9.19621Z" fill="url(#paint0_linear_302_1626)"/>
<path d="M78.4479 31.123C79.4288 30.6116 80.6259 31.798 80.1039 32.778C79.8014 33.5766 78.6539 33.789 78.0678 33.1803C77.4475 32.5958 77.65 31.4409 78.4479 31.123ZM67.8986 32.2599C68.4945 32.0146 69.2487 32.5605 69.1878 33.21C69.251 33.9148 68.3892 34.434 67.7818 34.0988C66.9772 33.7872 67.0692 32.481 67.8986 32.2601V32.2599ZM89.5047 34.1186C88.5735 34.0061 88.4263 32.5423 89.3227 32.2466C90.018 31.9075 90.6558 32.5434 90.7575 33.2024C90.6117 33.7651 90.1404 34.2804 89.5047 34.1177V34.1186ZM70.2986 36.7491C71.2947 36.1191 72.716 37.0573 72.5628 38.2143C72.5112 39.3825 70.9594 40.0593 70.084 39.2695C69.238 38.6492 69.3658 37.2259 70.2986 36.7495V36.7491ZM85.5043 37.418C85.9491 36.2739 87.7498 36.2379 88.2556 37.3539C88.7555 38.2215 88.1406 39.2959 87.25 39.5908C86.0701 39.8111 84.9494 38.5356 85.5049 37.4189L85.5043 37.418ZM77.1775 39.5254C77.1678 38.541 78.0644 37.8075 79 37.7406C79.6205 37.8649 80.2969 38.1294 80.5631 38.7556C81.0592 39.6196 80.6187 40.8087 79.7223 41.2052C79.3125 41.4349 78.8277 41.3492 78.3813 41.322C77.699 40.9871 77.1242 40.3301 77.1777 39.5256L77.1775 39.5254ZM61.4894 40.9597C62.3993 40.4003 63.6269 41.4212 63.2824 42.4096C63.0926 43.2646 61.9433 43.6124 61.2863 43.0666C60.5843 42.5552 60.6961 41.3255 61.4894 40.9597ZM95.1775 40.9579C95.9496 40.3585 97.2234 41.0461 97.1315 42.0199C97.1833 42.9087 96.0819 43.5789 95.3154 43.1213C94.4714 42.7421 94.3854 41.4435 95.1775 40.957V40.9579ZM81.5893 42.7266C82.8632 42.269 84.3764 42.8166 85.1026 43.9524C86.0603 45.3409 85.5508 47.4554 84.0643 48.2521C82.5242 49.1944 80.2753 48.3961 79.7065 46.6758C79.0607 45.1361 80.0015 43.2092 81.5893 42.7266ZM74.1148 42.879C75.5267 42.213 77.4268 42.771 78.1088 44.2159C78.9114 45.6217 78.2908 47.5792 76.856 48.305C75.4194 49.1209 73.3926 48.503 72.698 46.9929C71.9177 45.5335 72.61 43.5512 74.1148 42.879ZM66.6305 45.4377C66.7385 44.528 67.5961 43.9362 68.4619 43.8748C69.3948 43.9873 70.14 44.7118 70.2414 45.6568C70.1802 46.5914 69.4578 47.5051 68.4675 47.4993C67.3777 47.5931 66.4225 46.5093 66.6305 45.4385V45.4377ZM88.7364 44.0733C89.8551 43.4221 91.4085 44.3702 91.3588 45.6554C91.4355 47.0171 89.7163 47.9774 88.6023 47.178C87.4451 46.5129 87.5353 44.64 88.7364 44.0735V44.0733ZM71.073 48.872C72.3814 48.512 73.8774 49.1287 74.5191 50.3312C75.2211 51.5417 74.9347 53.2233 73.843 54.1112C72.4428 55.4135 69.8605 54.8906 69.1153 53.1133C68.259 51.4841 69.2991 49.3007 71.073 48.8718V48.872ZM85.25 48.8651C86.5219 48.5014 88.016 48.9911 88.6999 50.1503C89.604 51.4757 89.1724 53.4523 87.8265 54.3065C86.4166 55.2985 84.2328 54.7776 83.457 53.2265C82.5165 51.622 83.4629 49.3546 85.25 48.8651ZM62.6576 50.3771C63.7878 49.9496 65.0406 51.1969 64.5827 52.3174C64.3031 53.338 62.8646 53.716 62.1214 52.9628C61.2518 52.2562 61.5738 50.6837 62.6578 50.3771H62.6576ZM93.292 52.0033C93.2595 51.0673 93.9445 50.2375 94.9048 50.1853C95.6788 50.3078 96.4314 50.9323 96.3702 51.7748C96.4411 52.8878 95.1001 53.6441 94.1519 53.1212C93.7075 52.8953 93.4796 52.4396 93.292 52.0027V52.0033ZM57.1008 50.926C57.7806 50.6291 58.6218 51.2185 58.4666 51.9736C58.4306 52.8286 57.1679 53.1572 56.7042 52.4428C56.2944 51.9476 56.5395 51.1826 57.1008 50.926ZM99.9731 50.908C100.452 50.567 101.22 50.812 101.41 51.3715C101.732 51.9824 101.141 52.8194 100.454 52.7161C99.4886 52.8041 99.1759 51.3329 99.9731 50.908ZM74.7664 55.012C76.5556 54.5467 78.4789 56.038 78.4902 57.881C78.6071 59.7426 76.7127 61.3935 74.8812 60.9635C73.4655 60.7356 72.3547 59.3719 72.4006 57.9413C72.3969 56.5733 73.4293 55.3014 74.7666 55.012H74.7664ZM81.8523 55.0082C83.6683 54.5006 85.6489 56.0193 85.6201 57.9042C85.716 59.7314 83.8807 61.3267 82.0875 60.9642C80.4 60.7461 79.155 58.8921 79.626 57.2544C79.8638 56.1633 80.7755 55.2759 81.8523 55.0082ZM68.1903 56.1422C69.4468 55.9278 70.6249 57.3302 70.1154 58.5229C69.7437 59.7944 67.8932 60.1393 67.0751 59.1007C66.1156 58.1033 66.832 56.2799 68.1903 56.1422ZM88.9701 56.2C90.0906 55.7307 91.4659 56.6998 91.3797 57.9161C91.4247 59.2549 89.7266 60.178 88.6309 59.3966C87.3889 58.6946 87.6157 56.6305 88.9701 56.2ZM94.7783 62.0257C94.3396 61.2078 95.1365 60.1238 96.0446 60.2752C96.4966 60.2676 96.8128 60.6237 97.1021 60.9232C97.1615 61.4079 97.2612 61.9852 96.8589 62.3596C96.3126 63.051 95.0751 62.8537 94.7783 62.0264V62.0257ZM61.486 60.5031C62.3347 59.938 63.556 60.7806 63.3652 61.773C63.2636 62.6505 62.1592 63.152 61.4302 62.655C60.6488 62.203 60.6776 60.916 61.486 60.504V60.5031ZM78.253 62.3409C79.3641 61.8505 80.7795 62.8179 80.6742 64.0417C80.7566 65.3939 79.0058 66.3304 77.9202 65.5177C76.7142 64.8204 76.9147 62.7691 78.2537 62.3403L78.253 62.3409ZM70.486 64.1517C71.4322 63.6538 72.7023 64.5137 72.6161 65.5737C72.6449 66.4433 71.7962 67.1845 70.938 67.056C70.2271 67.0407 69.7636 66.4035 69.5358 65.7976C69.5475 65.1372 69.8193 64.4017 70.486 64.1526V64.1517ZM86.2168 64.1679C87.1898 63.5665 88.573 64.4303 88.481 65.5629C88.506 66.7466 86.9429 67.5049 86.0368 66.7273C85.1594 66.1178 85.2665 64.6526 86.2168 64.1679ZM88.9528 70.9307C88.5208 70.2757 89.0294 69.4865 89.7323 69.3373C90.2976 69.4523 90.8952 69.8773 90.7764 70.5325C90.6939 71.4192 89.397 71.6914 88.9528 70.9307ZM67.2377 70.3619C67.4101 69.8427 67.8277 69.3269 68.4388 69.4619C69.3297 69.525 69.5941 70.8677 68.8143 71.2815C68.1132 71.7542 67.2998 71.1069 67.2377 70.3619ZM77.7137 70.9575C77.8844 70.1896 78.8783 69.8161 79.5335 70.224C79.9655 70.4099 80.0928 70.8943 80.204 71.306C80.1446 71.5204 80.0915 71.7351 80.0393 71.9495C79.7711 72.2674 79.4273 72.5854 78.98 72.5739C78.1504 72.6711 77.4021 71.7333 77.7137 70.9575Z" fill="white"/>
<defs>
<filter id="filter0_f_302_1626" x="29.823" y="12.7847" width="98.3539" height="102.431" filterUnits="userSpaceOnUse" color-interpolation-filters="sRGB">
<feFlood flood-opacity="0" result="BackgroundImageFix"/>
<feBlend mode="normal" in="SourceGraphic" in2="BackgroundImageFix" result="shape"/>
<feGaussianBlur stdDeviation="9" result="effect1_foregroundBlur_302_1626"/>
</filter>
<filter id="filter1_f_302_1626" x="0.225094" y="0.784664" width="157.55" height="162.431" filterUnits="userSpaceOnUse" color-interpolation-filters="sRGB">
<feFlood flood-opacity="0" result="BackgroundImageFix"/>
<feBlend mode="normal" in="SourceGraphic" in2="BackgroundImageFix" result="shape"/>
<feGaussianBlur stdDeviation="22.5" result="effect1_foregroundBlur_302_1626"/>
</filter>
<linearGradient id="paint0_linear_302_1626" x1="78.9999" y1="6.78467" x2="78.9999" y2="97.2155" gradientUnits="userSpaceOnUse">
<stop stop-color="#1480EB"/>
<stop offset="1" stop-color="#1066BC"/>
</linearGradient>
</defs>
</svg>
