<svg width="158" height="164" viewBox="0 0 158 164" fill="none" xmlns="http://www.w3.org/2000/svg">
<g opacity="0.3" filter="url(#filter0_f_302_1596)">
<path d="M70.0001 33.1962C75.5694 29.9808 82.4309 29.9808 88.0001 33.1962L101.177 40.8039C106.746 44.0193 110.177 49.9616 110.177 56.3924V71.6078C110.177 78.0385 106.746 83.9808 101.177 87.1962L88.0001 94.8039C82.4309 98.0193 75.5694 98.0193 70.0001 94.8039L56.8232 87.1962C51.254 83.9808 47.8232 78.0385 47.8232 71.6078V56.3924C47.8232 49.9616 51.254 44.0193 56.8232 40.8039L70.0001 33.1962Z" fill="#274319"/>
</g>
<g opacity="0.4" filter="url(#filter1_f_302_1596)">
<path d="M70.0001 48.1962C75.5693 44.9808 82.4309 44.9808 88.0001 48.1962L103.775 57.3039C109.344 60.5193 112.775 66.4616 112.775 72.8924V91.1078C112.775 97.5385 109.344 103.481 103.775 106.696L88.0001 115.804C82.4309 119.019 75.5693 119.019 70.0001 115.804L54.2251 106.696C48.6559 103.481 45.2251 97.5385 45.2251 91.1078V72.8924C45.2251 66.4616 48.6559 60.5193 54.2251 57.3039L70.0001 48.1962Z" fill="#274319"/>
</g>
<path d="M70.0001 9.19621C75.5693 5.98082 82.4309 5.98082 88.0001 9.19621L111.569 22.8039C117.139 26.0193 120.569 31.9616 120.569 38.3924V65.6078C120.569 72.0385 117.139 77.9808 111.569 81.1962L88.0001 94.8039C82.4309 98.0193 75.5693 98.0193 70.0001 94.8039L46.4309 81.1962C40.8617 77.9808 37.4309 72.0385 37.4309 65.6078V38.3924C37.4309 31.9616 40.8617 26.0193 46.4309 22.8039L70.0001 9.19621Z" fill="url(#paint0_linear_302_1596)"/>
<path d="M90.0822 40.403C88.4106 36.2239 84.4404 36.0149 79.6345 36.8507L77.9628 31L74.4106 32.0448L76.0822 37.6866C75.2464 37.8955 74.2016 38.3134 73.1568 38.5224L71.4852 32.6716L67.933 33.7164L69.6046 39.5672C68.7688 39.7761 68.1419 39.9851 67.3061 40.194L62.5001 41.8657L63.5449 45.6269C63.5449 45.6269 66.2613 44.791 66.0524 44.791C67.515 44.3731 68.1419 45 68.5598 45.8358L70.4404 52.5224C70.4404 52.5224 70.6494 52.5224 70.8583 52.5224L70.4404 52.7313L73.1568 62.1343C73.1568 62.5522 73.1568 63.3881 72.1121 63.806L69.6046 64.6418L70.0225 69.0299L74.6195 67.7761C75.4553 67.5672 76.2912 67.3582 77.127 67.1493L78.7986 73L82.3509 71.9552L80.6792 66.1045C81.724 65.8955 82.5598 65.6866 83.6046 65.2687L85.2762 71.1194L88.8285 70.0746L87.1568 64.2239C93.0076 62.1343 96.7688 59.4179 95.724 53.5672C94.8882 48.9701 92.1718 47.5075 88.4106 47.7164C90.5001 45.6269 91.3359 43.5373 90.0822 40.403ZM88.8285 54.6119C90.0822 59 82.3509 60.6716 79.8434 61.5075L77.5449 53.5672C80.0524 52.9403 87.3658 50.0149 88.8285 54.6119ZM83.8136 43.9552C85.0673 47.9254 78.5897 49.3881 76.5001 50.0149L74.4106 42.9104C76.5001 42.2836 82.7688 39.7761 83.8136 43.9552Z" fill="white"/>
<defs>
<filter id="filter0_f_302_1596" x="29.8232" y="12.7847" width="98.3539" height="102.431" filterUnits="userSpaceOnUse" color-interpolation-filters="sRGB">
<feFlood flood-opacity="0" result="BackgroundImageFix"/>
<feBlend mode="normal" in="SourceGraphic" in2="BackgroundImageFix" result="shape"/>
<feGaussianBlur stdDeviation="9" result="effect1_foregroundBlur_302_1596"/>
</filter>
<filter id="filter1_f_302_1596" x="0.225124" y="0.784664" width="157.55" height="162.431" filterUnits="userSpaceOnUse" color-interpolation-filters="sRGB">
<feFlood flood-opacity="0" result="BackgroundImageFix"/>
<feBlend mode="normal" in="SourceGraphic" in2="BackgroundImageFix" result="shape"/>
<feGaussianBlur stdDeviation="22.5" result="effect1_foregroundBlur_302_1596"/>
</filter>
<linearGradient id="paint0_linear_302_1596" x1="79.0001" y1="6.78467" x2="79.0001" y2="97.2155" gradientUnits="userSpaceOnUse">
<stop stop-color="#63A840"/>
<stop offset="1" stop-color="#528D34"/>
</linearGradient>
</defs>
</svg>
