<svg width="158" height="164" viewBox="0 0 158 164" fill="none" xmlns="http://www.w3.org/2000/svg">
<g opacity="0.3" filter="url(#filter0_f_302_1591)">
<path d="M69.9999 33.1962C75.5691 29.9808 82.4307 29.9808 87.9999 33.1962L101.177 40.8039C106.746 44.0193 110.177 49.9616 110.177 56.3924V71.6078C110.177 78.0385 106.746 83.9808 101.177 87.1962L87.9999 94.8039C82.4307 98.0193 75.5691 98.0193 69.9999 94.8039L56.823 87.1962C51.2538 83.9808 47.823 78.0385 47.823 71.6078V56.3924C47.823 49.9616 51.2538 44.0193 56.823 40.8039L69.9999 33.1962Z" fill="#6B3D0F"/>
</g>
<g opacity="0.4" filter="url(#filter1_f_302_1591)">
<path d="M70.0001 48.1962C75.5693 44.9808 82.4309 44.9808 88.0001 48.1962L103.775 57.3039C109.344 60.5193 112.775 66.4616 112.775 72.8924V91.1078C112.775 97.5385 109.344 103.481 103.775 106.696L88.0001 115.804C82.4309 119.019 75.5693 119.019 70.0001 115.804L54.2251 106.696C48.6559 103.481 45.2251 97.5385 45.2251 91.1078V72.8924C45.2251 66.4616 48.6559 60.5193 54.2251 57.3039L70.0001 48.1962Z" fill="#6B3D0F"/>
</g>
<path d="M69.9999 9.19621C75.5691 5.98082 82.4307 5.98082 87.9999 9.19621L111.569 22.8039C117.138 26.0193 120.569 31.9616 120.569 38.3924V65.6078C120.569 72.0385 117.138 77.9808 111.569 81.1962L87.9999 94.8039C82.4307 98.0193 75.5691 98.0193 69.9999 94.8039L46.4307 81.1962C40.8614 77.9808 37.4307 72.0385 37.4307 65.6078V38.3924C37.4307 31.9616 40.8614 26.0193 46.4307 22.8039L69.9999 9.19621Z" fill="url(#paint0_linear_302_1591)"/>
<path d="M94.9064 47.5904C95.6136 42.862 92.0137 40.3202 87.0911 38.6247L88.688 32.2196L84.789 31.248L83.2345 37.4845C82.2094 37.2288 81.1568 36.988 80.1106 36.7492L81.6764 30.4715L77.7799 29.5L76.1821 35.903C75.3338 35.7099 74.5007 35.519 73.6925 35.3179L73.697 35.2978L68.3202 33.9551L67.283 38.1194C67.283 38.1194 70.1757 38.7825 70.1148 38.8233C71.6936 39.2174 71.9792 40.2626 71.9317 41.091L70.1127 48.3879C70.2214 48.4155 70.3624 48.4555 70.518 48.518C70.388 48.4857 70.2495 48.4505 70.1059 48.4161L67.5562 58.638C67.3632 59.1177 66.8735 59.8376 65.7696 59.5642C65.8087 59.6208 62.9358 58.857 62.9358 58.857L61 63.3201L66.0739 64.5849C67.0178 64.8217 67.9428 65.0693 68.8537 65.3022L67.2403 71.7808L71.1348 72.7523L72.7326 66.3425C73.7965 66.6314 74.829 66.8978 75.8398 67.1489L74.2473 73.5285L78.1465 74.5L79.7598 68.0336C86.4083 69.2919 91.4076 68.7846 93.5118 62.7709C95.2074 57.9292 93.4274 55.1366 89.9296 53.3154C92.4772 52.7279 94.3948 51.0517 94.9064 47.5904ZM85.9981 60.0821C84.7932 64.9238 76.6413 62.3065 73.9983 61.6502L76.1393 53.0672C78.7821 53.727 87.2573 55.0327 85.9981 60.0821ZM87.204 47.5203C86.1048 51.9243 79.3198 49.6868 77.1189 49.1382L79.06 41.354C81.261 41.9026 88.3486 42.9266 87.204 47.5203Z" fill="white"/>
<defs>
<filter id="filter0_f_302_1591" x="29.823" y="12.7847" width="98.3539" height="102.431" filterUnits="userSpaceOnUse" color-interpolation-filters="sRGB">
<feFlood flood-opacity="0" result="BackgroundImageFix"/>
<feBlend mode="normal" in="SourceGraphic" in2="BackgroundImageFix" result="shape"/>
<feGaussianBlur stdDeviation="9" result="effect1_foregroundBlur_302_1591"/>
</filter>
<filter id="filter1_f_302_1591" x="0.225094" y="0.784664" width="157.55" height="162.431" filterUnits="userSpaceOnUse" color-interpolation-filters="sRGB">
<feFlood flood-opacity="0" result="BackgroundImageFix"/>
<feBlend mode="normal" in="SourceGraphic" in2="BackgroundImageFix" result="shape"/>
<feGaussianBlur stdDeviation="22.5" result="effect1_foregroundBlur_302_1591"/>
</filter>
<linearGradient id="paint0_linear_302_1591" x1="78.9999" y1="6.78467" x2="78.9999" y2="97.2155" gradientUnits="userSpaceOnUse">
<stop stop-color="#F4BA45"/>
<stop offset="1" stop-color="#F19C3B"/>
</linearGradient>
</defs>
</svg>
