<svg width="158" height="164" viewBox="0 0 158 164" fill="none" xmlns="http://www.w3.org/2000/svg">
<g opacity="0.15" filter="url(#filter0_f_302_1612)">
<path d="M70 33.1962C75.5693 29.9808 82.4308 29.9808 88 33.1962L101.177 40.8039C106.746 44.0193 110.177 49.9616 110.177 56.3924V71.6078C110.177 78.0385 106.746 83.9808 101.177 87.1962L88 94.8039C82.4308 98.0193 75.5693 98.0193 70 94.8039L56.8231 87.1962C51.2539 83.9808 47.8231 78.0385 47.8231 71.6078V56.3924C47.8231 49.9616 51.2539 44.0193 56.8231 40.8039L70 33.1962Z" fill="#0E1011"/>
</g>
<g opacity="0.2" filter="url(#filter1_f_302_1612)">
<path d="M70.0002 48.1962C75.5694 44.9808 82.431 44.9808 88.0002 48.1962L103.775 57.3039C109.344 60.5193 112.775 66.4616 112.775 72.8924V91.1078C112.775 97.5385 109.344 103.481 103.775 106.696L88.0002 115.804C82.431 119.019 75.5694 119.019 70.0002 115.804L54.2252 106.696C48.656 103.481 45.2252 97.5385 45.2252 91.1078V72.8924C45.2252 66.4616 48.656 60.5193 54.2252 57.3039L70.0002 48.1962Z" fill="#0E1011"/>
</g>
<path d="M70.0002 9.19621C75.5694 5.98082 82.431 5.98082 88.0002 9.19621L111.569 22.8039C117.139 26.0193 120.569 31.9616 120.569 38.3924V65.6078C120.569 72.0385 117.139 77.9808 111.569 81.1962L88.0002 94.8039C82.431 98.0193 75.5694 98.0193 70.0002 94.8039L46.431 81.1962C40.8617 77.9808 37.431 72.0385 37.431 65.6078V38.3924C37.431 31.9616 40.8617 26.0193 46.431 22.8039L70.0002 9.19621Z" fill="#7D808C"/>
<mask id="mask0_302_1612" style="mask-type:alpha" maskUnits="userSpaceOnUse" x="37" y="6" width="84" height="92">
<path d="M70.0009 9.19621C75.5701 5.98082 82.4317 5.98082 88.0009 9.19621L111.57 22.8039C117.139 26.0193 120.57 31.9616 120.57 38.3924V65.6077C120.57 72.0385 117.139 77.9808 111.57 81.1962L88.0009 94.8039C82.4317 98.0193 75.5701 98.0193 70.0009 94.8039L46.4317 81.1962C40.8625 77.9808 37.4317 72.0385 37.4317 65.6078V38.3924C37.4317 31.9616 40.8625 26.0193 46.4317 22.8039L70.0009 9.19621Z" fill="url(#paint0_linear_302_1612)"/>
</mask>
<g mask="url(#mask0_302_1612)">
<rect x="31.0001" y="4" width="96" height="96" fill="#636574"/>
</g>
<path d="M86.0561 70.468H90.0321L100 53.052L92.6641 47.508L86.2241 51.708V59.156L81.2961 63.86V66.1L86.0561 70.468Z" fill="white"/>
<path d="M74.2961 51.708L73.5681 58.708H84.4321L83.7601 51.708L86.1121 45.436H71.8881L74.2961 51.708Z" fill="white"/>
<path d="M72.0561 70.524L76.8161 66.1V63.86L71.8881 59.156V51.708L65.3921 47.564L58.0001 53.052L68.0241 70.524H72.0561Z" fill="white"/>
<path d="M89.9761 32.5H67.9681L65.3921 43.7H92.6081L89.9761 32.5Z" fill="white"/>
<defs>
<filter id="filter0_f_302_1612" x="29.8231" y="12.7847" width="98.3538" height="102.431" filterUnits="userSpaceOnUse" color-interpolation-filters="sRGB">
<feFlood flood-opacity="0" result="BackgroundImageFix"/>
<feBlend mode="normal" in="SourceGraphic" in2="BackgroundImageFix" result="shape"/>
<feGaussianBlur stdDeviation="9" result="effect1_foregroundBlur_302_1612"/>
</filter>
<filter id="filter1_f_302_1612" x="0.225216" y="0.784664" width="157.55" height="162.431" filterUnits="userSpaceOnUse" color-interpolation-filters="sRGB">
<feFlood flood-opacity="0" result="BackgroundImageFix"/>
<feBlend mode="normal" in="SourceGraphic" in2="BackgroundImageFix" result="shape"/>
<feGaussianBlur stdDeviation="22.5" result="effect1_foregroundBlur_302_1612"/>
</filter>
<linearGradient id="paint0_linear_302_1612" x1="79.0009" y1="6.78467" x2="79.0009" y2="97.2154" gradientUnits="userSpaceOnUse">
<stop stop-opacity="0"/>
<stop offset="1"/>
</linearGradient>
</defs>
</svg>
