<svg width="158" height="164" viewBox="0 0 158 164" fill="none" xmlns="http://www.w3.org/2000/svg">
<g opacity="0.3" filter="url(#filter0_f_302_2866)">
<path d="M70 33.1962C75.5693 29.9808 82.4308 29.9808 88 33.1962L101.177 40.8039C106.746 44.0193 110.177 49.9616 110.177 56.3924V71.6078C110.177 78.0385 106.746 83.9808 101.177 87.1962L88 94.8039C82.4308 98.0193 75.5693 98.0193 70 94.8039L56.8231 87.1962C51.2539 83.9808 47.8231 78.0385 47.8231 71.6078V56.3924C47.8231 49.9616 51.2539 44.0193 56.8231 40.8039L70 33.1962Z" fill="#9C2921"/>
</g>
<g opacity="0.4" filter="url(#filter1_f_302_2866)">
<path d="M70.0002 48.1962C75.5694 44.9808 82.431 44.9808 88.0002 48.1962L103.775 57.3039C109.344 60.5193 112.775 66.4616 112.775 72.8924V91.1078C112.775 97.5385 109.344 103.481 103.775 106.696L88.0002 115.804C82.431 119.019 75.5694 119.019 70.0002 115.804L54.2252 106.696C48.656 103.481 45.2252 97.5385 45.2252 91.1078V72.8924C45.2252 66.4616 48.656 60.5193 54.2252 57.3039L70.0002 48.1962Z" fill="#9C2921"/>
</g>
<path d="M70 9.19621C75.5692 5.98082 82.4308 5.98082 88 9.19621L111.569 22.8039C117.138 26.0193 120.569 31.9616 120.569 38.3924V65.6078C120.569 72.0385 117.138 77.9808 111.569 81.1962L88 94.8039C82.4308 98.0193 75.5692 98.0193 70 94.8039L46.4308 81.1962C40.8616 77.9808 37.4308 72.0385 37.4308 65.6078V38.3924C37.4308 31.9616 40.8616 26.0193 46.4308 22.8039L70 9.19621Z" fill="url(#paint0_linear_302_2866)"/>
<path d="M79.001 39.954C83.2837 39.954 86.7556 37.9496 86.7556 35.477C86.7556 33.0044 83.2837 31 79.001 31C74.7182 31 71.2464 33.0044 71.2464 35.477C71.2464 37.9496 74.7182 39.954 79.001 39.954Z" fill="white"/>
<path d="M97.5923 54.1111C99.7494 55.3474 99.7621 59.3342 97.6207 63.0159C95.4794 66.6975 91.9948 68.6799 89.8378 67.4436C87.6808 66.2073 87.668 62.2205 89.8094 58.5389C91.9508 54.8572 95.4353 52.8748 97.5923 54.1111Z" fill="white"/>
<path d="M86.7556 69.2105C86.7556 71.6831 83.2837 73.6876 79.001 73.6876C74.7182 73.6876 71.2464 71.6831 71.2464 69.2105C71.2464 66.738 74.7182 64.7335 79.001 64.7335C83.2837 64.7335 86.7556 66.738 86.7556 69.2105Z" fill="white"/>
<path d="M68.1633 37.2448C70.3218 38.482 70.3357 42.4695 68.1943 46.1512C66.0529 49.8329 62.5671 51.8147 60.4086 50.5775C58.25 49.3404 58.2361 45.3529 60.3775 41.6711C62.5189 37.9894 66.0047 36.0077 68.1633 37.2448Z" fill="white"/>
<path d="M68.1643 67.4428C70.3228 66.2056 70.3367 62.2181 68.1953 58.5364C66.0539 54.8547 62.5682 52.873 60.4096 54.1102C58.2511 55.3473 58.2372 59.3348 60.3786 63.0165C62.52 66.6982 66.0057 68.6799 68.1643 67.4428Z" fill="white"/>
<path d="M97.6228 41.6736C99.7642 45.3553 99.7515 49.3421 97.5944 50.5784C95.4373 51.8147 91.9527 49.8323 89.8113 46.1506C87.6699 42.4689 87.6826 38.4821 89.8397 37.2459C91.9968 36.0096 95.4814 37.9919 97.6228 41.6736Z" fill="white"/>
<defs>
<filter id="filter0_f_302_2866" x="29.8231" y="12.7847" width="98.3538" height="102.431" filterUnits="userSpaceOnUse" color-interpolation-filters="sRGB">
<feFlood flood-opacity="0" result="BackgroundImageFix"/>
<feBlend mode="normal" in="SourceGraphic" in2="BackgroundImageFix" result="shape"/>
<feGaussianBlur stdDeviation="9" result="effect1_foregroundBlur_302_2866"/>
</filter>
<filter id="filter1_f_302_2866" x="0.225216" y="0.784664" width="157.55" height="162.431" filterUnits="userSpaceOnUse" color-interpolation-filters="sRGB">
<feFlood flood-opacity="0" result="BackgroundImageFix"/>
<feBlend mode="normal" in="SourceGraphic" in2="BackgroundImageFix" result="shape"/>
<feGaussianBlur stdDeviation="22.5" result="effect1_foregroundBlur_302_2866"/>
</filter>
<linearGradient id="paint0_linear_302_2866" x1="79" y1="6.78467" x2="79" y2="97.2155" gradientUnits="userSpaceOnUse">
<stop stop-color="#D9534A"/>
<stop offset="1" stop-color="#C6342A"/>
</linearGradient>
</defs>
</svg>
