<svg width="158" height="164" viewBox="0 0 158 164" fill="none" xmlns="http://www.w3.org/2000/svg">
<g opacity="0.15" filter="url(#filter0_f_302_1608)">
<path d="M69.9999 33.1962C75.5691 29.9808 82.4307 29.9808 87.9999 33.1962L101.177 40.8039C106.746 44.0193 110.177 49.9616 110.177 56.3924V71.6078C110.177 78.0385 106.746 83.9808 101.177 87.1962L87.9999 94.8039C82.4307 98.0193 75.5691 98.0193 69.9999 94.8039L56.823 87.1962C51.2538 83.9808 47.823 78.0385 47.823 71.6078V56.3924C47.823 49.9616 51.2538 44.0193 56.823 40.8039L69.9999 33.1962Z" fill="#0E1011"/>
</g>
<g opacity="0.2" filter="url(#filter1_f_302_1608)">
<path d="M70.0001 48.1962C75.5693 44.9808 82.4309 44.9808 88.0001 48.1962L103.775 57.3039C109.344 60.5193 112.775 66.4616 112.775 72.8924V91.1078C112.775 97.5385 109.344 103.481 103.775 106.696L88.0001 115.804C82.4309 119.019 75.5693 119.019 70.0001 115.804L54.2251 106.696C48.6559 103.481 45.2251 97.5385 45.2251 91.1078V72.8924C45.2251 66.4616 48.6559 60.5193 54.2251 57.3039L70.0001 48.1962Z" fill="#0E1011"/>
</g>
<path d="M69.9999 9.19621C75.5691 5.98082 82.4307 5.98082 87.9999 9.19621L111.569 22.8039C117.138 26.0193 120.569 31.9616 120.569 38.3924V65.6078C120.569 72.0385 117.138 77.9808 111.569 81.1962L87.9999 94.8039C82.4307 98.0193 75.5691 98.0193 69.9999 94.8039L46.4307 81.1962C40.8614 77.9808 37.4307 72.0385 37.4307 65.6078V38.3924C37.4307 31.9616 40.8614 26.0193 46.4307 22.8039L69.9999 9.19621Z" fill="#7D808C"/>
<mask id="mask0_302_1608" style="mask-type:alpha" maskUnits="userSpaceOnUse" x="37" y="6" width="84" height="92">
<path d="M70.001 9.19621C75.5702 5.98082 82.4318 5.98082 88.001 9.19621L111.57 22.8039C117.139 26.0193 120.57 31.9616 120.57 38.3924V65.6077C120.57 72.0385 117.139 77.9808 111.57 81.1962L88.001 94.8039C82.4318 98.0193 75.5702 98.0193 70.001 94.8039L46.4318 81.1962C40.8625 77.9808 37.4318 72.0385 37.4318 65.6078V38.3924C37.4318 31.9616 40.8625 26.0193 46.4318 22.8039L70.001 9.19621Z" fill="url(#paint0_linear_302_1608)"/>
</mask>
<g mask="url(#mask0_302_1608)">
<rect x="31" y="4" width="96" height="96" fill="#636574"/>
</g>
<path d="M71.5551 39.9506C73.7927 38.4875 76.2455 37.799 78.9565 37.756C81.6245 37.756 84.0773 38.4875 86.358 39.9506L91.0915 35.2171C87.3908 32.42 83.3888 31 78.9565 31C74.5243 31 70.4793 32.42 66.8646 35.2171L71.5551 39.9506Z" fill="white"/>
<path d="M91.5648 39.3482C91.3927 39.1761 91.3066 39.0039 91.3066 38.7888C91.3066 38.5736 91.3927 38.4015 91.5648 38.2294C91.9091 37.9281 92.4255 37.9281 92.7697 38.2294C92.9418 38.4015 93.0279 38.5736 93.0279 38.7888C93.0279 39.0039 92.9418 39.1761 92.7697 39.3482C92.5976 39.4773 92.3824 39.5633 92.1673 39.5633C91.9521 39.6064 91.737 39.5203 91.5648 39.3482Z" fill="white"/>
<path d="M89.4563 41.5858C89.3272 41.4137 89.2411 41.2416 89.2411 41.0264C89.2411 40.8112 89.3272 40.6391 89.4563 40.467C89.7575 40.1658 90.2739 40.1658 90.5751 40.467C90.7042 40.6391 90.7902 40.8112 90.7902 41.0264C90.7902 41.2416 90.7042 41.4137 90.5751 41.5858C90.403 41.7149 90.2308 41.801 90.0157 41.801C89.8005 41.801 89.6284 41.7149 89.4563 41.5858Z" fill="white"/>
<path d="M86.9605 43.2211C86.9605 43.4362 87.0465 43.6514 87.1756 43.7805C87.3047 43.9096 87.5199 43.9956 87.7351 43.9956C87.9502 43.9956 88.1223 43.9526 88.2945 43.7805C88.4236 43.6084 88.5096 43.4362 88.5096 43.2211C88.5096 43.0059 88.4236 42.7907 88.2945 42.6617C87.9932 42.3604 87.4769 42.3604 87.1756 42.6617C87.0465 42.8338 86.9605 43.0059 86.9605 43.2211Z" fill="white"/>
<path d="M84.981 45.9751C84.8089 45.846 84.7228 45.6308 84.7228 45.4156C84.7228 45.2005 84.8089 45.0284 84.981 44.8562C85.3253 44.555 85.8417 44.555 86.1859 44.8562C86.358 44.9853 86.4441 45.2005 86.4441 45.4156C86.4441 45.6308 86.358 45.846 86.1859 45.9751C86.0138 46.1472 85.7986 46.1902 85.5835 46.1902C85.3683 46.1902 85.1532 46.1472 84.981 45.9751Z" fill="white"/>
<path d="M82.6572 47.6103C82.6572 47.8254 82.7002 48.0406 82.8724 48.1697C83.0015 48.3418 83.2166 48.4279 83.4318 48.3849C83.6469 48.3849 83.8621 48.3418 83.9912 48.1697C84.1203 48.0406 84.2063 47.8254 84.2063 47.6103C84.2063 47.3951 84.1633 47.18 83.9912 47.0509C83.69 46.7497 83.1736 46.7497 82.8724 47.0509C82.7433 47.223 82.6572 47.3951 82.6572 47.6103Z" fill="white"/>
<path d="M80.3336 49.8049C80.3336 49.5898 80.4197 49.4176 80.5488 49.2455C80.85 48.9443 81.3664 48.9443 81.6676 49.2455C81.8397 49.4176 81.8828 49.5898 81.8828 49.8049C81.8828 50.0201 81.7967 50.1922 81.6676 50.3643C81.5385 50.4934 81.3234 50.5795 81.1082 50.5795C80.893 50.5795 80.7209 50.4934 80.5488 50.3643C80.4197 50.2352 80.3336 50.0201 80.3336 49.8049Z" fill="white"/>
<path d="M76.0303 54.1081C76.0303 54.3232 76.1164 54.5384 76.2455 54.6675C76.4176 54.8396 76.5898 54.9257 76.8049 54.8827C77.0201 54.8827 77.2352 54.8396 77.3643 54.6675C77.4934 54.4954 77.5795 54.3232 77.5795 54.1081C77.5795 53.8929 77.5365 53.7208 77.3643 53.5487C77.0631 53.2474 76.5467 53.2474 76.2455 53.5487C76.1164 53.7208 76.0303 53.8929 76.0303 54.1081Z" fill="white"/>
<path d="M73.9648 56.8621C73.7927 56.733 73.7066 56.5178 73.7066 56.3027C73.7066 56.0875 73.7927 55.9154 73.9648 55.7433C74.309 55.4421 74.8254 55.4421 75.1697 55.7433C75.3418 55.9154 75.4279 56.0875 75.4279 56.3027C75.4279 56.5178 75.3418 56.69 75.1697 56.8621C74.9976 57.0342 74.7824 57.0773 74.5672 57.0773C74.3521 57.1203 74.1369 57.0342 73.9648 56.8621Z" fill="white"/>
<path d="M71.6411 58.5404C71.6411 58.7555 71.7271 58.9707 71.8562 59.0998C72.0283 59.2289 72.2005 59.315 72.4156 59.315C72.6308 59.315 72.8029 59.2719 72.975 59.0998C73.1041 58.9277 73.1902 58.7555 73.1902 58.5404C73.1902 58.3252 73.1041 58.1101 72.975 57.981C72.6738 57.6797 72.1574 57.6797 71.8562 57.981C71.7271 58.1101 71.6411 58.3252 71.6411 58.5404Z" fill="white"/>
<path d="M69.6617 61.2944C69.4896 61.1653 69.4465 60.9501 69.4465 60.735C69.4465 60.5198 69.5326 60.3477 69.6617 60.1756C69.9629 59.8743 70.4793 59.8743 70.7805 60.1756C70.9096 60.3477 70.9957 60.5198 70.9957 60.735C70.9957 60.9501 70.9096 61.1653 70.7805 61.2944C70.6084 61.4665 70.4363 61.5096 70.2211 61.5096C70.006 61.5096 69.7908 61.4665 69.6617 61.2944Z" fill="white"/>
<path d="M67.1227 62.9296C67.1227 63.1447 67.2088 63.3599 67.3809 63.489C67.51 63.6611 67.7252 63.7042 67.9403 63.7042C68.1555 63.7042 68.3706 63.6181 68.5428 63.489C68.7149 63.3599 68.8009 63.1447 68.8009 62.9296C68.8009 62.7144 68.7149 62.5423 68.5428 62.3702C68.2415 62.0689 67.7252 62.0689 67.3809 62.3702C67.2088 62.5423 67.1227 62.7144 67.1227 62.9296Z" fill="white"/>
<path d="M65.2294 65.6836C65.0572 65.5115 65.0142 65.3394 65.0142 65.1242C65.0142 64.909 65.1003 64.7369 65.2294 64.5648C65.5306 64.2636 66.047 64.2636 66.3482 64.5648C66.5203 64.7369 66.5633 64.909 66.5633 65.1242C66.5633 65.3394 66.4773 65.5115 66.3482 65.6836C66.2191 65.8127 66.0039 65.8988 65.7888 65.8988C65.6166 65.9418 65.4015 65.8557 65.2294 65.6836Z" fill="white"/>
<path d="M66.5633 38.7888C66.5633 39.0039 66.4773 39.1761 66.3482 39.3482C66.2191 39.5203 66.0039 39.6064 65.7888 39.5633C65.5736 39.5633 65.3585 39.4773 65.2294 39.3482C65.1003 39.1761 65.0142 39.0039 65.0142 38.7888C65.0142 38.5736 65.0572 38.4015 65.2294 38.2294C65.5306 37.9281 66.047 37.9281 66.3482 38.2294C66.4773 38.4015 66.5633 38.5736 66.5633 38.7888Z" fill="white"/>
<path d="M68.5428 41.5858C68.715 41.4137 68.801 41.2416 68.801 41.0264C68.801 40.8112 68.715 40.6391 68.5428 40.467C68.1986 40.1658 67.6822 40.1658 67.3379 40.467C67.1658 40.6391 67.0797 40.8112 67.0797 41.0264C67.0797 41.2416 67.1658 41.4137 67.3379 41.5858C67.5101 41.7149 67.7252 41.801 67.9404 41.801C68.1555 41.801 68.3707 41.7149 68.5428 41.5858Z" fill="white"/>
<path d="M70.9957 43.2211C70.9957 43.4362 70.9096 43.6514 70.7805 43.7805C70.6084 43.9096 70.3932 43.9956 70.2211 43.9956C70.006 43.9956 69.8338 43.9526 69.6617 43.7805C69.5326 43.6084 69.4465 43.4362 69.4465 43.2211C69.4465 43.0059 69.5326 42.7907 69.6617 42.6617C69.9629 42.3604 70.4793 42.3604 70.7805 42.6617C70.9096 42.8338 70.9957 43.0059 70.9957 43.2211Z" fill="white"/>
<path d="M72.975 45.9751C73.1041 45.846 73.1902 45.6308 73.1902 45.4156C73.1902 45.2005 73.1041 45.0284 72.975 44.8562C72.6738 44.555 72.1574 44.555 71.8562 44.8562C71.7271 44.9853 71.6411 45.2005 71.6411 45.4156C71.6411 45.6308 71.7271 45.846 71.8562 45.9751C72.0283 46.1472 72.2005 46.1902 72.4156 46.1902C72.5878 46.1902 72.8029 46.1472 72.975 45.9751Z" fill="white"/>
<path d="M75.3848 47.6103C75.3848 47.8254 75.2988 48.0406 75.1266 48.1697C74.9976 48.3418 74.7824 48.4279 74.5672 48.3849C74.3521 48.3849 74.1369 48.3418 73.9648 48.1697C73.7927 48.0406 73.7066 47.8254 73.7066 47.6103C73.7066 47.3951 73.7927 47.18 73.9648 47.0509C74.266 46.7497 74.8254 46.7497 75.1266 47.0509C75.2988 47.223 75.3848 47.3951 75.3848 47.6103Z" fill="white"/>
<path d="M77.5795 49.8049C77.5795 49.5898 77.4934 49.4176 77.3643 49.2455C77.0631 48.9443 76.5467 48.9443 76.2455 49.2455C76.0734 49.4176 76.0303 49.5898 76.0303 49.8049C76.0303 50.0201 76.1164 50.1922 76.2455 50.3643C76.3746 50.4934 76.5898 50.5795 76.8049 50.5795C77.0201 50.5795 77.1922 50.4934 77.3643 50.3643C77.5365 50.2352 77.5795 50.0201 77.5795 49.8049Z" fill="white"/>
<path d="M79.7741 52.0426C79.7741 52.2577 79.7311 52.4299 79.5589 52.602C79.4298 52.7311 79.2147 52.8172 78.9995 52.8172C78.7844 52.8172 78.5692 52.7311 78.4401 52.602C78.311 52.4299 78.2249 52.2577 78.2249 52.0426C78.2249 51.8274 78.268 51.6553 78.4401 51.4832C78.7413 51.182 79.2577 51.182 79.5589 51.4832C79.688 51.6553 79.7741 51.8274 79.7741 52.0426Z" fill="white"/>
<path d="M81.7537 54.6675C81.9258 54.5384 82.0119 54.3232 82.0119 54.1081C82.0119 53.8929 81.9258 53.7208 81.7537 53.5487C81.4094 53.2474 80.893 53.2474 80.5918 53.5487C80.4197 53.7208 80.3336 53.8929 80.3336 54.1081C80.3336 54.3232 80.4197 54.4954 80.5918 54.6675C80.7639 54.8396 80.9791 54.8827 81.1943 54.8827C81.3664 54.9257 81.5816 54.8396 81.7537 54.6675Z" fill="white"/>
<path d="M84.2063 56.3027C84.2063 56.5178 84.1203 56.733 83.9912 56.8621C83.8191 57.0342 83.6039 57.1203 83.4318 57.0773C83.2166 57.0773 83.0445 57.0342 82.8724 56.8621C82.7433 56.69 82.6572 56.5178 82.6572 56.3027C82.6572 56.0875 82.7433 55.9154 82.8724 55.7433C83.1736 55.4421 83.69 55.4421 83.9912 55.7433C84.1203 55.9154 84.2063 56.0875 84.2063 56.3027Z" fill="white"/>
<path d="M86.1859 59.0998C86.315 58.9707 86.401 58.7555 86.401 58.5404C86.401 58.3252 86.315 58.1101 86.1859 57.981C85.8847 57.6797 85.3683 57.6797 85.0671 57.981C84.938 58.1101 84.8519 58.3252 84.8519 58.5404C84.8519 58.7555 84.938 58.9277 85.0671 59.0998C85.2392 59.2719 85.4113 59.315 85.6265 59.315C85.8416 59.315 86.0137 59.2289 86.1859 59.0998Z" fill="white"/>
<path d="M88.4664 60.735C88.4664 60.9501 88.4234 61.1653 88.2512 61.2944C88.1221 61.4665 87.907 61.5096 87.6918 61.5096C87.4767 61.5096 87.3045 61.4665 87.1324 61.2944C87.0033 61.1653 86.9173 60.9501 86.9173 60.735C86.9173 60.5198 87.0033 60.3477 87.1324 60.1756C87.4336 59.8743 87.95 59.8743 88.2512 60.1756C88.3803 60.3477 88.4664 60.5198 88.4664 60.735Z" fill="white"/>
<path d="M90.5751 63.489C90.7472 63.3599 90.7902 63.1447 90.7902 62.9296C90.7902 62.7144 90.7042 62.5423 90.5751 62.3702C90.2739 62.0689 89.7575 62.0689 89.4563 62.3702C89.2841 62.5423 89.2411 62.7144 89.2411 62.9296C89.2411 63.1447 89.3272 63.3599 89.4563 63.489C89.5853 63.6181 89.8005 63.7042 90.0157 63.7042C90.2308 63.7042 90.446 63.6611 90.5751 63.489Z" fill="white"/>
<path d="M93.0278 65.1242C93.0278 65.3394 92.9418 65.5115 92.7696 65.6836C92.5975 65.8557 92.3824 65.9418 92.2102 65.8988C91.9951 65.8988 91.7799 65.8127 91.6078 65.6836C91.4357 65.5115 91.3496 65.3394 91.3496 65.1242C91.3496 64.909 91.4357 64.7369 91.6078 64.5648C91.909 64.2636 92.4254 64.2636 92.7696 64.5648C92.9418 64.7369 93.0278 64.909 93.0278 65.1242Z" fill="white"/>
<path d="M64.5839 51.9995C64.5839 54.6245 65.3154 57.0773 66.8215 59.358L62.1741 64.1345C59.377 60.4768 58 56.4318 58 52.0426C58 47.5673 59.377 43.5653 62.1311 39.9506L66.8215 44.6411C65.3154 46.8788 64.5839 49.3316 64.5839 51.9995Z" fill="white"/>
<path d="M86.358 64.0485C84.1203 65.5546 81.6675 66.3291 78.9995 66.3722C76.2885 66.3722 73.7927 65.6406 71.555 64.0915L66.8215 68.782C70.4792 71.6221 74.5242 73.0421 78.9995 72.9991C83.4318 72.956 87.4338 71.536 91.0484 68.782L86.358 64.0485Z" fill="white"/>
<path d="M93.2001 52.0856C93.2431 49.3746 92.4685 46.8787 90.9624 44.5981L95.6959 39.8215C98.536 43.4792 99.9561 47.5242 99.913 51.9995C99.913 56.3888 98.493 60.3907 95.6959 64.0054L90.9624 59.3149C92.4255 57.1203 93.157 54.7105 93.2001 52.0856Z" fill="white"/>
<path d="M95.9111 65.5115C97.7184 65.5115 99.2246 66.9746 99.2246 68.825C99.2246 70.6323 97.7615 72.1384 95.9111 72.1384C94.1038 72.1384 92.5977 70.6754 92.5977 68.825C92.5977 66.9746 94.0607 65.5115 95.9111 65.5115Z" fill="white"/>
<path d="M65.3585 68.825C65.3585 66.9746 63.8954 65.5115 62.0881 65.5115C60.2807 65.5115 58.8177 66.9746 58.8177 68.825C58.8177 70.6754 60.2807 72.1384 62.0881 72.1384C63.8954 72.1384 65.3585 70.6323 65.3585 68.825Z" fill="white"/>
<path d="M95.9541 31.7316C97.7614 31.7316 99.2245 33.1946 99.2245 35.045C99.2245 36.8954 97.7614 38.3585 95.9541 38.3585C94.1467 38.3585 92.6837 36.8954 92.6837 35.045C92.6837 33.1946 94.1467 31.7316 95.9541 31.7316Z" fill="white"/>
<path d="M65.3585 35.002C65.3585 33.1946 63.8523 31.7316 62.045 31.7316C60.1946 31.7316 58.7316 33.1946 58.7316 35.002C58.7316 36.8093 60.2377 38.2724 62.045 38.2724C63.8954 38.2724 65.3585 36.8093 65.3585 35.002Z" fill="white"/>
<defs>
<filter id="filter0_f_302_1608" x="29.823" y="12.7847" width="98.3539" height="102.431" filterUnits="userSpaceOnUse" color-interpolation-filters="sRGB">
<feFlood flood-opacity="0" result="BackgroundImageFix"/>
<feBlend mode="normal" in="SourceGraphic" in2="BackgroundImageFix" result="shape"/>
<feGaussianBlur stdDeviation="9" result="effect1_foregroundBlur_302_1608"/>
</filter>
<filter id="filter1_f_302_1608" x="0.225094" y="0.784664" width="157.55" height="162.431" filterUnits="userSpaceOnUse" color-interpolation-filters="sRGB">
<feFlood flood-opacity="0" result="BackgroundImageFix"/>
<feBlend mode="normal" in="SourceGraphic" in2="BackgroundImageFix" result="shape"/>
<feGaussianBlur stdDeviation="22.5" result="effect1_foregroundBlur_302_1608"/>
</filter>
<linearGradient id="paint0_linear_302_1608" x1="79.001" y1="6.78467" x2="79.001" y2="97.2154" gradientUnits="userSpaceOnUse">
<stop stop-opacity="0"/>
<stop offset="1"/>
</linearGradient>
</defs>
</svg>
