<svg width="158" height="164" viewBox="0 0 158 164" fill="none" xmlns="http://www.w3.org/2000/svg">
<g opacity="0.3" filter="url(#filter0_f_302_1601)">
<path d="M70.0001 33.1962C75.5694 29.9808 82.4309 29.9808 88.0001 33.1962L101.177 40.8039C106.746 44.0193 110.177 49.9616 110.177 56.3924V71.6078C110.177 78.0385 106.746 83.9808 101.177 87.1962L88.0001 94.8039C82.4309 98.0193 75.5694 98.0193 70.0001 94.8039L56.8232 87.1962C51.254 83.9808 47.8232 78.0385 47.8232 71.6078V56.3924C47.8232 49.9616 51.254 44.0193 56.8232 40.8039L70.0001 33.1962Z" fill="#194319"/>
</g>
<g opacity="0.4" filter="url(#filter1_f_302_1601)">
<path d="M70.0001 48.1962C75.5693 44.9808 82.4309 44.9808 88.0001 48.1962L103.775 57.3039C109.344 60.5193 112.775 66.4616 112.775 72.8924V91.1078C112.775 97.5385 109.344 103.481 103.775 106.696L88.0001 115.804C82.4309 119.019 75.5693 119.019 70.0001 115.804L54.2251 106.696C48.6559 103.481 45.2251 97.5385 45.2251 91.1078V72.8924C45.2251 66.4616 48.6559 60.5193 54.2251 57.3039L70.0001 48.1962Z" fill="#194319"/>
</g>
<path d="M70.0001 9.19621C75.5693 5.98082 82.4309 5.98082 88.0001 9.19621L111.569 22.8039C117.139 26.0193 120.569 31.9616 120.569 38.3924V65.6078C120.569 72.0385 117.139 77.9808 111.569 81.1962L88.0001 94.8039C82.4309 98.0193 75.5693 98.0193 70.0001 94.8039L46.4309 81.1962C40.8617 77.9808 37.4309 72.0385 37.4309 65.6078V38.3924C37.4309 31.9616 40.8617 26.0193 46.4309 22.8039L70.0001 9.19621Z" fill="url(#paint0_linear_302_1601)"/>
<path d="M100 40.87H88.8701C86.8401 40.87 85.1601 42.55 85.1601 44.58V45.84H75.2901V44.58C75.2901 37.09 81.3801 31 88.8701 31H100V40.87Z" fill="white"/>
<path fill-rule="evenodd" clip-rule="evenodd" d="M85.1602 55.7101L85.1601 45.84H75.2901L71.5801 45.84C64.0901 45.84 58.0001 51.93 58.0001 59.4201C58.0001 66.9101 64.0901 73.0001 71.5801 73.0001C79.0702 73.0001 85.1602 66.9101 85.1602 59.4201V55.7101ZM71.5801 63.1301C73.6101 63.1301 75.2901 61.4501 75.2901 59.4201V55.7101H71.5801C69.5501 55.7101 67.8701 57.3901 67.8701 59.4201C67.8701 61.4501 69.5501 63.1301 71.5801 63.1301Z" fill="white"/>
<path d="M85.1601 45.84L95.0304 45.84V55.7101H85.1602L85.1601 45.84Z" fill="white"/>
<defs>
<filter id="filter0_f_302_1601" x="29.8232" y="12.7847" width="98.3538" height="102.431" filterUnits="userSpaceOnUse" color-interpolation-filters="sRGB">
<feFlood flood-opacity="0" result="BackgroundImageFix"/>
<feBlend mode="normal" in="SourceGraphic" in2="BackgroundImageFix" result="shape"/>
<feGaussianBlur stdDeviation="9" result="effect1_foregroundBlur_302_1601"/>
</filter>
<filter id="filter1_f_302_1601" x="0.225124" y="0.784664" width="157.55" height="162.431" filterUnits="userSpaceOnUse" color-interpolation-filters="sRGB">
<feFlood flood-opacity="0" result="BackgroundImageFix"/>
<feBlend mode="normal" in="SourceGraphic" in2="BackgroundImageFix" result="shape"/>
<feGaussianBlur stdDeviation="22.5" result="effect1_foregroundBlur_302_1601"/>
</filter>
<linearGradient id="paint0_linear_302_1601" x1="79.0001" y1="6.78467" x2="79.0001" y2="97.2155" gradientUnits="userSpaceOnUse">
<stop stop-color="#40A840"/>
<stop offset="1" stop-color="#2E7B2E"/>
</linearGradient>
</defs>
</svg>
