<svg width="158" height="164" viewBox="0 0 158 164" fill="none" xmlns="http://www.w3.org/2000/svg">
<g opacity="0.3" filter="url(#filter0_f_302_1620)">
<path d="M69.9999 33.1962C75.5691 29.9808 82.4307 29.9808 87.9999 33.1962L101.177 40.8039C106.746 44.0193 110.177 49.9616 110.177 56.3924V71.6078C110.177 78.0385 106.746 83.9808 101.177 87.1962L87.9999 94.8039C82.4307 98.0193 75.5691 98.0193 69.9999 94.8039L56.823 87.1962C51.2538 83.9808 47.823 78.0385 47.823 71.6078V56.3924C47.823 49.9616 51.2538 44.0193 56.823 40.8039L69.9999 33.1962Z" fill="#521B6F"/>
</g>
<g opacity="0.4" filter="url(#filter1_f_302_1620)">
<path d="M70.0001 48.1962C75.5693 44.9808 82.4309 44.9808 88.0001 48.1962L103.775 57.3039C109.344 60.5193 112.775 66.4616 112.775 72.8924V91.1078C112.775 97.5385 109.344 103.481 103.775 106.696L88.0001 115.804C82.4309 119.019 75.5693 119.019 70.0001 115.804L54.2251 106.696C48.6559 103.481 45.2251 97.5385 45.2251 91.1078V72.8924C45.2251 66.4616 48.6559 60.5193 54.2251 57.3039L70.0001 48.1962Z" fill="#521B6F"/>
</g>
<path d="M69.9999 9.19621C75.5691 5.98082 82.4307 5.98082 87.9999 9.19621L111.569 22.8039C117.138 26.0193 120.569 31.9616 120.569 38.3924V65.6078C120.569 72.0385 117.138 77.9808 111.569 81.1962L87.9999 94.8039C82.4307 98.0193 75.5691 98.0193 69.9999 94.8039L46.4307 81.1962C40.8614 77.9808 37.4307 72.0385 37.4307 65.6078V38.3924C37.4307 31.9616 40.8614 26.0193 46.4307 22.8039L69.9999 9.19621Z" fill="url(#paint0_linear_302_1620)"/>
<path d="M90.5731 44.6018C89.7507 44.1319 88.6932 44.1319 87.7533 44.6018L81.1736 48.4791L76.7089 50.9465L70.2467 54.8238C69.4243 55.2937 68.3668 55.2937 67.4269 54.8238L62.3747 51.7689C61.5522 51.299 60.9648 50.359 60.9648 49.3016V43.4269C60.9648 42.4869 61.4347 41.547 62.3747 40.9595L67.4269 38.0222C68.2493 37.5522 69.3068 37.5522 70.2467 38.0222L75.299 41.077C76.1214 41.547 76.7089 42.4869 76.7089 43.5444V47.4217L81.1736 44.8368V40.842C81.1736 39.9021 80.7037 38.9621 79.7637 38.3747L70.3642 32.8525C69.5418 32.3825 68.4843 32.3825 67.5444 32.8525L57.9099 38.4922C56.97 38.9621 56.5 39.9021 56.5 40.842V51.8864C56.5 52.8264 56.97 53.7663 57.9099 54.3538L67.4269 59.876C68.2493 60.346 69.3068 60.346 70.2467 59.876L76.7089 56.1162L81.1736 53.5313L87.6358 49.7715C88.4582 49.3016 89.5157 49.3016 90.4556 49.7715L95.5078 52.7089C96.3303 53.1789 96.9178 54.1188 96.9178 55.1762V61.0509C96.9178 61.9909 96.4478 62.9308 95.5078 63.5183L90.5731 66.4556C89.7507 66.9256 88.6932 66.9256 87.7533 66.4556L82.701 63.5183C81.8786 63.0483 81.2911 62.1084 81.2911 61.0509V57.2911L76.8264 59.876V63.7533C76.8264 64.6932 77.2963 65.6332 78.2363 66.2206L87.7533 71.7428C88.5757 72.2128 89.6332 72.2128 90.5731 71.7428L100.09 66.2206C100.913 65.7507 101.5 64.8107 101.5 63.7533V52.5914C101.5 51.6514 101.03 50.7115 100.09 50.124L90.5731 44.6018Z" fill="white"/>
<defs>
<filter id="filter0_f_302_1620" x="29.823" y="12.7847" width="98.3539" height="102.431" filterUnits="userSpaceOnUse" color-interpolation-filters="sRGB">
<feFlood flood-opacity="0" result="BackgroundImageFix"/>
<feBlend mode="normal" in="SourceGraphic" in2="BackgroundImageFix" result="shape"/>
<feGaussianBlur stdDeviation="9" result="effect1_foregroundBlur_302_1620"/>
</filter>
<filter id="filter1_f_302_1620" x="0.225094" y="0.784664" width="157.55" height="162.431" filterUnits="userSpaceOnUse" color-interpolation-filters="sRGB">
<feFlood flood-opacity="0" result="BackgroundImageFix"/>
<feBlend mode="normal" in="SourceGraphic" in2="BackgroundImageFix" result="shape"/>
<feGaussianBlur stdDeviation="22.5" result="effect1_foregroundBlur_302_1620"/>
</filter>
<linearGradient id="paint0_linear_302_1620" x1="78.9999" y1="6.78467" x2="78.9999" y2="97.2155" gradientUnits="userSpaceOnUse">
<stop stop-color="#A64ED4"/>
<stop offset="1" stop-color="#8E2FC1"/>
</linearGradient>
</defs>
</svg>
