<svg width="158" height="164" viewBox="0 0 158 164" fill="none" xmlns="http://www.w3.org/2000/svg">
<g opacity="0.3" filter="url(#filter0_f_302_1619)">
<path d="M69.9999 33.1962C75.5691 29.9808 82.4307 29.9808 87.9999 33.1962L101.177 40.8039C106.746 44.0193 110.177 49.9616 110.177 56.3924V71.6078C110.177 78.0385 106.746 83.9808 101.177 87.1962L87.9999 94.8039C82.4307 98.0193 75.5691 98.0193 69.9999 94.8039L56.823 87.1962C51.2538 83.9808 47.823 78.0385 47.823 71.6078V56.3924C47.823 49.9616 51.2538 44.0193 56.823 40.8039L69.9999 33.1962Z" fill="#814A12"/>
</g>
<g opacity="0.4" filter="url(#filter1_f_302_1619)">
<path d="M70.0001 48.1962C75.5693 44.9808 82.4309 44.9808 88.0001 48.1962L103.775 57.3039C109.344 60.5193 112.775 66.4616 112.775 72.8924V91.1078C112.775 97.5385 109.344 103.481 103.775 106.696L88.0001 115.804C82.4309 119.019 75.5693 119.019 70.0001 115.804L54.2251 106.696C48.6559 103.481 45.2251 97.5385 45.2251 91.1078V72.8924C45.2251 66.4616 48.6559 60.5193 54.2251 57.3039L70.0001 48.1962Z" fill="#814A12"/>
</g>
<path d="M69.9999 9.19621C75.5691 5.98082 82.4307 5.98082 87.9999 9.19621L111.569 22.8039C117.138 26.0193 120.569 31.9616 120.569 38.3924V65.6078C120.569 72.0385 117.138 77.9808 111.569 81.1962L87.9999 94.8039C82.4307 98.0193 75.5691 98.0193 69.9999 94.8039L46.4307 81.1962C40.8614 77.9808 37.4307 72.0385 37.4307 65.6078V38.3924C37.4307 31.9616 40.8614 26.0193 46.4307 22.8039L69.9999 9.19621Z" fill="url(#paint0_linear_302_1619)"/>
<path fill-rule="evenodd" clip-rule="evenodd" d="M90.8876 33.8602C91.2979 33.4595 91.7085 33.0586 92.1439 32.6842C93.2324 31.7481 94.3931 30.9204 95.7079 30.3296C96.5633 29.9454 97.4503 29.6655 98.3933 29.5924C98.5286 29.5819 98.6102 29.6068 98.6904 29.7358C99.0358 30.2913 99.2551 30.8943 99.4228 31.5217C99.7682 32.8147 99.8195 34.135 99.7686 35.4598C99.727 36.5417 99.6184 37.6193 99.4622 38.6924C99.3448 39.4988 99.1995 40.3 99.0541 41.1013L99.031 41.2288C99.0079 41.3558 98.98 41.482 98.9521 41.6082C98.9096 41.8007 98.867 41.9934 98.8414 42.1892C98.8353 42.2099 98.8287 42.2304 98.8222 42.251C98.808 42.2952 98.7939 42.3394 98.7842 42.3845C98.5487 43.483 98.2707 44.5711 97.985 45.6572C97.6489 46.9357 97.2946 48.2099 96.8801 49.4646C96.7585 49.8325 96.8396 50.1156 96.9821 50.4324C97.1423 50.7882 97.3195 51.1359 97.4967 51.4836C97.7712 52.0224 98.0458 52.5612 98.2571 53.1301C98.5042 53.7951 98.7486 54.4609 98.9518 55.1406C99.2838 56.2511 99.5346 57.3801 99.7171 58.5248C99.8286 59.2246 99.9156 59.9277 99.9779 60.633C100.032 61.244 100.071 61.8572 100.089 62.4701C100.091 62.5467 100.103 62.6234 100.114 62.7002C100.139 62.8589 100.163 63.018 100.104 63.1777C100.004 63.1626 99.9048 63.1462 99.8053 63.1299C99.5884 63.0943 99.3715 63.0587 99.1533 63.0358C98.1128 62.9267 97.0747 62.8765 96.0257 62.9822C94.8149 63.1043 93.6483 63.3784 92.5287 63.8422C91.0724 64.4453 89.7871 65.318 88.644 66.4004C88.4327 66.6006 88.227 66.8065 88.0176 67.0162C87.9202 67.1137 87.822 67.2121 87.722 67.3109L87.616 66.9925L87.6152 66.9899C87.532 66.7398 87.4507 66.4955 87.3686 66.2514C87.1074 65.4736 86.7433 64.7423 86.3791 64.011C86.2763 63.8045 86.1734 63.5978 86.0729 63.3903C85.9352 63.1062 85.763 62.8438 85.5557 62.6049C84.826 61.7642 84.0044 61.0279 83.0555 60.4426C81.5923 59.5404 79.9817 59.149 78.2782 59.1448C77.3952 59.1424 76.5301 59.3211 75.686 59.585C74.019 60.1063 72.6787 61.1017 71.5368 62.4039C71.2185 62.767 70.9819 63.1755 70.7449 63.5846C70.6718 63.7109 70.5986 63.8372 70.523 63.9623C70.0899 64.6787 69.6921 65.4139 69.3611 66.1838C69.2536 66.434 69.1457 66.684 69.0351 66.9402L68.8704 67.3216L68.6631 67.0928C66.6992 64.92 64.3517 63.4298 61.4079 62.9775C60.3125 62.8092 59.2184 62.7997 58.1191 62.8885C57.6066 62.9298 57.1001 63.016 56.5938 63.1022L56.5 63.1182C56.5083 62.5421 56.5543 61.9688 56.6005 61.3947L56.6096 61.2814C56.6739 60.4789 56.7881 59.6837 56.9228 58.892C57.0369 58.2217 57.1831 57.5563 57.3422 56.8938C57.5972 55.8324 57.9011 54.7867 58.2677 53.759C58.2753 53.7375 58.2834 53.716 58.2915 53.6945C58.3568 53.5211 58.4221 53.3478 58.2585 53.177C58.2547 53.1731 58.2594 53.1611 58.266 53.144C58.2698 53.1342 58.2743 53.1227 58.2781 53.11C58.3982 53.2686 58.459 53.2413 58.5216 53.0712C58.89 52.0717 59.3194 51.0975 59.7644 50.1302C59.8088 50.0334 59.8408 49.9401 59.7987 49.8359C59.3884 48.8177 59.0476 47.7758 58.7471 46.7207C58.5178 45.916 58.304 45.1072 58.1295 44.2882C58.0429 43.8813 57.9523 43.4752 57.8616 43.0691C57.8203 42.8842 57.7791 42.6992 57.7382 42.5142C57.7176 42.1965 57.6602 41.8843 57.6028 41.5722C57.5716 41.4026 57.5404 41.2331 57.5151 41.0626C57.4042 40.315 57.302 39.5666 57.2239 38.815C57.1436 38.042 57.0881 37.2677 57.0497 36.4909C57.0122 35.7331 57.003 34.9758 57.0311 34.2193C57.066 33.2872 57.1286 32.3545 57.3652 31.4468C57.4936 30.9538 57.6613 30.4722 57.9357 30.0359C58.2511 29.5344 58.5066 29.4398 59.0917 29.5307C60.1182 29.6902 61.0223 30.136 61.8807 30.6881C63.0256 31.4245 64.0438 32.3178 65.0091 33.2734C65.284 33.5454 65.5594 33.8168 65.8349 34.0881L66.1724 34.4206C66.1799 34.4309 66.187 34.4414 66.1942 34.4519C66.21 34.4751 66.2258 34.4982 66.2445 34.5187C66.4115 34.701 66.5794 34.8825 66.7473 35.064C67.0891 35.4336 67.431 35.8033 67.7656 36.1792C68.4732 36.9741 69.175 37.7743 69.8652 38.5841C70.0052 38.7483 70.1183 38.7743 70.3098 38.6952C71.5239 38.1943 72.7825 37.8408 74.0718 37.5983C75.1868 37.3887 76.3169 37.3161 77.4481 37.2766C79.0681 37.2201 80.6825 37.295 82.2832 37.5626C83.7175 37.8024 85.1213 38.1634 86.482 38.6815L86.4973 38.6873C86.7887 38.7982 86.7893 38.7985 86.9846 38.5231C87.5845 37.6771 88.2276 36.8647 88.8857 36.0635C89.2912 35.5698 89.7181 35.0952 90.145 34.6207C90.2376 34.5177 90.3303 34.4146 90.4227 34.3114C90.5786 34.162 90.7331 34.0111 90.8876 33.8602ZM68.2157 51.995C68.4897 52.0137 68.7958 51.9883 69.1074 51.9623C69.1816 51.9562 69.256 51.95 69.3305 51.9443C69.7375 51.9135 70.1421 51.8364 70.5278 51.6973C70.7658 51.6114 70.9862 51.4719 71.0803 51.2228C71.2532 50.7648 71.2917 50.2827 71.1562 49.8155C70.9452 49.0888 70.4129 48.5986 69.8362 48.1498C69.3346 47.7593 68.7668 47.6025 68.1473 47.7072C67.0787 47.8877 65.9906 48.8346 65.8596 49.9484C65.8018 50.4384 65.7741 50.9065 66.0568 51.3482C66.247 51.6456 66.4453 51.8945 66.837 51.926L66.9194 51.9327C67.3343 51.9663 67.7513 52.0002 68.2157 51.995ZM88.3979 52.0017C88.5653 52.0137 88.8013 51.994 89.0579 51.9726C89.1697 51.9633 89.2853 51.9537 89.401 51.9462C89.739 51.9244 90.0592 51.8471 90.2651 51.5257C90.554 51.0746 90.673 50.585 90.5998 50.0596C90.4718 49.139 89.9344 48.4939 89.1564 48.0385C88.5346 47.6745 87.8705 47.5593 87.1729 47.8108C86.7669 47.9573 86.44 48.2294 86.1328 48.5178C85.5891 49.0284 85.1735 49.6136 85.1122 50.3939C85.0557 51.1105 85.3465 51.5426 86.0252 51.7429C86.7545 51.958 87.5032 51.9853 88.3979 52.0017ZM92.0755 55.1139L92.0753 55.047C92.0745 54.6171 92.0737 54.1856 91.9385 53.7739C91.9239 53.7294 91.9108 53.6885 91.8987 53.6508C91.7624 53.2254 91.7616 53.2229 91.2663 53.2665C90.5278 53.3315 89.8667 53.6433 89.2147 53.9689C88.289 54.4312 87.4117 54.9771 86.5505 55.5475C86.4304 55.627 86.3096 55.7056 86.1888 55.7841C85.608 56.1618 85.0264 56.5399 84.5276 57.0275C84.0512 57.4931 83.6256 57.9946 83.5181 58.6884C83.4848 58.903 83.556 59.029 83.7871 59.0847C84.0052 59.1374 84.2242 59.1813 84.453 59.1808C85.3115 59.1793 86.1495 59.0268 86.977 58.8248C88.0422 58.5649 89.0767 58.2109 90.0539 57.7047C90.7032 57.3681 91.3165 56.9821 91.8134 56.4336C91.9439 56.2895 92.0403 56.1427 92.0373 55.9323C92.0346 55.7417 92.0474 55.551 92.0602 55.3603C92.0657 55.2782 92.0712 55.196 92.0755 55.1139ZM64.8725 55.0437C64.8752 55.0952 64.8798 55.1564 64.8849 55.2247C64.8989 55.4116 64.9168 55.6515 64.9113 55.8908C64.9043 56.1962 65.053 56.4003 65.2551 56.595C66.0925 57.4024 67.1201 57.8777 68.1888 58.2806C68.8833 58.5425 69.5949 58.7458 70.3204 58.9056C71.0476 59.066 71.7798 59.1822 72.5248 59.2028C72.7909 59.2101 73.0554 59.1806 73.311 59.0944C73.5278 59.0213 73.5959 58.9162 73.5609 58.7005C73.5301 58.5114 73.4728 58.3315 73.3867 58.1601C73.0538 57.4976 72.5392 56.9907 71.9432 56.5786C70.4044 55.5148 68.843 54.4833 67.1168 53.7372C66.5919 53.5103 66.0526 53.3244 65.4637 53.3313C65.2638 53.3337 65.1768 53.4157 65.1046 53.5858C64.9398 53.9741 64.9141 54.3827 64.8819 54.8956L64.8725 55.0437ZM59.4452 32.9338C59.3185 32.9164 59.2918 32.953 59.1796 33.205C58.76 34.1466 58.6396 35.1491 58.5879 36.1626C58.5559 36.7891 58.6086 37.4144 58.6634 38.0394C58.7014 38.4722 58.7529 38.903 58.8183 39.3318C58.891 39.8074 58.9758 40.281 59.0668 40.754C59.1874 41.3804 59.3241 42.0025 59.4793 42.62C59.6728 43.3901 59.887 44.1553 60.1074 44.9182C60.2419 45.3839 60.388 45.8462 60.5342 46.3085C60.5864 46.4738 60.6387 46.639 60.6904 46.8044C60.7039 46.8475 60.7208 46.9012 60.7812 46.9012C60.8209 46.9012 60.8367 46.8717 60.8522 46.8427C60.8562 46.8352 60.8602 46.8278 60.8646 46.8209C61.29 46.1478 61.7178 45.477 62.1993 44.8405C62.7993 44.0475 63.4165 43.2701 64.1086 42.5551C64.6681 41.9769 65.2358 41.4063 65.8555 40.8919C66.431 40.414 67.0192 39.9513 67.6394 39.5321C67.7534 39.455 67.7465 39.3964 67.6619 39.3068C67.5173 39.154 67.3746 38.9994 67.2318 38.8448C66.9631 38.5538 66.6943 38.2628 66.4139 37.9836C65.6899 37.2626 64.9548 36.5536 64.1726 35.8934C63.6057 35.4148 63.0314 34.9472 62.4234 34.5232C61.7881 34.0803 61.1249 33.6792 60.431 33.3366C60.1097 33.178 59.777 33.0323 59.4452 32.9338ZM90.7102 41.1235C90.7721 41.2308 90.8666 41.3037 90.9612 41.3767C91.0177 41.4202 91.0743 41.4638 91.1239 41.5148C91.2934 41.6889 91.4651 41.8608 91.6369 42.0326C92.0624 42.4584 92.488 42.8842 92.8792 43.3447C93.3155 43.8583 93.7312 44.3865 94.1315 44.9276C94.5528 45.4968 94.95 46.0831 95.3287 46.6814C95.3448 46.7067 95.3573 46.7362 95.3698 46.7655C95.4006 46.8381 95.431 46.9097 95.5141 46.9158C95.5457 46.918 95.5992 46.7494 95.6272 46.6545C95.7255 46.3222 95.8276 45.9911 95.9298 45.6599C96.0676 45.2132 96.2054 44.7664 96.3339 44.3167C96.5877 43.428 96.8229 42.5349 97.0196 41.6333C97.235 40.6467 97.421 39.6543 97.5342 38.6471C97.6095 37.9771 97.6521 37.3067 97.6779 36.6357C97.6986 36.0918 97.6385 35.5484 97.5787 35.0065L97.5611 34.8467C97.5569 34.8343 97.552 34.822 97.5471 34.8097C97.5368 34.7837 97.5264 34.7577 97.5234 34.7309C97.4595 34.1713 97.2862 33.6435 97.0532 33.1346C96.9383 32.8835 96.9124 32.881 96.6473 32.986C95.7278 33.3505 94.8593 33.8154 94.0465 34.3747C92.7713 35.2523 91.6083 36.2686 90.4946 37.3412C89.8459 37.9657 89.2272 38.6196 88.6239 39.2882C88.532 39.39 88.5097 39.4457 88.6417 39.5423L88.8229 39.6747C89.2567 39.9912 89.6905 40.3078 90.108 40.647C90.1702 40.6975 90.2292 40.7524 90.2883 40.8075C90.4172 40.9276 90.5465 41.0481 90.7102 41.1235Z" fill="white"/>
<path d="M84.6773 70.6637L84.5664 71.1227C84.4624 71.5528 84.3599 71.9766 84.2593 72.4008C84.2321 72.5154 84.1556 72.5156 84.0614 72.5153C83.7325 72.5141 83.7313 72.5172 83.6135 72.8249L83.6116 72.83C83.4746 73.1875 83.3372 73.5449 83.1957 73.913L82.9701 74.5C82.9294 74.4234 82.8823 74.3533 82.8363 74.2847C82.726 74.1203 82.6216 73.9646 82.625 73.7508C82.6297 73.4572 82.6318 73.1635 82.6338 72.8699C82.6363 72.5073 82.6388 72.1446 82.6464 71.7821C82.6495 71.6331 82.6239 71.5997 82.4684 71.6269C81.0925 71.8672 79.7055 71.9858 78.309 71.9326C77.4432 71.8997 76.5783 71.8365 75.7263 71.6617C75.6574 71.6476 75.5869 71.6412 75.5194 71.6352C75.4895 71.6325 75.4601 71.6298 75.4317 71.6266C75.4317 71.8163 75.4303 72.0057 75.429 72.1949C75.4257 72.6492 75.4224 73.1027 75.4381 73.555C75.45 73.9017 75.4251 74.2188 75.1612 74.4887C74.9334 74.1827 74.7911 73.8258 74.668 73.4624L74.6622 73.4452C74.5727 73.1812 74.4824 72.9148 74.4529 72.6352C74.4309 72.4257 74.2868 72.4437 74.1598 72.4827C73.9668 72.5419 73.9082 72.4835 73.8698 72.2899C73.8235 72.0554 73.7822 71.8204 73.7661 71.5839C73.7545 71.4138 73.7013 71.2878 73.569 71.1821C73.4967 71.1244 73.431 71.0584 73.3653 70.9925C73.3344 70.9615 73.3035 70.9305 73.2719 70.9004C73.2151 70.846 73.226 70.7768 73.2362 70.7122L73.2369 70.7078C73.2457 70.6516 73.2872 70.6576 73.3242 70.6629C73.3346 70.6644 73.3446 70.6659 73.3535 70.6659C73.663 70.6668 73.9726 70.6688 74.2822 70.6709C74.5332 70.6725 74.7842 70.6742 75.0351 70.6752C75.1397 70.6756 75.2257 70.6918 75.2278 70.8221C75.2293 70.905 75.2826 70.9075 75.3423 70.9103L75.3549 70.9109C76.0866 70.9508 76.819 70.9518 77.5514 70.9529L77.774 70.9533C77.86 70.9535 77.911 70.9272 77.9528 70.852C77.997 70.7727 78.0442 70.6951 78.0915 70.6175C78.1429 70.533 78.1944 70.4484 78.2419 70.3617C78.3223 70.215 78.3979 70.0772 78.6058 70.1283C78.7001 70.1513 78.7176 70.0882 78.7173 70.0074L78.7171 69.9665C78.715 69.4607 78.713 68.9549 78.718 68.4492C78.7191 68.3497 78.6635 68.3273 78.5987 68.3013C78.5937 68.2993 78.5886 68.2972 78.5835 68.2951C78.579 68.2933 78.5744 68.2914 78.5699 68.2894C77.7859 67.9497 77.0462 67.5388 76.445 66.9172C75.9483 66.4037 75.643 65.8122 75.6874 65.0701C75.702 64.8245 75.6982 64.5777 75.6943 64.3309C75.6924 64.215 75.6906 64.0991 75.6907 63.9833C75.6913 63.2123 76.2 62.7026 76.9706 62.7022C78.2355 62.7016 79.5003 62.7014 80.765 62.7022C81.4465 62.7027 82.1367 63.4004 82.1136 64.0819C82.1076 64.2601 82.1088 64.4387 82.1101 64.6173C82.1127 65.0056 82.1154 65.394 82.044 65.7788C81.8925 66.5968 81.4381 67.2216 80.7879 67.7151C80.4563 67.9668 80.0974 68.1743 79.6999 68.3054C79.6113 68.3346 79.5885 68.3779 79.5891 68.4658C79.5929 68.9785 79.5943 69.4914 79.5885 70.0039C79.5873 70.1151 79.6243 70.153 79.728 70.1355C79.8928 70.1074 79.9804 70.1817 80.0553 70.3294C80.0749 70.368 80.0942 70.4086 80.1137 70.4496C80.2008 70.6327 80.2931 70.8269 80.4414 70.9134C80.5647 70.9853 80.7387 70.9713 80.9118 70.9572C80.984 70.9514 81.056 70.9456 81.1242 70.946C81.2746 70.947 81.4251 70.9469 81.5755 70.9468C81.8763 70.9466 82.1771 70.9464 82.4776 70.9548C82.6319 70.9591 82.7364 70.928 82.7949 70.7769C82.8191 70.7143 82.8632 70.6624 82.9471 70.6627C83.3814 70.6641 83.8157 70.6639 84.2541 70.6638L84.6773 70.6637Z" fill="white"/>
<path d="M79.2498 72.4341C79.0831 72.4338 78.9164 72.4336 78.7497 72.4336V72.4265C78.5561 72.4265 78.3625 72.4265 78.1689 72.4266C77.7817 72.4266 77.3945 72.4267 77.0074 72.4265C76.8341 72.4264 76.7481 72.4263 76.707 72.4691C76.6654 72.5126 76.6698 72.6002 76.6761 72.7767C76.6795 72.8687 76.7235 72.9104 76.7877 72.9524C76.9125 73.0344 77.0496 73.0893 77.1868 73.1442C77.2382 73.1648 77.2897 73.1855 77.3405 73.2075C77.4704 73.2638 77.5406 73.2515 77.5926 73.097C77.6914 72.8042 77.7044 72.8051 77.9962 72.8243L78.0243 72.8261C78.1291 72.8328 78.1853 72.8804 78.2323 72.9586C78.2781 73.0347 78.3235 73.111 78.369 73.1872C78.431 73.2914 78.4931 73.3955 78.5559 73.499C78.725 73.7775 78.9971 73.7943 79.2097 73.541C79.2642 73.476 79.319 73.4113 79.3738 73.3465C79.4111 73.3025 79.4485 73.2584 79.4857 73.2142C79.6377 73.0339 79.7138 72.9435 79.7968 72.9366C79.8801 72.9297 79.9704 73.0068 80.1514 73.1613C80.162 73.1703 80.172 73.1804 80.1819 73.1904C80.2185 73.2274 80.2547 73.264 80.3224 73.2479C80.6179 73.1777 80.8381 72.8951 80.8469 72.6042C80.8517 72.4484 80.7883 72.4298 80.6563 72.431C80.1875 72.4353 79.7187 72.4347 79.2498 72.4341Z" fill="white"/>
<defs>
<filter id="filter0_f_302_1619" x="29.823" y="12.7847" width="98.3539" height="102.431" filterUnits="userSpaceOnUse" color-interpolation-filters="sRGB">
<feFlood flood-opacity="0" result="BackgroundImageFix"/>
<feBlend mode="normal" in="SourceGraphic" in2="BackgroundImageFix" result="shape"/>
<feGaussianBlur stdDeviation="9" result="effect1_foregroundBlur_302_1619"/>
</filter>
<filter id="filter1_f_302_1619" x="0.225094" y="0.784664" width="157.55" height="162.431" filterUnits="userSpaceOnUse" color-interpolation-filters="sRGB">
<feFlood flood-opacity="0" result="BackgroundImageFix"/>
<feBlend mode="normal" in="SourceGraphic" in2="BackgroundImageFix" result="shape"/>
<feGaussianBlur stdDeviation="22.5" result="effect1_foregroundBlur_302_1619"/>
</filter>
<linearGradient id="paint0_linear_302_1619" x1="78.9999" y1="6.78467" x2="78.9999" y2="97.2155" gradientUnits="userSpaceOnUse">
<stop stop-color="#DB7D1F"/>
<stop offset="1" stop-color="#C4701C"/>
</linearGradient>
</defs>
</svg>
