<svg width="158" height="164" viewBox="0 0 158 164" fill="none" xmlns="http://www.w3.org/2000/svg">
<g opacity="0.3" filter="url(#filter0_f_302_1616)">
<path d="M69.9999 33.1962C75.5691 29.9808 82.4307 29.9808 87.9999 33.1962L101.177 40.8039C106.746 44.0193 110.177 49.9616 110.177 56.3924V71.6078C110.177 78.0385 106.746 83.9808 101.177 87.1962L87.9999 94.8039C82.4307 98.0193 75.5691 98.0193 69.9999 94.8039L56.823 87.1962C51.2538 83.9808 47.823 78.0385 47.823 71.6078V56.3924C47.823 49.9616 51.2538 44.0193 56.823 40.8039L69.9999 33.1962Z" fill="#9C2921"/>
</g>
<g opacity="0.4" filter="url(#filter1_f_302_1616)">
<path d="M70.0001 48.1962C75.5693 44.9808 82.4309 44.9808 88.0001 48.1962L103.775 57.3039C109.344 60.5193 112.775 66.4616 112.775 72.8924V91.1078C112.775 97.5385 109.344 103.481 103.775 106.696L88.0001 115.804C82.4309 119.019 75.5693 119.019 70.0001 115.804L54.2251 106.696C48.6559 103.481 45.2251 97.5385 45.2251 91.1078V72.8924C45.2251 66.4616 48.6559 60.5193 54.2251 57.3039L70.0001 48.1962Z" fill="#9C2921"/>
</g>
<path d="M69.9999 9.19621C75.5691 5.98082 82.4307 5.98082 87.9999 9.19621L111.569 22.8039C117.138 26.0193 120.569 31.9616 120.569 38.3924V65.6078C120.569 72.0385 117.138 77.9808 111.569 81.1962L87.9999 94.8039C82.4307 98.0193 75.5691 98.0193 69.9999 94.8039L46.4307 81.1962C40.8614 77.9808 37.4307 72.0385 37.4307 65.6078V38.3924C37.4307 31.9616 40.8614 26.0193 46.4307 22.8039L69.9999 9.19621Z" fill="url(#paint0_linear_302_1616)"/>
<path d="M100.187 43.0567C98.0776 41.109 95.1597 38.1349 92.7831 36.0255L92.6425 35.9271C92.4085 35.7392 92.1447 35.5918 91.8621 35.4911C86.1317 34.4224 59.4625 29.4373 58.9422 29.5006C58.7964 29.521 58.657 29.5739 58.5344 29.6553L58.4008 29.7607C58.2363 29.9278 58.1113 30.1296 58.0352 30.3514L58 30.4428V30.942V31.0193C61.0023 39.3794 72.8568 66.7657 75.1912 73.1922C75.3318 73.6281 75.599 74.4578 76.0982 74.5H76.2107C76.4779 74.5 77.6169 72.9953 77.6169 72.9953C77.6169 72.9953 97.9792 48.3019 100.039 45.6723C100.306 45.3483 100.541 44.9999 100.742 44.6316C100.794 44.3435 100.77 44.047 100.672 43.771C100.575 43.495 100.408 43.2489 100.187 43.0567ZM82.8411 45.9324L91.5316 38.7255L96.6292 43.4223L82.8411 45.9324ZM79.4661 45.4613L64.5038 33.199L88.7121 37.6638L79.4661 45.4613ZM80.8161 48.6746L96.13 46.2066L78.6224 67.3001L80.8161 48.6746ZM62.4718 34.4224L78.2146 47.7816L75.9365 67.3142L62.4718 34.4224Z" fill="white"/>
<defs>
<filter id="filter0_f_302_1616" x="29.823" y="12.7847" width="98.3539" height="102.431" filterUnits="userSpaceOnUse" color-interpolation-filters="sRGB">
<feFlood flood-opacity="0" result="BackgroundImageFix"/>
<feBlend mode="normal" in="SourceGraphic" in2="BackgroundImageFix" result="shape"/>
<feGaussianBlur stdDeviation="9" result="effect1_foregroundBlur_302_1616"/>
</filter>
<filter id="filter1_f_302_1616" x="0.225094" y="0.784664" width="157.55" height="162.431" filterUnits="userSpaceOnUse" color-interpolation-filters="sRGB">
<feFlood flood-opacity="0" result="BackgroundImageFix"/>
<feBlend mode="normal" in="SourceGraphic" in2="BackgroundImageFix" result="shape"/>
<feGaussianBlur stdDeviation="22.5" result="effect1_foregroundBlur_302_1616"/>
</filter>
<linearGradient id="paint0_linear_302_1616" x1="78.9999" y1="6.78467" x2="78.9999" y2="97.2155" gradientUnits="userSpaceOnUse">
<stop stop-color="#D9534A"/>
<stop offset="1" stop-color="#C6342A"/>
</linearGradient>
</defs>
</svg>
