<svg width="158" height="164" viewBox="0 0 158 164" fill="none" xmlns="http://www.w3.org/2000/svg">
<g opacity="0.3" filter="url(#filter0_f_302_1624)">
<path d="M70 33.1962C75.5693 29.9808 82.4308 29.9808 88 33.1962L101.177 40.8039C106.746 44.0193 110.177 49.9616 110.177 56.3924V71.6078C110.177 78.0385 106.746 83.9808 101.177 87.1962L88 94.8039C82.4308 98.0193 75.5693 98.0193 70 94.8039L56.8231 87.1962C51.2539 83.9808 47.8231 78.0385 47.8231 71.6078V56.3924C47.8231 49.9616 51.2539 44.0193 56.8231 40.8039L70 33.1962Z" fill="#0C378D"/>
</g>
<g opacity="0.4" filter="url(#filter1_f_302_1624)">
<path d="M70.0002 48.1962C75.5694 44.9808 82.431 44.9808 88.0002 48.1962L103.775 57.3039C109.344 60.5193 112.775 66.4616 112.775 72.8924V91.1078C112.775 97.5385 109.344 103.481 103.775 106.696L88.0002 115.804C82.431 119.019 75.5694 119.019 70.0002 115.804L54.2252 106.696C48.656 103.481 45.2252 97.5385 45.2252 91.1078V72.8924C45.2252 66.4616 48.656 60.5193 54.2252 57.3039L70.0002 48.1962Z" fill="#0C378D"/>
</g>
<path d="M70.0002 9.19621C75.5694 5.98082 82.431 5.98082 88.0002 9.19621L111.569 22.8039C117.139 26.0193 120.569 31.9616 120.569 38.3924V65.6078C120.569 72.0385 117.139 77.9808 111.569 81.1962L88.0002 94.8039C82.431 98.0193 75.5694 98.0193 70.0002 94.8039L46.431 81.1962C40.8617 77.9808 37.431 72.0385 37.431 65.6078V38.3924C37.431 31.9616 40.8617 26.0193 46.431 22.8039L70.0002 9.19621Z" fill="url(#paint0_linear_302_1624)"/>
<path d="M61.5476 45.5139C57.9322 55.113 62.9187 65.9586 72.6424 69.449C73.0164 69.6985 73.3903 70.1969 73.3903 70.5709V72.3164C73.3903 72.5656 73.3903 72.6904 73.2656 72.8148C73.1411 73.3136 72.6424 73.5628 72.1436 73.3136C65.1627 71.0697 59.8021 65.7091 57.5582 58.7281C53.8183 46.8854 60.3008 34.2943 72.1436 30.5545C72.2684 30.43 72.5176 30.43 72.6424 30.43C73.1411 30.5545 73.3903 30.9284 73.3903 31.4272V33.1724C73.3903 33.7959 73.1411 34.1698 72.6424 34.4191C67.5313 36.289 63.4175 40.2781 61.5476 45.5139Z" fill="white"/>
<path d="M84.7347 31.0532C84.8591 30.5545 85.3579 30.3052 85.8566 30.5545C92.7128 32.7984 98.1982 38.1589 100.442 45.2647C104.182 57.1074 97.6994 69.6985 85.8566 73.4383C85.7319 73.5628 85.4826 73.5628 85.3579 73.5628C84.8591 73.4383 84.6099 73.0644 84.6099 72.5656V70.8204C84.6099 70.1969 84.8591 69.8229 85.3579 69.5737C90.4689 67.7038 94.5828 63.7147 96.4527 58.4789C100.068 48.8797 95.0815 38.0342 85.3579 34.5438C84.9839 34.2943 84.6099 33.7959 84.6099 33.2971V31.5519C84.6099 31.3024 84.6099 31.178 84.7347 31.0532Z" fill="white"/>
<path d="M79.371 49.8764C84.6067 50.4996 87.2246 51.9956 87.2246 56.3587C87.2246 59.7245 84.7315 62.3425 80.9917 62.966V65.9579C80.8669 66.5811 80.493 66.9551 79.9942 66.9551H78.1243C77.5011 66.8303 77.1271 66.4563 77.1271 65.9579V62.966C73.0133 62.3425 71.0187 60.0985 70.5202 56.9822V56.8574C70.5202 56.3587 70.8942 55.9847 71.3927 55.9847H73.5121C73.8861 55.9847 74.2601 56.2342 74.3845 56.7326C74.7585 58.6026 75.8804 59.9741 79.1218 59.9741C81.4901 59.9741 83.2356 58.6029 83.2356 56.6082C83.2356 54.6135 82.1136 53.8655 78.6231 53.2423C73.3873 52.6188 70.8942 50.9984 70.8942 46.8845C70.8942 43.7679 73.2626 41.2747 77.0024 40.776V37.9088C77.1271 37.2853 77.5011 36.9113 77.9999 36.9113H79.8698C80.493 37.0361 80.8669 37.4101 80.8669 37.9088V40.9007C83.734 41.15 85.9779 43.2691 86.4767 46.0118V46.1365C86.4767 46.635 86.1027 47.009 85.6039 47.009H83.6096C83.2356 47.009 82.8616 46.7598 82.7368 46.3858C82.1136 44.5158 80.8669 43.7679 78.6231 43.7679C76.13 43.7679 74.8833 44.8895 74.8833 46.635C74.8833 48.3805 75.6312 49.3777 79.371 49.8764Z" fill="white"/>
<defs>
<filter id="filter0_f_302_1624" x="29.8231" y="12.7847" width="98.3538" height="102.431" filterUnits="userSpaceOnUse" color-interpolation-filters="sRGB">
<feFlood flood-opacity="0" result="BackgroundImageFix"/>
<feBlend mode="normal" in="SourceGraphic" in2="BackgroundImageFix" result="shape"/>
<feGaussianBlur stdDeviation="9" result="effect1_foregroundBlur_302_1624"/>
</filter>
<filter id="filter1_f_302_1624" x="0.225216" y="0.784664" width="157.55" height="162.431" filterUnits="userSpaceOnUse" color-interpolation-filters="sRGB">
<feFlood flood-opacity="0" result="BackgroundImageFix"/>
<feBlend mode="normal" in="SourceGraphic" in2="BackgroundImageFix" result="shape"/>
<feGaussianBlur stdDeviation="22.5" result="effect1_foregroundBlur_302_1624"/>
</filter>
<linearGradient id="paint0_linear_302_1624" x1="79.0002" y1="6.78467" x2="79.0002" y2="97.2155" gradientUnits="userSpaceOnUse">
<stop stop-color="#4D83EF"/>
<stop offset="1" stop-color="#145CEB"/>
</linearGradient>
</defs>
</svg>
