<svg width="158" height="164" viewBox="0 0 158 164" fill="none" xmlns="http://www.w3.org/2000/svg">
<g opacity="0.3" filter="url(#filter0_f_302_1623)">
<path d="M69.9999 33.1962C75.5691 29.9808 82.4307 29.9808 87.9999 33.1962L101.177 40.8039C106.746 44.0193 110.177 49.9616 110.177 56.3924V71.6078C110.177 78.0385 106.746 83.9808 101.177 87.1962L87.9999 94.8039C82.4307 98.0193 75.5691 98.0193 69.9999 94.8039L56.823 87.1962C51.2538 83.9808 47.823 78.0385 47.823 71.6078V56.3924C47.823 49.9616 51.2538 44.0193 56.823 40.8039L69.9999 33.1962Z" fill="#194327"/>
</g>
<g opacity="0.4" filter="url(#filter1_f_302_1623)">
<path d="M70.0001 48.1962C75.5693 44.9808 82.4309 44.9808 88.0001 48.1962L103.775 57.3039C109.344 60.5193 112.775 66.4616 112.775 72.8924V91.1078C112.775 97.5385 109.344 103.481 103.775 106.696L88.0001 115.804C82.4309 119.019 75.5693 119.019 70.0001 115.804L54.2251 106.696C48.6559 103.481 45.2251 97.5385 45.2251 91.1078V72.8924C45.2251 66.4616 48.6559 60.5193 54.2251 57.3039L70.0001 48.1962Z" fill="#194327"/>
</g>
<path d="M69.9999 9.19621C75.5691 5.98082 82.4307 5.98082 87.9999 9.19621L111.569 22.8039C117.138 26.0193 120.569 31.9616 120.569 38.3924V65.6078C120.569 72.0385 117.138 77.9808 111.569 81.1962L87.9999 94.8039C82.4307 98.0193 75.5691 98.0193 69.9999 94.8039L46.4307 81.1962C40.8614 77.9808 37.4307 72.0385 37.4307 65.6078V38.3924C37.4307 31.9616 40.8614 26.0193 46.4307 22.8039L69.9999 9.19621Z" fill="url(#paint0_linear_302_1623)"/>
<path fill-rule="evenodd" clip-rule="evenodd" d="M83.2728 53.2962C83.0341 53.3141 81.8011 53.3877 79.0507 53.3877C76.8631 53.3877 75.3099 53.322 74.765 53.2962C66.3109 52.9243 60.0007 51.4526 60.0007 49.6906C60.0007 47.9286 66.3109 46.4589 74.765 46.0811V51.8305C75.3179 51.8703 76.9009 51.9637 79.0885 51.9637C81.7136 51.9637 83.0282 51.8543 83.2648 51.8325V46.085C91.701 46.4609 97.9974 47.9326 97.9974 49.6906C97.9974 51.4486 91.703 52.9203 83.2648 53.2942L83.2728 53.2962ZM83.2728 45.4904V40.3456H95.0461V32.5H62.9917V40.3456H74.763V45.4884C65.1952 45.9279 58 47.8232 58 50.0943C58 52.3654 65.1952 54.2587 74.763 54.7002V71.1868H83.2708V54.6943C92.8167 54.2547 100 52.3615 100 50.0923C100 47.8232 92.8227 45.9299 83.2708 45.4884L83.2728 45.4904Z" fill="white"/>
<defs>
<filter id="filter0_f_302_1623" x="29.823" y="12.7847" width="98.3538" height="102.431" filterUnits="userSpaceOnUse" color-interpolation-filters="sRGB">
<feFlood flood-opacity="0" result="BackgroundImageFix"/>
<feBlend mode="normal" in="SourceGraphic" in2="BackgroundImageFix" result="shape"/>
<feGaussianBlur stdDeviation="9" result="effect1_foregroundBlur_302_1623"/>
</filter>
<filter id="filter1_f_302_1623" x="0.225094" y="0.784664" width="157.55" height="162.431" filterUnits="userSpaceOnUse" color-interpolation-filters="sRGB">
<feFlood flood-opacity="0" result="BackgroundImageFix"/>
<feBlend mode="normal" in="SourceGraphic" in2="BackgroundImageFix" result="shape"/>
<feGaussianBlur stdDeviation="22.5" result="effect1_foregroundBlur_302_1623"/>
</filter>
<linearGradient id="paint0_linear_302_1623" x1="78.9999" y1="6.78467" x2="78.9999" y2="97.2155" gradientUnits="userSpaceOnUse">
<stop stop-color="#3FA862"/>
<stop offset="1" stop-color="#348D52"/>
</linearGradient>
</defs>
</svg>
