<svg width="158" height="164" viewBox="0 0 158 164" fill="none" xmlns="http://www.w3.org/2000/svg">
<g opacity="0.3" filter="url(#filter0_f_302_1615)">
<path d="M69.9999 33.1962C75.5691 29.9808 82.4307 29.9808 87.9999 33.1962L101.177 40.8039C106.746 44.0193 110.177 49.9616 110.177 56.3924V71.6078C110.177 78.0385 106.746 83.9808 101.177 87.1962L87.9999 94.8039C82.4307 98.0193 75.5691 98.0193 69.9999 94.8039L56.823 87.1962C51.2538 83.9808 47.823 78.0385 47.823 71.6078V56.3924C47.823 49.9616 51.2538 44.0193 56.823 40.8039L69.9999 33.1962Z" fill="#6B3D0F"/>
</g>
<g opacity="0.4" filter="url(#filter1_f_302_1615)">
<path d="M70.0001 48.1962C75.5693 44.9808 82.4309 44.9808 88.0001 48.1962L103.775 57.3039C109.344 60.5193 112.775 66.4616 112.775 72.8924V91.1078C112.775 97.5385 109.344 103.481 103.775 106.696L88.0001 115.804C82.4309 119.019 75.5693 119.019 70.0001 115.804L54.2251 106.696C48.6559 103.481 45.2251 97.5385 45.2251 91.1078V72.8924C45.2251 66.4616 48.6559 60.5193 54.2251 57.3039L70.0001 48.1962Z" fill="#6B3D0F"/>
</g>
<path d="M69.9999 9.19621C75.5691 5.98082 82.4307 5.98082 87.9999 9.19621L111.569 22.8039C117.138 26.0193 120.569 31.9616 120.569 38.3924V65.6078C120.569 72.0385 117.138 77.9808 111.569 81.1962L87.9999 94.8039C82.4307 98.0193 75.5691 98.0193 69.9999 94.8039L46.4307 81.1962C40.8614 77.9808 37.4307 72.0385 37.4307 65.6078V38.3924C37.4307 31.9616 40.8614 26.0193 46.4307 22.8039L69.9999 9.19621Z" fill="url(#paint0_linear_302_1615)"/>
<path d="M79.0118 34.4677C74.6428 34.4677 70.432 36.1027 67.2079 39.051L65.9434 37.8155C69.4999 34.5366 74.1601 32.7162 78.9974 32.7162C83.8347 32.7162 88.4948 34.5366 92.0513 37.8155L90.8158 39.051C87.5916 36.1027 83.3808 34.4677 79.0118 34.4677Z" fill="white"/>
<path d="M91.9577 40.18L93.1933 38.9445V38.9156C96.4721 42.4721 98.2925 47.1323 98.2925 51.9696C98.2925 56.8069 96.4721 61.467 93.1933 65.0235L91.9577 63.7879C94.906 60.5638 96.541 56.353 96.541 51.984C96.541 47.615 94.906 43.4042 91.9577 40.18Z" fill="white"/>
<path d="M66.051 63.7993C63.1062 60.5758 61.4734 56.3676 61.4734 52.0015C61.4734 47.6354 63.1062 43.4272 66.051 40.2037L64.8155 38.9682C61.5366 42.5247 59.7162 47.1848 59.7162 52.0221C59.7162 56.8594 61.5366 61.5196 64.8155 65.0761L66.051 63.7993Z" fill="white"/>
<path d="M78.996 69.5245C83.365 69.5245 87.5758 67.8895 90.8 64.9412L92.0644 66.1768C88.5079 69.4556 83.8477 71.276 79.0104 71.276C74.1731 71.276 69.513 69.4556 65.9565 66.1768L67.1921 64.9412C70.4163 67.8895 74.6271 69.5245 78.996 69.5245Z" fill="white"/>
<path fill-rule="evenodd" clip-rule="evenodd" d="M86.8003 47.8772C86.5532 45.299 84.3291 44.4341 81.5161 44.1705V40.6202H79.3415V44.1046H77.6034V40.6202H75.4453V44.1952H71.0342V46.5222C71.0342 46.5222 72.6405 46.4934 72.6158 46.5222C72.9054 46.4903 73.1961 46.5722 73.4266 46.7504C73.6571 46.9286 73.8094 47.1894 73.8514 47.4777V57.2636C73.8452 57.3652 73.8187 57.4646 73.7734 57.5559C73.7281 57.6472 73.665 57.7284 73.5878 57.7948C73.512 57.8626 73.4233 57.9142 73.3271 57.9468C73.2308 57.9794 73.129 57.9921 73.0276 57.9843C73.0565 58.009 71.4461 57.9843 71.4461 57.9843L71.0342 60.5832H75.4041V64.2158H77.5787V60.6367H79.3168V64.1993H81.4955V60.6079C85.1693 60.3855 87.7311 59.4794 88.0524 56.0403C88.3118 53.2726 87.0103 52.037 84.9304 51.5387C86.1949 50.9168 86.9774 49.7636 86.8003 47.8772ZM83.7525 55.612C83.7525 58.0923 79.8511 58.0353 78.0707 58.0093C77.9118 58.007 77.7695 58.0049 77.6487 58.0049V53.2108C77.7997 53.2113 77.9838 53.2072 78.1926 53.2026C80.0227 53.1621 83.7525 53.0796 83.7525 55.612ZM82.7435 48.8575C82.7435 51.1165 79.515 51.0592 78.0231 51.0327C77.883 51.0302 77.7582 51.028 77.6528 51.028V46.6705C77.7758 46.6705 77.9253 46.6666 78.0947 46.6622C79.6156 46.6226 82.7435 46.5413 82.7435 48.8575Z" fill="white"/>
<path fill-rule="evenodd" clip-rule="evenodd" d="M66.4971 70.7064C70.1966 73.179 74.5462 74.4992 78.9959 74.5C81.9513 74.5005 84.8779 73.9188 87.6085 72.7881C90.3391 71.6573 92.8201 69.9997 94.9099 67.9099C96.9997 65.8201 98.6573 63.3391 99.7881 60.6085C100.919 57.8779 101.501 54.9513 101.5 51.9959C101.499 47.5462 100.179 43.1966 97.7064 39.4971C95.2337 35.7976 91.7196 32.9144 87.6085 31.2119C83.4973 29.5095 78.9737 29.0642 74.6095 29.9325C70.2453 30.8008 66.2365 32.9437 63.0901 36.0901C59.9437 39.2365 57.8008 43.2453 56.9325 47.6095C56.0642 51.9737 56.5095 56.4973 58.2119 60.6085C59.9144 64.7196 62.7976 68.2337 66.4971 70.7064ZM67.4825 34.7561C70.8897 32.4763 74.8963 31.2578 78.9959 31.2545C81.7207 31.2524 84.4192 31.7873 86.9371 32.8288C89.455 33.8703 91.7429 35.3979 93.67 37.3242C95.5971 39.2505 97.1256 41.5378 98.168 44.0553C99.2105 46.5728 99.7466 49.2711 99.7455 51.9959C99.7438 56.0955 98.5269 60.1025 96.2485 63.5106C93.97 66.9187 90.7323 69.5749 86.9447 71.1433C83.157 72.7118 78.9894 73.1222 74.9685 72.3226C70.9477 71.523 67.2542 69.5493 64.3548 66.6511C61.4553 63.7528 59.4802 60.0601 58.679 56.0395C57.8779 52.019 58.2866 47.8512 59.8535 44.0629C61.4205 40.2747 64.0753 37.0359 67.4825 34.7561Z" fill="white"/>
<defs>
<filter id="filter0_f_302_1615" x="29.823" y="12.7847" width="98.3539" height="102.431" filterUnits="userSpaceOnUse" color-interpolation-filters="sRGB">
<feFlood flood-opacity="0" result="BackgroundImageFix"/>
<feBlend mode="normal" in="SourceGraphic" in2="BackgroundImageFix" result="shape"/>
<feGaussianBlur stdDeviation="9" result="effect1_foregroundBlur_302_1615"/>
</filter>
<filter id="filter1_f_302_1615" x="0.225094" y="0.784664" width="157.55" height="162.431" filterUnits="userSpaceOnUse" color-interpolation-filters="sRGB">
<feFlood flood-opacity="0" result="BackgroundImageFix"/>
<feBlend mode="normal" in="SourceGraphic" in2="BackgroundImageFix" result="shape"/>
<feGaussianBlur stdDeviation="22.5" result="effect1_foregroundBlur_302_1615"/>
</filter>
<linearGradient id="paint0_linear_302_1615" x1="78.9999" y1="6.78467" x2="78.9999" y2="97.2155" gradientUnits="userSpaceOnUse">
<stop stop-color="#F4BA45"/>
<stop offset="1" stop-color="#F19C3B"/>
</linearGradient>
</defs>
</svg>
