<svg width="158" height="164" viewBox="0 0 158 164" fill="none" xmlns="http://www.w3.org/2000/svg">
<g opacity="0.3" filter="url(#filter0_f_302_1597)">
<path d="M69.9999 33.1962C75.5691 29.9808 82.4307 29.9808 87.9999 33.1962L101.177 40.8039C106.746 44.0193 110.177 49.9616 110.177 56.3924V71.6078C110.177 78.0385 106.746 83.9808 101.177 87.1962L87.9999 94.8039C82.4307 98.0193 75.5691 98.0193 69.9999 94.8039L56.823 87.1962C51.2538 83.9808 47.823 78.0385 47.823 71.6078V56.3924C47.823 49.9616 51.2538 44.0193 56.823 40.8039L69.9999 33.1962Z" fill="#521B6F"/>
</g>
<g opacity="0.4" filter="url(#filter1_f_302_1597)">
<path d="M70.0001 48.1962C75.5693 44.9808 82.4309 44.9808 88.0001 48.1962L103.775 57.3039C109.344 60.5193 112.775 66.4616 112.775 72.8924V91.1078C112.775 97.5385 109.344 103.481 103.775 106.696L88.0001 115.804C82.4309 119.019 75.5693 119.019 70.0001 115.804L54.2251 106.696C48.6559 103.481 45.2251 97.5385 45.2251 91.1078V72.8924C45.2251 66.4616 48.6559 60.5193 54.2251 57.3039L70.0001 48.1962Z" fill="#521B6F"/>
</g>
<path d="M69.9999 9.19621C75.5691 5.98082 82.4307 5.98082 87.9999 9.19621L111.569 22.8039C117.138 26.0193 120.569 31.9616 120.569 38.3924V65.6078C120.569 72.0385 117.138 77.9808 111.569 81.1962L87.9999 94.8039C82.4307 98.0193 75.5691 98.0193 69.9999 94.8039L46.4307 81.1962C40.8614 77.9808 37.4307 72.0385 37.4307 65.6078V38.3924C37.4307 31.9616 40.8614 26.0193 46.4307 22.8039L69.9999 9.19621Z" fill="url(#paint0_linear_302_1597)"/>
<path d="M101.5 34.2421V38.1298L56.5 61.0601V57.1705L58.1354 56.3366C58.7441 56.0264 59.2475 55.5432 59.5822 54.9476C59.9169 54.3521 60.068 53.6708 60.0165 52.9896C59.9797 52.5085 59.9612 52.0256 59.9612 51.5407C59.9609 48.0302 60.9312 44.5878 62.7648 41.5942C64.5985 38.6006 67.2242 36.1723 70.3517 34.5776C73.4792 32.9829 76.9866 32.284 80.4865 32.5581C83.9864 32.8322 87.3423 34.0687 90.1834 36.1308L86.6193 37.9471C84.2485 36.623 81.5729 35.9412 78.8575 35.9694C76.1421 35.9975 73.4812 36.7345 71.1383 38.1075C68.7955 39.4804 66.8519 41.4416 65.5002 43.7968C64.1485 46.152 63.4356 48.8195 63.432 51.535C63.4323 52.2156 63.4768 52.8955 63.5653 53.5703L101.5 34.2421Z" fill="white"/>
<path d="M65.9775 60.1085L101.5 42.0217V45.898L99.8627 46.7319C99.2545 47.0425 98.7516 47.5259 98.4173 48.1214C98.083 48.7169 97.9321 49.3979 97.9835 50.0789C98.0197 50.5625 98.0388 51.0518 98.0388 51.5411C98.0376 55.0512 97.0661 58.4926 95.2317 61.4851C93.3972 64.4777 90.7711 66.9049 87.6437 68.4984C84.5162 70.092 81.009 70.79 77.5097 70.5153C74.0104 70.2405 70.6552 69.0037 67.8147 66.9415L71.177 65.228L71.3674 65.1271C73.7387 66.4567 76.4166 67.143 79.1351 67.1178C81.8536 67.0926 84.5183 66.3567 86.8646 64.9833C89.2108 63.61 91.1571 61.6468 92.5101 59.2887C93.8631 56.9307 94.5758 54.2597 94.5775 51.5411C94.5773 50.8561 94.5328 50.1718 94.4442 49.4925L56.5 68.8264V64.9406L65.9775 60.1085Z" fill="white"/>
<defs>
<filter id="filter0_f_302_1597" x="29.823" y="12.7847" width="98.3539" height="102.431" filterUnits="userSpaceOnUse" color-interpolation-filters="sRGB">
<feFlood flood-opacity="0" result="BackgroundImageFix"/>
<feBlend mode="normal" in="SourceGraphic" in2="BackgroundImageFix" result="shape"/>
<feGaussianBlur stdDeviation="9" result="effect1_foregroundBlur_302_1597"/>
</filter>
<filter id="filter1_f_302_1597" x="0.225094" y="0.784664" width="157.55" height="162.431" filterUnits="userSpaceOnUse" color-interpolation-filters="sRGB">
<feFlood flood-opacity="0" result="BackgroundImageFix"/>
<feBlend mode="normal" in="SourceGraphic" in2="BackgroundImageFix" result="shape"/>
<feGaussianBlur stdDeviation="22.5" result="effect1_foregroundBlur_302_1597"/>
</filter>
<linearGradient id="paint0_linear_302_1597" x1="78.9999" y1="6.78467" x2="78.9999" y2="97.2155" gradientUnits="userSpaceOnUse">
<stop stop-color="#A64ED4"/>
<stop offset="1" stop-color="#8E2FC1"/>
</linearGradient>
</defs>
</svg>
