<svg width="158" height="164" viewBox="0 0 158 164" fill="none" xmlns="http://www.w3.org/2000/svg">
<g opacity="0.3" filter="url(#filter0_f_302_1607)">
<path d="M69.9999 33.1962C75.5691 29.9808 82.4307 29.9808 87.9999 33.1962L101.177 40.8039C106.746 44.0193 110.177 49.9616 110.177 56.3924V71.6078C110.177 78.0385 106.746 83.9808 101.177 87.1962L87.9999 94.8039C82.4307 98.0193 75.5691 98.0193 69.9999 94.8039L56.823 87.1962C51.2538 83.9808 47.823 78.0385 47.823 71.6078V56.3924C47.823 49.9616 51.2538 44.0193 56.823 40.8039L69.9999 33.1962Z" fill="#073B54"/>
</g>
<g opacity="0.4" filter="url(#filter1_f_302_1607)">
<path d="M70.0001 48.1962C75.5693 44.9808 82.4309 44.9808 88.0001 48.1962L103.775 57.3039C109.344 60.5193 112.775 66.4616 112.775 72.8924V91.1078C112.775 97.5385 109.344 103.481 103.775 106.696L88.0001 115.804C82.4309 119.019 75.5693 119.019 70.0001 115.804L54.2251 106.696C48.6559 103.481 45.2251 97.5385 45.2251 91.1078V72.8924C45.2251 66.4616 48.6559 60.5193 54.2251 57.3039L70.0001 48.1962Z" fill="#073B54"/>
</g>
<path d="M69.9999 9.19621C75.5691 5.98082 82.4307 5.98082 87.9999 9.19621L111.569 22.8039C117.138 26.0193 120.569 31.9616 120.569 38.3924V65.6078C120.569 72.0385 117.138 77.9808 111.569 81.1962L87.9999 94.8039C82.4307 98.0193 75.5691 98.0193 69.9999 94.8039L46.4307 81.1962C40.8614 77.9808 37.4307 72.0385 37.4307 65.6078V38.3924C37.4307 31.9616 40.8614 26.0193 46.4307 22.8039L69.9999 9.19621Z" fill="url(#paint0_linear_302_1607)"/>
<path d="M83.847 74.4999C80.6359 74.4999 78.2921 73.7265 76.8156 72.1796C75.4479 70.8702 74.6542 69.0725 74.608 67.1796C74.5914 66.6045 74.7246 66.035 74.9947 65.5271C75.2466 65.0882 75.6105 64.724 76.0492 64.4717C76.5592 64.2174 77.1212 64.085 77.6911 64.085C78.2609 64.085 78.8229 64.2174 79.3329 64.4717C79.7708 64.723 80.133 65.0875 80.3815 65.5271C80.6593 66.0326 80.7976 66.603 80.782 67.1796C80.8107 67.8683 80.6132 68.5474 80.2196 69.1132C79.8915 69.5751 79.4226 69.9182 78.8832 70.0912C79.4107 70.7628 80.1572 71.2282 80.9925 71.4062C81.9271 71.6776 82.895 71.8172 83.8682 71.8209C85.1567 71.8321 86.4186 71.4548 87.4894 70.7381C88.6003 69.9533 89.4287 68.8315 89.8519 67.5389C90.3883 66.0006 90.6501 64.3798 90.6253 62.7508C90.6686 61.0524 90.382 59.3618 89.7815 57.7726C89.3299 56.5015 88.4725 55.4143 87.3417 54.6788C86.2906 54.0137 85.0705 53.6647 83.8267 53.6734C82.7429 53.7652 81.6978 54.12 80.782 54.707L78.5244 55.8389V54.707L88.6705 41.096H74.608V55.2203C74.5683 56.2396 74.8379 57.247 75.3814 58.1101C75.6444 58.4863 76.0001 58.7881 76.414 58.9864C76.8279 59.1847 77.286 59.2728 77.7439 59.2421C78.59 59.2249 79.4082 58.9366 80.0781 58.4195C80.8374 57.863 81.4982 57.1832 82.0329 56.4084C82.081 56.2726 82.1698 56.1548 82.2871 56.0712C82.3813 55.9897 82.5016 55.9448 82.6261 55.9446C82.8704 55.9669 83.1016 56.0652 83.2871 56.2257C83.5221 56.4883 83.6501 56.8295 83.6456 57.1819C83.6185 57.4187 83.5762 57.6536 83.5191 57.885C83.0195 59.0941 82.1821 60.1337 81.1072 60.8793C80.1088 61.5549 78.9296 61.9131 77.7241 61.907C74.6795 61.907 72.5702 61.307 71.3964 60.107C70.793 59.4438 70.328 58.6668 70.0286 57.8217C69.7292 56.9765 69.6014 56.0802 69.6526 55.185V41.096H62.5V38.4717H69.6859V32.4881L68.0407 30.8418V29.5H72.8148L74.608 30.4282V38.4717L93.1844 38.4152L95.0338 40.2715L83.6431 51.7175C84.3312 51.4407 85.0559 51.2655 85.7945 51.1971C87.2563 51.2612 88.6825 51.6683 89.9578 52.3856C91.4346 53.0875 92.6792 54.1981 93.544 55.5858C94.3189 56.7606 94.8674 58.0698 95.1612 59.446C95.4028 60.5316 95.5324 61.6391 95.5479 62.7511C95.5555 64.8733 95.0743 66.9688 94.1417 68.8751C93.2573 70.7211 91.7688 72.2096 89.9228 73.094C88.0331 74.0251 85.9536 74.5063 83.847 74.4999Z" fill="white"/>
<defs>
<filter id="filter0_f_302_1607" x="29.823" y="12.7847" width="98.3539" height="102.431" filterUnits="userSpaceOnUse" color-interpolation-filters="sRGB">
<feFlood flood-opacity="0" result="BackgroundImageFix"/>
<feBlend mode="normal" in="SourceGraphic" in2="BackgroundImageFix" result="shape"/>
<feGaussianBlur stdDeviation="9" result="effect1_foregroundBlur_302_1607"/>
</filter>
<filter id="filter1_f_302_1607" x="0.225094" y="0.784664" width="157.55" height="162.431" filterUnits="userSpaceOnUse" color-interpolation-filters="sRGB">
<feFlood flood-opacity="0" result="BackgroundImageFix"/>
<feBlend mode="normal" in="SourceGraphic" in2="BackgroundImageFix" result="shape"/>
<feGaussianBlur stdDeviation="22.5" result="effect1_foregroundBlur_302_1607"/>
</filter>
<linearGradient id="paint0_linear_302_1607" x1="78.9999" y1="6.78467" x2="78.9999" y2="97.2155" gradientUnits="userSpaceOnUse">
<stop stop-color="#149DE1"/>
<stop offset="1" stop-color="#107CB2"/>
</linearGradient>
</defs>
</svg>
